<svg width="24" height="24" viewBox="0 0 24 24" fill="none" xmlns="http://www.w3.org/2000/svg">
<path d="M15.1 13.6C17.2539 13.6 19 11.8987 19 9.8C19 7.70132 17.2539 6 15.1 6C12.9461 6 11.2 7.70132 11.2 9.8C11.2 11.8987 12.9461 13.6 15.1 13.6Z" fill="white"/>
<path d="M15.1 13.6C17.2539 13.6 19 11.8987 19 9.8C19 7.70132 17.2539 6 15.1 6C12.9461 6 11.2 7.70132 11.2 9.8C11.2 11.8987 12.9461 13.6 15.1 13.6Z" fill="url(#paint0_radial_732_3920)"/>
<path d="M19.5 10.9H11.3V14.5H19.5V10.9Z" fill="white"/>
<path d="M11.3 14.4C13.0673 14.4 14.5 13.0121 14.5 11.3C14.5 9.58792 13.0673 8.2 11.3 8.2C9.53269 8.2 8.10001 9.58792 8.10001 11.3C8.10001 13.0121 9.53269 14.4 11.3 14.4Z" fill="white"/>
<path d="M11.3 14.4C13.0673 14.4 14.5 13.0121 14.5 11.3C14.5 9.58792 13.0673 8.2 11.3 8.2C9.53269 8.2 8.10001 9.58792 8.10001 11.3C8.10001 13.0121 9.53269 14.4 11.3 14.4Z" fill="url(#paint1_radial_732_3920)"/>
<path d="M19.4 14.4C20.8359 14.4 22 13.2807 22 11.9C22 10.5193 20.8359 9.4 19.4 9.4C17.9641 9.4 16.8 10.5193 16.8 11.9C16.8 13.2807 17.9641 14.4 19.4 14.4Z" fill="white"/>
<path d="M19.4 14.4C20.8359 14.4 22 13.2807 22 11.9C22 10.5193 20.8359 9.4 19.4 9.4C17.9641 9.4 16.8 10.5193 16.8 11.9C16.8 13.2807 17.9641 14.4 19.4 14.4Z" fill="url(#paint2_radial_732_3920)"/>
<path d="M19.4 9.4C19.3 9.4 19.1 9.4 19 9.4C18.8 7.5 17.2 6 15.1 6C13.5 6 12.2 6.9 11.6 8.2C11.5 8.2 11.4 8.2 11.2 8.2C9.4 8.2 8 9.6 8 11.3C8 13 9.4 14.4 11.2 14.4H19.4C20.8 14.4 22 13.3 22 11.9C22 10.6 20.8 9.4 19.4 9.4Z" fill="url(#paint3_linear_732_3920)"/>
<path d="M10.9 16C13.3853 16 15.4 13.9853 15.4 11.5C15.4 9.01472 13.3853 7 10.9 7C8.41471 7 6.39999 9.01472 6.39999 11.5C6.39999 13.9853 8.41471 16 10.9 16Z" fill="white"/>
<mask id="mask0_732_3920" style="mask-type:luminance" maskUnits="userSpaceOnUse" x="6" y="7" width="10" height="9">
<path d="M10.9 16C13.3853 16 15.4 13.9853 15.4 11.5C15.4 9.01472 13.3853 7 10.9 7C8.41471 7 6.39999 9.01472 6.39999 11.5C6.39999 13.9853 8.41471 16 10.9 16Z" fill="white"/>
</mask>
<g mask="url(#mask0_732_3920)">
<path d="M15.3 7H6.39999V16H15.3V7Z" fill="#CFEBF8"/>
</g>
<mask id="mask1_732_3920" style="mask-type:luminance" maskUnits="userSpaceOnUse" x="6" y="7" width="10" height="9">
<path d="M10.9 16C13.3853 16 15.4 13.9853 15.4 11.5C15.4 9.01472 13.3853 7 10.9 7C8.41471 7 6.39999 9.01472 6.39999 11.5C6.39999 13.9853 8.41471 16 10.9 16Z" fill="white"/>
</mask>
<g mask="url(#mask1_732_3920)">
<path d="M10.9 15.6C13.1644 15.6 15 13.7644 15 11.5C15 9.23563 13.1644 7.4 10.9 7.4C8.63562 7.4 6.79999 9.23563 6.79999 11.5C6.79999 13.7644 8.63562 15.6 10.9 15.6Z" fill="#CFEBF8"/>
</g>
<mask id="mask2_732_3920" style="mask-type:luminance" maskUnits="userSpaceOnUse" x="6" y="7" width="10" height="9">
<path d="M10.9 16C13.3853 16 15.4 13.9853 15.4 11.5C15.4 9.01472 13.3853 7 10.9 7C8.41471 7 6.39999 9.01472 6.39999 11.5C6.39999 13.9853 8.41471 16 10.9 16Z" fill="white"/>
</mask>
<g mask="url(#mask2_732_3920)">
<path d="M10.9 13.6C12.0046 13.6 12.9 12.6598 12.9 11.5C12.9 10.3402 12.0046 9.4 10.9 9.4C9.79542 9.4 8.89999 10.3402 8.89999 11.5C8.89999 12.6598 9.79542 13.6 10.9 13.6Z" fill="#CFEBF8"/>
</g>
<path d="M15.3 17C17.3435 17 19 15.3435 19 13.3C19 11.2565 17.3435 9.6 15.3 9.6C13.2566 9.6 11.6 11.2565 11.6 13.3C11.6 15.3435 13.2566 17 15.3 17Z" fill="white"/>
<mask id="mask3_732_3920" style="mask-type:luminance" maskUnits="userSpaceOnUse" x="11" y="9" width="8" height="8">
<path d="M15.3 17C17.3435 17 19 15.3435 19 13.3C19 11.2565 17.3435 9.6 15.3 9.6C13.2566 9.6 11.6 11.2565 11.6 13.3C11.6 15.3435 13.2566 17 15.3 17Z" fill="white"/>
</mask>
<g mask="url(#mask3_732_3920)">
<path d="M19 9.6H11.6V17H19V9.6Z" fill="#CFEBF8"/>
</g>
<mask id="mask4_732_3920" style="mask-type:luminance" maskUnits="userSpaceOnUse" x="11" y="9" width="8" height="8">
<path d="M15.3 17C17.3435 17 19 15.3435 19 13.3C19 11.2565 17.3435 9.6 15.3 9.6C13.2566 9.6 11.6 11.2565 11.6 13.3C11.6 15.3435 13.2566 17 15.3 17Z" fill="white"/>
</mask>
<g mask="url(#mask4_732_3920)">
<path d="M15.1 19.6C17.751 19.6 19.9 17.451 19.9 14.8C19.9 12.149 17.751 10 15.1 10C12.449 10 10.3 12.149 10.3 14.8C10.3 17.451 12.449 19.6 15.1 19.6Z" fill="#CFEBF8"/>
</g>
<mask id="mask5_732_3920" style="mask-type:luminance" maskUnits="userSpaceOnUse" x="11" y="9" width="8" height="8">
<path d="M15.3 17C17.3435 17 19 15.3435 19 13.3C19 11.2565 17.3435 9.6 15.3 9.6C13.2566 9.6 11.6 11.2565 11.6 13.3C11.6 15.3435 13.2566 17 15.3 17Z" fill="white"/>
</mask>
<g mask="url(#mask5_732_3920)">
<path d="M15.1 17.2C16.4255 17.2 17.5 16.1255 17.5 14.8C17.5 13.4745 16.4255 12.4 15.1 12.4C13.7745 12.4 12.7 13.4745 12.7 14.8C12.7 16.1255 13.7745 17.2 15.1 17.2Z" fill="#CFEBF8"/>
</g>
<path d="M6 17C7.65685 17 9 15.6569 9 14C9 12.3431 7.65685 11 6 11C4.34315 11 3 12.3431 3 14C3 15.6569 4.34315 17 6 17Z" fill="white"/>
<mask id="mask6_732_3920" style="mask-type:luminance" maskUnits="userSpaceOnUse" x="3" y="11" width="6" height="6">
<path d="M6 17C7.65685 17 9 15.6569 9 14C9 12.3431 7.65685 11 6 11C4.34315 11 3 12.3431 3 14C3 15.6569 4.34315 17 6 17Z" fill="white"/>
</mask>
<g mask="url(#mask6_732_3920)">
<path d="M8.9 11H3V17H8.9V11Z" fill="#CFEBF8"/>
</g>
<mask id="mask7_732_3920" style="mask-type:luminance" maskUnits="userSpaceOnUse" x="3" y="11" width="6" height="6">
<path d="M6 17C7.65685 17 9 15.6569 9 14C9 12.3431 7.65685 11 6 11C4.34315 11 3 12.3431 3 14C3 15.6569 4.34315 17 6 17Z" fill="white"/>
</mask>
<g mask="url(#mask7_732_3920)">
<path d="M6.6 18.2C8.42254 18.2 9.9 16.7225 9.9 14.9C9.9 13.0775 8.42254 11.6 6.6 11.6C4.77746 11.6 3.3 13.0775 3.3 14.9C3.3 16.7225 4.77746 18.2 6.6 18.2Z" fill="#CFEBF8"/>
</g>
<mask id="mask8_732_3920" style="mask-type:luminance" maskUnits="userSpaceOnUse" x="3" y="11" width="6" height="6">
<path d="M6 17C7.65685 17 9 15.6569 9 14C9 12.3431 7.65685 11 6 11C4.34315 11 3 12.3431 3 14C3 15.6569 4.34315 17 6 17Z" fill="white"/>
</mask>
<g mask="url(#mask8_732_3920)">
<path d="M6.6 16.5C7.48366 16.5 8.2 15.7837 8.2 14.9C8.2 14.0163 7.48366 13.3 6.6 13.3C5.71634 13.3 5 14.0163 5 14.9C5 15.7837 5.71634 16.5 6.6 16.5Z" fill="#CFEBF8"/>
</g>
<defs>
<radialGradient id="paint0_radial_732_3920" cx="0" cy="0" r="1" gradientUnits="userSpaceOnUse" gradientTransform="translate(15.1412 9.8009) scale(3.87958 3.8009)">
<stop stop-color="#CFEBF8"/>
<stop offset="0.7844" stop-color="#CFEBF8"/>
<stop offset="0.9149" stop-color="#CFEBF8"/>
</radialGradient>
<radialGradient id="paint1_radial_732_3920" cx="0" cy="0" r="1" gradientUnits="userSpaceOnUse" gradientTransform="translate(11.4952 12.6341) scale(4.18793 4.103)">
<stop stop-color="#CFEBF8"/>
<stop offset="0.8574" stop-color="#CFEBF8"/>
<stop offset="1" stop-color="#CFEBF8"/>
</radialGradient>
<radialGradient id="paint2_radial_732_3920" cx="0" cy="0" r="1" gradientUnits="userSpaceOnUse" gradientTransform="translate(18.8484 12.6788) scale(2.84408 2.7864)">
<stop stop-color="#CFEBF8"/>
<stop offset="0.8574" stop-color="#CFEBF8"/>
<stop offset="1" stop-color="#CFEBF8"/>
</radialGradient>
<linearGradient id="paint3_linear_732_3920" x1="15.0295" y1="1.2738" x2="15.0295" y2="15.9514" gradientUnits="userSpaceOnUse">
<stop offset="0.00515464" stop-color="#6D7E86"/>
<stop offset="1" stop-color="#677881"/>
</linearGradient>
</defs>
</svg>
