<svg width="24" height="24" viewBox="0 0 24 24" fill="none" xmlns="http://www.w3.org/2000/svg">
<path d="M12.9 14C15.3853 14 17.4 11.9853 17.4 9.5C17.4 7.01472 15.3853 5 12.9 5C10.4147 5 8.39999 7.01472 8.39999 9.5C8.39999 11.9853 10.4147 14 12.9 14Z" fill="white"/>
<mask id="mask0_732_3619" style="mask-type:luminance" maskUnits="userSpaceOnUse" x="8" y="5" width="10" height="9">
<path d="M12.9 14C15.3853 14 17.4 11.9853 17.4 9.5C17.4 7.01472 15.3853 5 12.9 5C10.4147 5 8.39999 7.01472 8.39999 9.5C8.39999 11.9853 10.4147 14 12.9 14Z" fill="white"/>
</mask>
<g mask="url(#mask0_732_3619)">
<path d="M17.3 5H8.39999V14H17.3V5Z" fill="#CFEBF8"/>
</g>
<mask id="mask1_732_3619" style="mask-type:luminance" maskUnits="userSpaceOnUse" x="8" y="5" width="10" height="9">
<path d="M12.9 14C15.3853 14 17.4 11.9853 17.4 9.5C17.4 7.01472 15.3853 5 12.9 5C10.4147 5 8.39999 7.01472 8.39999 9.5C8.39999 11.9853 10.4147 14 12.9 14Z" fill="white"/>
</mask>
<g mask="url(#mask1_732_3619)">
<path d="M12.9 13.6C15.1644 13.6 17 11.7644 17 9.5C17 7.23563 15.1644 5.4 12.9 5.4C10.6356 5.4 8.79999 7.23563 8.79999 9.5C8.79999 11.7644 10.6356 13.6 12.9 13.6Z" fill="#CFEBF8"/>
</g>
<mask id="mask2_732_3619" style="mask-type:luminance" maskUnits="userSpaceOnUse" x="8" y="5" width="10" height="9">
<path d="M12.9 14C15.3853 14 17.4 11.9853 17.4 9.5C17.4 7.01472 15.3853 5 12.9 5C10.4147 5 8.39999 7.01472 8.39999 9.5C8.39999 11.9853 10.4147 14 12.9 14Z" fill="white"/>
</mask>
<g mask="url(#mask2_732_3619)">
<path d="M12.9 11.6C14.0046 11.6 14.9 10.6598 14.9 9.5C14.9 8.3402 14.0046 7.4 12.9 7.4C11.7954 7.4 10.9 8.3402 10.9 9.5C10.9 10.6598 11.7954 11.6 12.9 11.6Z" fill="#CFEBF8"/>
</g>
<path d="M17.3 15C19.3435 15 21 13.3435 21 11.3C21 9.25655 19.3435 7.6 17.3 7.6C15.2566 7.6 13.6 9.25655 13.6 11.3C13.6 13.3435 15.2566 15 17.3 15Z" fill="white"/>
<mask id="mask3_732_3619" style="mask-type:luminance" maskUnits="userSpaceOnUse" x="13" y="7" width="8" height="8">
<path d="M17.3 15C19.3435 15 21 13.3435 21 11.3C21 9.25655 19.3435 7.6 17.3 7.6C15.2566 7.6 13.6 9.25655 13.6 11.3C13.6 13.3435 15.2566 15 17.3 15Z" fill="white"/>
</mask>
<g mask="url(#mask3_732_3619)">
<path d="M21 7.6H13.6V15H21V7.6Z" fill="#CFEBF8"/>
</g>
<mask id="mask4_732_3619" style="mask-type:luminance" maskUnits="userSpaceOnUse" x="13" y="7" width="8" height="8">
<path d="M17.3 15C19.3435 15 21 13.3435 21 11.3C21 9.25655 19.3435 7.6 17.3 7.6C15.2566 7.6 13.6 9.25655 13.6 11.3C13.6 13.3435 15.2566 15 17.3 15Z" fill="white"/>
</mask>
<g mask="url(#mask4_732_3619)">
<path d="M17.1 17.6C19.751 17.6 21.9 15.451 21.9 12.8C21.9 10.149 19.751 8 17.1 8C14.4491 8 12.3 10.149 12.3 12.8C12.3 15.451 14.4491 17.6 17.1 17.6Z" fill="#CFEBF8"/>
</g>
<mask id="mask5_732_3619" style="mask-type:luminance" maskUnits="userSpaceOnUse" x="13" y="7" width="8" height="8">
<path d="M17.3 15C19.3435 15 21 13.3435 21 11.3C21 9.25655 19.3435 7.6 17.3 7.6C15.2566 7.6 13.6 9.25655 13.6 11.3C13.6 13.3435 15.2566 15 17.3 15Z" fill="white"/>
</mask>
<g mask="url(#mask5_732_3619)">
<path d="M17.1 15.2C18.4255 15.2 19.5 14.1255 19.5 12.8C19.5 11.4745 18.4255 10.4 17.1 10.4C15.7745 10.4 14.7 11.4745 14.7 12.8C14.7 14.1255 15.7745 15.2 17.1 15.2Z" fill="#CFEBF8"/>
</g>
<path d="M8 15C9.65685 15 11 13.6569 11 12C11 10.3431 9.65685 9 8 9C6.34315 9 5 10.3431 5 12C5 13.6569 6.34315 15 8 15Z" fill="white"/>
<mask id="mask6_732_3619" style="mask-type:luminance" maskUnits="userSpaceOnUse" x="5" y="9" width="6" height="6">
<path d="M8 15C9.65685 15 11 13.6569 11 12C11 10.3431 9.65685 9 8 9C6.34315 9 5 10.3431 5 12C5 13.6569 6.34315 15 8 15Z" fill="white"/>
</mask>
<g mask="url(#mask6_732_3619)">
<path d="M10.9 9H5V15H10.9V9Z" fill="#CFEBF8"/>
</g>
<mask id="mask7_732_3619" style="mask-type:luminance" maskUnits="userSpaceOnUse" x="5" y="9" width="6" height="6">
<path d="M8 15C9.65685 15 11 13.6569 11 12C11 10.3431 9.65685 9 8 9C6.34315 9 5 10.3431 5 12C5 13.6569 6.34315 15 8 15Z" fill="white"/>
</mask>
<g mask="url(#mask7_732_3619)">
<path d="M8.59999 16.2C10.4225 16.2 11.9 14.7225 11.9 12.9C11.9 11.0775 10.4225 9.6 8.59999 9.6C6.77745 9.6 5.29999 11.0775 5.29999 12.9C5.29999 14.7225 6.77745 16.2 8.59999 16.2Z" fill="#CFEBF8"/>
</g>
<mask id="mask8_732_3619" style="mask-type:luminance" maskUnits="userSpaceOnUse" x="5" y="9" width="6" height="6">
<path d="M8 15C9.65685 15 11 13.6569 11 12C11 10.3431 9.65685 9 8 9C6.34315 9 5 10.3431 5 12C5 13.6569 6.34315 15 8 15Z" fill="white"/>
</mask>
<g mask="url(#mask8_732_3619)">
<path d="M8.6 14.5C9.48366 14.5 10.2 13.7837 10.2 12.9C10.2 12.0163 9.48366 11.3 8.6 11.3C7.71634 11.3 7 12.0163 7 12.9C7 13.7837 7.71634 14.5 8.6 14.5Z" fill="#CFEBF8"/>
</g>
<path d="M17.5 16H15.5C15.2 16 15 15.8 15 15.5C15 15.2 15.2 15 15.5 15H17.5C17.8 15 18 15.2 18 15.5C18 15.8 17.8 16 17.5 16Z" fill="url(#paint0_linear_732_3619)"/>
<path d="M12.5 18H10.5C10.2 18 10 17.8 10 17.5C10 17.2 10.2 17 10.5 17H12.5C12.8 17 13 17.2 13 17.5C13 17.8 12.8 18 12.5 18Z" fill="url(#paint1_linear_732_3619)"/>
<path d="M16.5 18H14.5C14.2 18 14 17.8 14 17.5C14 17.2 14.2 17 14.5 17H16.5C16.8 17 17 17.2 17 17.5C17 17.8 16.8 18 16.5 18Z" fill="url(#paint2_linear_732_3619)"/>
<path d="M13.5 16H9.5C9.2 16 9 15.8 9 15.5C9 15.2 9.2 15 9.5 15H13.5C13.8 15 14 15.2 14 15.5C14 15.8 13.8 16 13.5 16Z" fill="url(#paint3_linear_732_3619)"/>
<defs>
<linearGradient id="paint0_linear_732_3619" x1="15" y1="15.5" x2="18" y2="15.5" gradientUnits="userSpaceOnUse">
<stop stop-color="#F0F0F0"/>
<stop offset="1" stop-color="#8EC4EB"/>
</linearGradient>
<linearGradient id="paint1_linear_732_3619" x1="10" y1="17.5" x2="13" y2="17.5" gradientUnits="userSpaceOnUse">
<stop stop-color="#F0F0F0"/>
<stop offset="1" stop-color="#8EC4EB"/>
</linearGradient>
<linearGradient id="paint2_linear_732_3619" x1="14" y1="17.5" x2="17" y2="17.5" gradientUnits="userSpaceOnUse">
<stop stop-color="#F0F0F0"/>
<stop offset="1" stop-color="#8EC4EB"/>
</linearGradient>
<linearGradient id="paint3_linear_732_3619" x1="9" y1="15.5" x2="14" y2="15.5" gradientUnits="userSpaceOnUse">
<stop stop-color="#F0F0F0"/>
<stop offset="1" stop-color="#8EC4EB"/>
</linearGradient>
</defs>
</svg>
