<svg width="24" height="24" viewBox="0 0 24 24" fill="none" xmlns="http://www.w3.org/2000/svg">
<path d="M19 7H5C4.4 7 4 6.6 4 6C4 5.4 4.4 5 5 5H19C19.6 5 20 5.4 20 6C20 6.6 19.6 7 19 7Z" fill="url(#paint0_linear_732_3848)"/>
<path d="M12.8 11H5C4.4 11 4 10.6 4 10C4 9.4 4.4 9 5 9H12.8C13.4 9 13.8 9.4 13.8 10C13.8 10.6 13.4 11 12.8 11Z" fill="url(#paint1_linear_732_3848)"/>
<path d="M19 19H9.89999C9.29999 19 8.89999 18.6 8.89999 18C8.89999 17.4 9.29999 17 9.89999 17H19C19.6 17 20 17.4 20 18C20 18.6 19.6 19 19 19Z" fill="url(#paint2_linear_732_3848)"/>
<path d="M19 11H16.1C15.5 11 15.1 10.6 15.1 10C15.1 9.4 15.5 9 16.1 9H19C19.6 9 20 9.4 20 10C20 10.6 19.6 11 19 11Z" fill="url(#paint3_linear_732_3848)"/>
<path d="M19 15H5C4.4 15 4 14.6 4 14C4 13.4 4.4 13 5 13H19C19.6 13 20 13.4 20 14C20 14.6 19.6 15 19 15Z" fill="url(#paint4_linear_732_3848)"/>
<path d="M6.7 19H5C4.4 19 4 18.6 4 18C4 17.4 4.4 17 5 17H6.7C7.3 17 7.7 17.4 7.7 18C7.7 18.6 7.2 19 6.7 19Z" fill="url(#paint5_linear_732_3848)"/>
<defs>
<linearGradient id="paint0_linear_732_3848" x1="4" y1="6" x2="20" y2="6" gradientUnits="userSpaceOnUse">
<stop stop-color="#F0F0F0"/>
<stop offset="1" stop-color="#8EC4EB"/>
</linearGradient>
<linearGradient id="paint1_linear_732_3848" x1="4" y1="10" x2="13.8462" y2="10" gradientUnits="userSpaceOnUse">
<stop stop-color="#F0F0F0"/>
<stop offset="1" stop-color="#8EC4EB"/>
</linearGradient>
<linearGradient id="paint2_linear_732_3848" x1="8.92309" y1="18" x2="20" y2="18" gradientUnits="userSpaceOnUse">
<stop stop-color="#F0F0F0"/>
<stop offset="1" stop-color="#8EC4EB"/>
</linearGradient>
<linearGradient id="paint3_linear_732_3848" x1="15.0769" y1="10" x2="20" y2="10" gradientUnits="userSpaceOnUse">
<stop stop-color="#F0F0F0"/>
<stop offset="1" stop-color="#8EC4EB"/>
</linearGradient>
<linearGradient id="paint4_linear_732_3848" x1="4" y1="14" x2="20" y2="14" gradientUnits="userSpaceOnUse">
<stop stop-color="#F0F0F0"/>
<stop offset="1" stop-color="#8EC4EB"/>
</linearGradient>
<linearGradient id="paint5_linear_732_3848" x1="4" y1="18" x2="7.6923" y2="18" gradientUnits="userSpaceOnUse">
<stop stop-color="#F0F0F0"/>
<stop offset="1" stop-color="#8EC4EB"/>
</linearGradient>
</defs>
</svg>
