<svg width="24" height="24" viewBox="0 0 24 24" fill="none" xmlns="http://www.w3.org/2000/svg">
<path d="M11.9 14C14.3853 14 16.4 11.9853 16.4 9.5C16.4 7.01472 14.3853 5 11.9 5C9.41471 5 7.39999 7.01472 7.39999 9.5C7.39999 11.9853 9.41471 14 11.9 14Z" fill="white"/>
<mask id="mask0_732_3259" style="mask-type:luminance" maskUnits="userSpaceOnUse" x="7" y="5" width="10" height="9">
<path d="M11.9 14C14.3853 14 16.4 11.9853 16.4 9.5C16.4 7.01472 14.3853 5 11.9 5C9.41471 5 7.39999 7.01472 7.39999 9.5C7.39999 11.9853 9.41471 14 11.9 14Z" fill="white"/>
</mask>
<g mask="url(#mask0_732_3259)">
<path d="M16.3 5H7.39999V14H16.3V5Z" fill="#CFEBF8"/>
</g>
<mask id="mask1_732_3259" style="mask-type:luminance" maskUnits="userSpaceOnUse" x="7" y="5" width="10" height="9">
<path d="M11.9 14C14.3853 14 16.4 11.9853 16.4 9.5C16.4 7.01472 14.3853 5 11.9 5C9.41471 5 7.39999 7.01472 7.39999 9.5C7.39999 11.9853 9.41471 14 11.9 14Z" fill="white"/>
</mask>
<g mask="url(#mask1_732_3259)">
<path d="M11.9 13.6C14.1644 13.6 16 11.7644 16 9.49999C16 7.23563 14.1644 5.39999 11.9 5.39999C9.63562 5.39999 7.79999 7.23563 7.79999 9.49999C7.79999 11.7644 9.63562 13.6 11.9 13.6Z" fill="#CFEBF8"/>
</g>
<mask id="mask2_732_3259" style="mask-type:luminance" maskUnits="userSpaceOnUse" x="7" y="5" width="10" height="9">
<path d="M11.9 14C14.3853 14 16.4 11.9853 16.4 9.5C16.4 7.01472 14.3853 5 11.9 5C9.41471 5 7.39999 7.01472 7.39999 9.5C7.39999 11.9853 9.41471 14 11.9 14Z" fill="white"/>
</mask>
<g mask="url(#mask2_732_3259)">
<path d="M11.9 11.6C13.0046 11.6 13.9 10.6598 13.9 9.49999C13.9 8.3402 13.0046 7.39999 11.9 7.39999C10.7954 7.39999 9.89999 8.3402 9.89999 9.49999C9.89999 10.6598 10.7954 11.6 11.9 11.6Z" fill="#CFEBF8"/>
</g>
<path d="M16.3 15C18.3435 15 20 13.3435 20 11.3C20 9.25655 18.3435 7.60001 16.3 7.60001C14.2566 7.60001 12.6 9.25655 12.6 11.3C12.6 13.3435 14.2566 15 16.3 15Z" fill="white"/>
<mask id="mask3_732_3259" style="mask-type:luminance" maskUnits="userSpaceOnUse" x="12" y="7" width="8" height="8">
<path d="M16.3 15C18.3435 15 20 13.3435 20 11.3C20 9.25655 18.3435 7.60001 16.3 7.60001C14.2566 7.60001 12.6 9.25655 12.6 11.3C12.6 13.3435 14.2566 15 16.3 15Z" fill="white"/>
</mask>
<g mask="url(#mask3_732_3259)">
<path d="M20 7.60001H12.6V15H20V7.60001Z" fill="#CFEBF8"/>
</g>
<mask id="mask4_732_3259" style="mask-type:luminance" maskUnits="userSpaceOnUse" x="12" y="7" width="8" height="8">
<path d="M16.3 15C18.3435 15 20 13.3435 20 11.3C20 9.25655 18.3435 7.60001 16.3 7.60001C14.2566 7.60001 12.6 9.25655 12.6 11.3C12.6 13.3435 14.2566 15 16.3 15Z" fill="white"/>
</mask>
<g mask="url(#mask4_732_3259)">
<path d="M16.1 17.6C18.751 17.6 20.9 15.451 20.9 12.8C20.9 10.149 18.751 8 16.1 8C13.4491 8 11.3 10.149 11.3 12.8C11.3 15.451 13.4491 17.6 16.1 17.6Z" fill="#CFEBF8"/>
</g>
<mask id="mask5_732_3259" style="mask-type:luminance" maskUnits="userSpaceOnUse" x="12" y="7" width="8" height="8">
<path d="M16.3 15C18.3435 15 20 13.3435 20 11.3C20 9.25655 18.3435 7.60001 16.3 7.60001C14.2566 7.60001 12.6 9.25655 12.6 11.3C12.6 13.3435 14.2566 15 16.3 15Z" fill="white"/>
</mask>
<g mask="url(#mask5_732_3259)">
<path d="M16.1 15.2C17.4255 15.2 18.5 14.1255 18.5 12.8C18.5 11.4745 17.4255 10.4 16.1 10.4C14.7745 10.4 13.7 11.4745 13.7 12.8C13.7 14.1255 14.7745 15.2 16.1 15.2Z" fill="#CFEBF8"/>
</g>
<path d="M7 15C8.65685 15 10 13.6569 10 12C10 10.3431 8.65685 9 7 9C5.34315 9 4 10.3431 4 12C4 13.6569 5.34315 15 7 15Z" fill="white"/>
<mask id="mask6_732_3259" style="mask-type:luminance" maskUnits="userSpaceOnUse" x="4" y="9" width="6" height="6">
<path d="M7 15C8.65685 15 10 13.6569 10 12C10 10.3431 8.65685 9 7 9C5.34315 9 4 10.3431 4 12C4 13.6569 5.34315 15 7 15Z" fill="white"/>
</mask>
<g mask="url(#mask6_732_3259)">
<path d="M9.9 9H4V15H9.9V9Z" fill="#CFEBF8"/>
</g>
<mask id="mask7_732_3259" style="mask-type:luminance" maskUnits="userSpaceOnUse" x="4" y="9" width="6" height="6">
<path d="M7 15C8.65685 15 10 13.6569 10 12C10 10.3431 8.65685 9 7 9C5.34315 9 4 10.3431 4 12C4 13.6569 5.34315 15 7 15Z" fill="white"/>
</mask>
<g mask="url(#mask7_732_3259)">
<path d="M7.59999 16.2C9.42253 16.2 10.9 14.7225 10.9 12.9C10.9 11.0775 9.42253 9.60001 7.59999 9.60001C5.77745 9.60001 4.29999 11.0775 4.29999 12.9C4.29999 14.7225 5.77745 16.2 7.59999 16.2Z" fill="#CFEBF8"/>
</g>
<mask id="mask8_732_3259" style="mask-type:luminance" maskUnits="userSpaceOnUse" x="4" y="9" width="6" height="6">
<path d="M7 15C8.65685 15 10 13.6569 10 12C10 10.3431 8.65685 9 7 9C5.34315 9 4 10.3431 4 12C4 13.6569 5.34315 15 7 15Z" fill="white"/>
</mask>
<g mask="url(#mask8_732_3259)">
<path d="M7.6 14.5C8.48366 14.5 9.2 13.7837 9.2 12.9C9.2 12.0163 8.48366 11.3 7.6 11.3C6.71634 11.3 6 12.0163 6 12.9C6 13.7837 6.71634 14.5 7.6 14.5Z" fill="#CFEBF8"/>
</g>
<path d="M10.7 15L9 16.7L11.1 17.2L9 20L14 17.2L11.7 16.4L13.5 15H10.7Z" fill="url(#paint0_radial_732_3259)"/>
<path d="M8.10001 16.6C7.90001 17 7.50001 17.1 7.10001 17C6.70001 16.8 6.60001 16.4 6.70001 16C7.10001 15.2 8.10001 14.7 8.10001 14.7C8.10001 14.7 8.50001 15.8 8.10001 16.6Z" fill="url(#paint1_linear_732_3259)"/>
<path d="M7.10001 19.6C6.90001 20 6.50001 20.1 6.10001 20C5.70001 19.8 5.60001 19.4 5.70001 19C6.10001 18.2 7.10001 17.7 7.10001 17.7C7.10001 17.7 7.50001 18.8 7.10001 19.6Z" fill="url(#paint2_linear_732_3259)"/>
<path d="M17.1 16.6C16.9 17 16.5 17.1 16.1 17C15.7 16.8 15.6 16.4 15.7 16C16.1 15.2 17.1 14.7 17.1 14.7C17.1 14.7 17.5 15.8 17.1 16.6Z" fill="url(#paint3_linear_732_3259)"/>
<path d="M16.1 19.6C15.9 20 15.5 20.1 15.1 20C14.7 19.8 14.6 19.4 14.7 19C15.1 18.2 16.1 17.7 16.1 17.7C16.1 17.7 16.5 18.8 16.1 19.6Z" fill="url(#paint4_linear_732_3259)"/>
<defs>
<radialGradient id="paint0_radial_732_3259" cx="0" cy="0" r="1" gradientUnits="userSpaceOnUse" gradientTransform="translate(11.5004 17.5) scale(2.52053 2.4801)">
<stop stop-color="#F5C445"/>
<stop offset="0.4782" stop-color="#F5C244"/>
<stop offset="0.6806" stop-color="#F4BD44"/>
<stop offset="0.8308" stop-color="#F3B443"/>
<stop offset="0.9545" stop-color="#F2A741"/>
<stop offset="1" stop-color="#F1A140"/>
</radialGradient>
<linearGradient id="paint1_linear_732_3259" x1="6.98187" y1="15.5185" x2="8.32427" y2="16.1401" gradientUnits="userSpaceOnUse">
<stop stop-color="#178BC9"/>
<stop offset="0.305" stop-color="#399AD2"/>
<stop offset="0.9266" stop-color="#6EC3E7"/>
<stop offset="1" stop-color="#75C8EA"/>
</linearGradient>
<linearGradient id="paint2_linear_732_3259" x1="5.98184" y1="18.5185" x2="7.32425" y2="19.1401" gradientUnits="userSpaceOnUse">
<stop stop-color="#178BC9"/>
<stop offset="0.305" stop-color="#399AD2"/>
<stop offset="0.9266" stop-color="#6EC3E7"/>
<stop offset="1" stop-color="#75C8EA"/>
</linearGradient>
<linearGradient id="paint3_linear_732_3259" x1="15.9818" y1="15.5183" x2="17.3242" y2="16.14" gradientUnits="userSpaceOnUse">
<stop stop-color="#178BC9"/>
<stop offset="0.305" stop-color="#399AD2"/>
<stop offset="0.9266" stop-color="#6EC3E7"/>
<stop offset="1" stop-color="#75C8EA"/>
</linearGradient>
<linearGradient id="paint4_linear_732_3259" x1="14.9819" y1="18.5184" x2="16.3243" y2="19.14" gradientUnits="userSpaceOnUse">
<stop stop-color="#178BC9"/>
<stop offset="0.305" stop-color="#399AD2"/>
<stop offset="0.9266" stop-color="#6EC3E7"/>
<stop offset="1" stop-color="#75C8EA"/>
</linearGradient>
</defs>
</svg>
