<svg width="24" height="24" viewBox="0 0 24 24" fill="none" xmlns="http://www.w3.org/2000/svg">
<path d="M18.6 15.4L5.7 9.00001C5.3 8.80001 5.2 8.30001 5.4 7.90001C5.6 7.60001 6 7.40001 6.4 7.60001L19.3 14C19.7 14.2 19.8 14.7 19.6 15.1C19.4 15.4 19 15.5 18.6 15.4Z" fill="url(#paint0_radial_732_3178)"/>
<path d="M19.1 8.60001L6.7 15.8C6.4 16 5.9 15.9 5.7 15.6C5.5 15.2 5.6 14.7 5.9 14.5L18.2 7.30001C18.5 7.10001 19 7.20001 19.2 7.50001C19.5 7.80001 19.4 8.30001 19.1 8.60001Z" fill="url(#paint1_radial_732_3178)"/>
<path d="M13.3 4.8V18.2C13.3 18.6 12.9 19 12.5 19C12.1 19 11.7 18.6 11.7 18.2V4.8C11.7 4.4 12.1 4 12.5 4C12.9 4 13.3 4.4 13.3 4.8Z" fill="url(#paint2_radial_732_3178)"/>
<path d="M12.5 8.4L10.1 6.2L10.8 5.5L12.5 7.1L14.2 5.5L14.9 6.2L12.5 8.4Z" fill="url(#paint3_radial_732_3178)"/>
<path d="M14.2 17.5L12.5 15.9L10.8 17.5L10.1 16.8L12.5 14.6L14.9 16.8L14.2 17.5Z" fill="url(#paint4_radial_732_3178)"/>
<path d="M18.9 10.5L15.4 9.5L16.6 6.2L17.5 6.5L16.7 8.9L19.2 9.6L18.9 10.5Z" fill="url(#paint5_radial_732_3178)"/>
<path d="M8.6 16.7L7.6 16.5L8.3 14.1L5.7 13.5L6 12.5L9.5 13.4L8.6 16.7Z" fill="url(#paint6_radial_732_3178)"/>
<path d="M6 10.9L5.8 10L8.5 9.6L8.1 7.1L9.1 7L9.6 10.4L6 10.9Z" fill="url(#paint7_radial_732_3178)"/>
<path d="M16.4 16.3L15.2 13L18.7 11.9L19 12.8L16.5 13.6L17.4 15.9L16.4 16.3Z" fill="url(#paint8_radial_732_3178)"/>
<defs>
<radialGradient id="paint0_radial_732_3178" cx="0" cy="0" r="1" gradientUnits="userSpaceOnUse" gradientTransform="translate(12.5002 11.4989) scale(5.90907 5.49423)">
<stop offset="0.00515464" stop-color="white"/>
<stop offset="0.3657" stop-color="#EFF8FD"/>
<stop offset="1" stop-color="#C7E7F7"/>
</radialGradient>
<radialGradient id="paint1_radial_732_3178" cx="0" cy="0" r="1" gradientUnits="userSpaceOnUse" gradientTransform="translate(12.5002 11.4989) scale(5.9221 5.50634)">
<stop stop-color="#C7E7F7"/>
<stop offset="0.6343" stop-color="#EFF8FD"/>
<stop offset="0.9948" stop-color="white"/>
</radialGradient>
<radialGradient id="paint2_radial_732_3178" cx="0" cy="0" r="1" gradientUnits="userSpaceOnUse" gradientTransform="translate(12.5002 11.4989) scale(5.73202 5.3296)">
<stop stop-color="#C7E7F7"/>
<stop offset="0.6343" stop-color="#EFF8FD"/>
<stop offset="0.9948" stop-color="white"/>
</radialGradient>
<radialGradient id="paint3_radial_732_3178" cx="0" cy="0" r="1" gradientUnits="userSpaceOnUse" gradientTransform="translate(12.5002 6.97718) scale(2.00163 1.86111)">
<stop offset="0.00515464" stop-color="white"/>
<stop offset="0.3657" stop-color="#EFF8FD"/>
<stop offset="1" stop-color="#C7E7F7"/>
</radialGradient>
<radialGradient id="paint4_radial_732_3178" cx="0" cy="0" r="1" gradientUnits="userSpaceOnUse" gradientTransform="translate(12.5002 16.0209) scale(2.00163 1.86111)">
<stop stop-color="#C7E7F7"/>
<stop offset="0.6343" stop-color="#EFF8FD"/>
<stop offset="0.9948" stop-color="white"/>
</radialGradient>
<radialGradient id="paint5_radial_732_3178" cx="0" cy="0" r="1" gradientUnits="userSpaceOnUse" gradientTransform="translate(17.3022 8.36602) scale(2.13404 1.98422)">
<stop offset="0.00515464" stop-color="white"/>
<stop offset="0.3657" stop-color="#EFF8FD"/>
<stop offset="1" stop-color="#C7E7F7"/>
</radialGradient>
<radialGradient id="paint6_radial_732_3178" cx="0" cy="0" r="1" gradientUnits="userSpaceOnUse" gradientTransform="translate(7.60694 14.6433) scale(2.09249 1.94558)">
<stop stop-color="#C7E7F7"/>
<stop offset="0.6343" stop-color="#EFF8FD"/>
<stop offset="0.9948" stop-color="white"/>
</radialGradient>
<radialGradient id="paint7_radial_732_3178" cx="0" cy="0" r="1" gradientUnits="userSpaceOnUse" gradientTransform="translate(7.71578 8.9343) scale(2.00256 1.86197)">
<stop offset="0.00515464" stop-color="white"/>
<stop offset="0.3657" stop-color="#EFF8FD"/>
<stop offset="1" stop-color="#C7E7F7"/>
</radialGradient>
<radialGradient id="paint8_radial_732_3178" cx="0" cy="0" r="1" gradientUnits="userSpaceOnUse" gradientTransform="translate(17.0836 14.0698) scale(2.14334 1.99287)">
<stop offset="0.00515464" stop-color="white"/>
<stop offset="0.3657" stop-color="#EFF8FD"/>
<stop offset="1" stop-color="#C7E7F7"/>
</radialGradient>
</defs>
</svg>
