<svg width="24" height="24" viewBox="0 0 24 24" fill="none" xmlns="http://www.w3.org/2000/svg">
<path d="M11.9 13C14.3853 13 16.4 10.9853 16.4 8.5C16.4 6.01472 14.3853 4 11.9 4C9.41471 4 7.39999 6.01472 7.39999 8.5C7.39999 10.9853 9.41471 13 11.9 13Z" fill="white"/>
<mask id="mask0_732_3028" style="mask-type:luminance" maskUnits="userSpaceOnUse" x="7" y="4" width="10" height="9">
<path d="M11.9 13C14.3853 13 16.4 10.9853 16.4 8.5C16.4 6.01472 14.3853 4 11.9 4C9.41471 4 7.39999 6.01472 7.39999 8.5C7.39999 10.9853 9.41471 13 11.9 13Z" fill="white"/>
</mask>
<g mask="url(#mask0_732_3028)">
<path d="M16.3 4H7.39999V13H16.3V4Z" fill="#CFEBF8"/>
</g>
<mask id="mask1_732_3028" style="mask-type:luminance" maskUnits="userSpaceOnUse" x="7" y="4" width="10" height="9">
<path d="M11.9 13C14.3853 13 16.4 10.9853 16.4 8.5C16.4 6.01472 14.3853 4 11.9 4C9.41471 4 7.39999 6.01472 7.39999 8.5C7.39999 10.9853 9.41471 13 11.9 13Z" fill="white"/>
</mask>
<g mask="url(#mask1_732_3028)">
<path d="M11.9 12.6C14.1644 12.6 16 10.7644 16 8.49999C16 6.23563 14.1644 4.39999 11.9 4.39999C9.63562 4.39999 7.79999 6.23563 7.79999 8.49999C7.79999 10.7644 9.63562 12.6 11.9 12.6Z" fill="#CFEBF8"/>
</g>
<mask id="mask2_732_3028" style="mask-type:luminance" maskUnits="userSpaceOnUse" x="7" y="4" width="10" height="9">
<path d="M11.9 13C14.3853 13 16.4 10.9853 16.4 8.5C16.4 6.01472 14.3853 4 11.9 4C9.41471 4 7.39999 6.01472 7.39999 8.5C7.39999 10.9853 9.41471 13 11.9 13Z" fill="white"/>
</mask>
<g mask="url(#mask2_732_3028)">
<path d="M11.9 10.6C13.0046 10.6 13.9 9.65979 13.9 8.49999C13.9 7.3402 13.0046 6.39999 11.9 6.39999C10.7954 6.39999 9.89999 7.3402 9.89999 8.49999C9.89999 9.65979 10.7954 10.6 11.9 10.6Z" fill="#CFEBF8"/>
</g>
<path d="M16.3 14C18.3435 14 20 12.3435 20 10.3C20 8.25655 18.3435 6.60001 16.3 6.60001C14.2566 6.60001 12.6 8.25655 12.6 10.3C12.6 12.3435 14.2566 14 16.3 14Z" fill="white"/>
<mask id="mask3_732_3028" style="mask-type:luminance" maskUnits="userSpaceOnUse" x="12" y="6" width="8" height="8">
<path d="M16.3 14C18.3435 14 20 12.3435 20 10.3C20 8.25655 18.3435 6.60001 16.3 6.60001C14.2566 6.60001 12.6 8.25655 12.6 10.3C12.6 12.3435 14.2566 14 16.3 14Z" fill="white"/>
</mask>
<g mask="url(#mask3_732_3028)">
<path d="M20 6.60001H12.6V14H20V6.60001Z" fill="#CFEBF8"/>
</g>
<mask id="mask4_732_3028" style="mask-type:luminance" maskUnits="userSpaceOnUse" x="12" y="6" width="8" height="8">
<path d="M16.3 14C18.3435 14 20 12.3435 20 10.3C20 8.25655 18.3435 6.60001 16.3 6.60001C14.2566 6.60001 12.6 8.25655 12.6 10.3C12.6 12.3435 14.2566 14 16.3 14Z" fill="white"/>
</mask>
<g mask="url(#mask4_732_3028)">
<path d="M16.1 16.6C18.751 16.6 20.9 14.451 20.9 11.8C20.9 9.14903 18.751 7 16.1 7C13.4491 7 11.3 9.14903 11.3 11.8C11.3 14.451 13.4491 16.6 16.1 16.6Z" fill="#CFEBF8"/>
</g>
<mask id="mask5_732_3028" style="mask-type:luminance" maskUnits="userSpaceOnUse" x="12" y="6" width="8" height="8">
<path d="M16.3 14C18.3435 14 20 12.3435 20 10.3C20 8.25655 18.3435 6.60001 16.3 6.60001C14.2566 6.60001 12.6 8.25655 12.6 10.3C12.6 12.3435 14.2566 14 16.3 14Z" fill="white"/>
</mask>
<g mask="url(#mask5_732_3028)">
<path d="M16.1 14.2C17.4255 14.2 18.5 13.1255 18.5 11.8C18.5 10.4745 17.4255 9.40001 16.1 9.40001C14.7745 9.40001 13.7 10.4745 13.7 11.8C13.7 13.1255 14.7745 14.2 16.1 14.2Z" fill="#CFEBF8"/>
</g>
<path d="M7 14C8.65685 14 10 12.6569 10 11C10 9.34315 8.65685 8 7 8C5.34315 8 4 9.34315 4 11C4 12.6569 5.34315 14 7 14Z" fill="white"/>
<mask id="mask6_732_3028" style="mask-type:luminance" maskUnits="userSpaceOnUse" x="4" y="8" width="6" height="6">
<path d="M7 14C8.65685 14 10 12.6569 10 11C10 9.34315 8.65685 8 7 8C5.34315 8 4 9.34315 4 11C4 12.6569 5.34315 14 7 14Z" fill="white"/>
</mask>
<g mask="url(#mask6_732_3028)">
<path d="M9.9 8H4V14H9.9V8Z" fill="#CFEBF8"/>
</g>
<mask id="mask7_732_3028" style="mask-type:luminance" maskUnits="userSpaceOnUse" x="4" y="8" width="6" height="6">
<path d="M7 14C8.65685 14 10 12.6569 10 11C10 9.34315 8.65685 8 7 8C5.34315 8 4 9.34315 4 11C4 12.6569 5.34315 14 7 14Z" fill="white"/>
</mask>
<g mask="url(#mask7_732_3028)">
<path d="M7.59999 15.2C9.42253 15.2 10.9 13.7225 10.9 11.9C10.9 10.0775 9.42253 8.60001 7.59999 8.60001C5.77745 8.60001 4.29999 10.0775 4.29999 11.9C4.29999 13.7225 5.77745 15.2 7.59999 15.2Z" fill="#CFEBF8"/>
</g>
<mask id="mask8_732_3028" style="mask-type:luminance" maskUnits="userSpaceOnUse" x="4" y="8" width="6" height="6">
<path d="M7 14C8.65685 14 10 12.6569 10 11C10 9.34315 8.65685 8 7 8C5.34315 8 4 9.34315 4 11C4 12.6569 5.34315 14 7 14Z" fill="white"/>
</mask>
<g mask="url(#mask8_732_3028)">
<path d="M7.6 13.5C8.48366 13.5 9.2 12.7837 9.2 11.9C9.2 11.0163 8.48366 10.3 7.6 10.3C6.71634 10.3 6 11.0163 6 11.9C6 12.7837 6.71634 13.5 7.6 13.5Z" fill="#CFEBF8"/>
</g>
<path d="M15.6 16.3L13.1 15.1C13 15 13 14.9 13 14.9C13 14.8 13.1 14.8 13.2 14.8L15.7 16C15.8 16 15.8 16.1 15.8 16.2C15.7 16.3 15.6 16.3 15.6 16.3Z" fill="url(#paint0_radial_732_3028)"/>
<path d="M15.7 15L13.3 16.4C13.2 16.4 13.1 16.4 13.1 16.4C13.1 16.3 13.1 16.2 13.1 16.2L15.5 14.8C15.6 14.8 15.7 14.8 15.7 14.8C15.7 14.8 15.7 14.9 15.7 15Z" fill="url(#paint1_radial_732_3028)"/>
<path d="M14.5 14.3V16.9C14.5 17 14.4 17.1 14.3 17.1C14.2 17.1 14.1 17 14.1 16.9V14.3C14.1 14.2 14.2 14.1 14.3 14.1C14.5 14.1 14.5 14.2 14.5 14.3Z" fill="url(#paint2_radial_732_3028)"/>
<path d="M14.4 15L13.9 14.5L14.1 14.4L14.4 14.7L14.7 14.4L14.8 14.5L14.4 15Z" fill="url(#paint3_radial_732_3028)"/>
<path d="M14.7 16.7L14.4 16.4L14.1 16.7L13.9 16.6L14.4 16.1L14.8 16.6L14.7 16.7Z" fill="url(#paint4_radial_732_3028)"/>
<path d="M15.6 15.4L14.9 15.2L15.2 14.5L15.4 14.6L15.2 15L15.7 15.2L15.6 15.4Z" fill="url(#paint5_radial_732_3028)"/>
<path d="M13.6 16.6L13.4 16.5L13.6 16.1L13.1 15.9V15.8L13.8 15.9L13.6 16.6Z" fill="url(#paint6_radial_732_3028)"/>
<path d="M13.1 15.4V15.3L13.6 15.2L13.5 14.7H13.7L13.8 15.3L13.1 15.4Z" fill="url(#paint7_radial_732_3028)"/>
<path d="M15.1 16.5L14.9 15.8L15.6 15.6V15.8L15.2 16L15.3 16.4L15.1 16.5Z" fill="url(#paint8_radial_732_3028)"/>
<path d="M11.8 18.7L9.99999 17.8C9.89999 17.8 9.89999 17.7 9.99999 17.7C9.99999 17.7 10.1 17.6 10.1 17.7L11.9 18.6C12 18.6 12 18.7 11.9 18.7C12 18.7 11.9 18.7 11.8 18.7Z" fill="url(#paint9_radial_732_3028)"/>
<path d="M11.9 17.7L10.2 18.7H10.1C10.1 18.6 10.1 18.6 10.1 18.5L11.8 17.5H11.9C12 17.6 12 17.7 11.9 17.7Z" fill="url(#paint10_radial_732_3028)"/>
<path d="M11.1 17.2V19.1C11.1 19.2 11 19.2 11 19.2C10.9 19.2 10.9 19.1 10.9 19.1V17.2C10.9 17.1 11 17.1 11 17.1C11.1 17.1 11.1 17.2 11.1 17.2Z" fill="url(#paint11_radial_732_3028)"/>
<path d="M11 17.7L10.7 17.4L10.8 17.3L11 17.5L11.2 17.3L11.3 17.4L11 17.7Z" fill="url(#paint12_radial_732_3028)"/>
<path d="M11.2 19L11 18.8L10.8 19L10.7 18.9L11 18.6L11.3 18.9L11.2 19Z" fill="url(#paint13_radial_732_3028)"/>
<path d="M11.9 18L11.4 17.9L11.6 17.4L11.7 17.5L11.6 17.8L11.9 17.9V18Z" fill="url(#paint14_radial_732_3028)"/>
<path d="M10.5 18.9L10.3 18.8L10.4 18.5L10.1 18.4V18.3L10.6 18.4L10.5 18.9Z" fill="url(#paint15_radial_732_3028)"/>
<path d="M10.1 18.1V17.9H10.4V17.5H10.5L10.6 18L10.1 18.1Z" fill="url(#paint16_radial_732_3028)"/>
<path d="M11.5 18.8L11.4 18.4L11.9 18.2V18.3L11.6 18.4L11.7 18.8H11.5Z" fill="url(#paint17_radial_732_3028)"/>
<defs>
<radialGradient id="paint0_radial_732_3028" cx="0" cy="0" r="1" gradientUnits="userSpaceOnUse" gradientTransform="translate(14.3889 15.5512) scale(1.14051 1.06044)">
<stop offset="0.00515464" stop-color="white"/>
<stop offset="0.3657" stop-color="#EFF8FD"/>
<stop offset="1" stop-color="#C7E7F7"/>
</radialGradient>
<radialGradient id="paint1_radial_732_3028" cx="0" cy="0" r="1" gradientUnits="userSpaceOnUse" gradientTransform="translate(14.3889 15.5512) scale(1.1433 1.06304)">
<stop stop-color="#C7E7F7"/>
<stop offset="0.6343" stop-color="#EFF8FD"/>
<stop offset="0.9948" stop-color="white"/>
</radialGradient>
<radialGradient id="paint2_radial_732_3028" cx="0" cy="0" r="1" gradientUnits="userSpaceOnUse" gradientTransform="translate(14.3889 15.5512) scale(1.1064 1.02873)">
<stop stop-color="#C7E7F7"/>
<stop offset="0.6343" stop-color="#EFF8FD"/>
<stop offset="0.9948" stop-color="white"/>
</radialGradient>
<radialGradient id="paint3_radial_732_3028" cx="0" cy="0" r="1" gradientUnits="userSpaceOnUse" gradientTransform="translate(14.3889 14.6785) scale(0.386372 0.359247)">
<stop offset="0.00515464" stop-color="white"/>
<stop offset="0.3657" stop-color="#EFF8FD"/>
<stop offset="1" stop-color="#C7E7F7"/>
</radialGradient>
<radialGradient id="paint4_radial_732_3028" cx="0" cy="0" r="1" gradientUnits="userSpaceOnUse" gradientTransform="translate(14.3889 16.424) scale(0.386372 0.359247)">
<stop stop-color="#C7E7F7"/>
<stop offset="0.6343" stop-color="#EFF8FD"/>
<stop offset="0.9948" stop-color="white"/>
</radialGradient>
<radialGradient id="paint5_radial_732_3028" cx="0" cy="0" r="1" gradientUnits="userSpaceOnUse" gradientTransform="translate(15.3158 14.9466) scale(0.4118 0.382889)">
<stop offset="0.00515464" stop-color="white"/>
<stop offset="0.3657" stop-color="#EFF8FD"/>
<stop offset="1" stop-color="#C7E7F7"/>
</radialGradient>
<radialGradient id="paint6_radial_732_3028" cx="0" cy="0" r="1" gradientUnits="userSpaceOnUse" gradientTransform="translate(13.4441 16.1582) scale(0.404047 0.375681)">
<stop stop-color="#C7E7F7"/>
<stop offset="0.6343" stop-color="#EFF8FD"/>
<stop offset="0.9948" stop-color="white"/>
</radialGradient>
<radialGradient id="paint7_radial_732_3028" cx="0" cy="0" r="1" gradientUnits="userSpaceOnUse" gradientTransform="translate(13.4652 15.0562) scale(0.386682 0.359535)">
<stop offset="0.00515464" stop-color="white"/>
<stop offset="0.3657" stop-color="#EFF8FD"/>
<stop offset="1" stop-color="#C7E7F7"/>
</radialGradient>
<radialGradient id="paint8_radial_732_3028" cx="0" cy="0" r="1" gradientUnits="userSpaceOnUse" gradientTransform="translate(15.2736 16.0474) scale(0.41366 0.384619)">
<stop offset="0.00515464" stop-color="white"/>
<stop offset="0.3657" stop-color="#EFF8FD"/>
<stop offset="1" stop-color="#C7E7F7"/>
</radialGradient>
<radialGradient id="paint9_radial_732_3028" cx="0" cy="0" r="1" gradientUnits="userSpaceOnUse" gradientTransform="translate(10.999 18.1453) scale(0.820808 0.763183)">
<stop offset="0.00515464" stop-color="white"/>
<stop offset="0.3657" stop-color="#EFF8FD"/>
<stop offset="1" stop-color="#C7E7F7"/>
</radialGradient>
<radialGradient id="paint10_radial_732_3028" cx="0" cy="0" r="1" gradientUnits="userSpaceOnUse" gradientTransform="translate(10.999 18.1453) scale(0.822668 0.764913)">
<stop stop-color="#C7E7F7"/>
<stop offset="0.6343" stop-color="#EFF8FD"/>
<stop offset="0.9948" stop-color="white"/>
</radialGradient>
<radialGradient id="paint11_radial_732_3028" cx="0" cy="0" r="1" gradientUnits="userSpaceOnUse" gradientTransform="translate(10.999 18.1453) scale(0.796314 0.740406)">
<stop stop-color="#C7E7F7"/>
<stop offset="0.6343" stop-color="#EFF8FD"/>
<stop offset="0.9948" stop-color="white"/>
</radialGradient>
<radialGradient id="paint12_radial_732_3028" cx="0" cy="0" r="1" gradientUnits="userSpaceOnUse" gradientTransform="translate(10.999 17.5173) scale(0.278021 0.258504)">
<stop offset="0.00515464" stop-color="white"/>
<stop offset="0.3657" stop-color="#EFF8FD"/>
<stop offset="1" stop-color="#C7E7F7"/>
</radialGradient>
<radialGradient id="paint13_radial_732_3028" cx="0" cy="0" r="1" gradientUnits="userSpaceOnUse" gradientTransform="translate(10.999 18.7735) scale(0.278021 0.258502)">
<stop stop-color="#C7E7F7"/>
<stop offset="0.6343" stop-color="#EFF8FD"/>
<stop offset="0.9948" stop-color="white"/>
</radialGradient>
<radialGradient id="paint14_radial_732_3028" cx="0" cy="0" r="1" gradientUnits="userSpaceOnUse" gradientTransform="translate(11.6663 17.7102) scale(0.296426 0.275615)">
<stop offset="0.00515464" stop-color="white"/>
<stop offset="0.3657" stop-color="#EFF8FD"/>
<stop offset="1" stop-color="#C7E7F7"/>
</radialGradient>
<radialGradient id="paint15_radial_732_3028" cx="0" cy="0" r="1" gradientUnits="userSpaceOnUse" gradientTransform="translate(10.3193 18.5821) scale(0.290672 0.270266)">
<stop stop-color="#C7E7F7"/>
<stop offset="0.6343" stop-color="#EFF8FD"/>
<stop offset="0.9948" stop-color="white"/>
</radialGradient>
<radialGradient id="paint16_radial_732_3028" cx="0" cy="0" r="1" gradientUnits="userSpaceOnUse" gradientTransform="translate(10.3345 17.7889) scale(0.27817 0.258641)">
<stop offset="0.00515464" stop-color="white"/>
<stop offset="0.3657" stop-color="#EFF8FD"/>
<stop offset="1" stop-color="#C7E7F7"/>
</radialGradient>
<radialGradient id="paint17_radial_732_3028" cx="0" cy="0" r="1" gradientUnits="userSpaceOnUse" gradientTransform="translate(11.6359 18.5025) scale(0.297728 0.276825)">
<stop offset="0.00515464" stop-color="white"/>
<stop offset="0.3657" stop-color="#EFF8FD"/>
<stop offset="1" stop-color="#C7E7F7"/>
</radialGradient>
</defs>
</svg>
