<svg width="24" height="24" viewBox="0 0 24 24" fill="none" xmlns="http://www.w3.org/2000/svg">
<path d="M5.63604 16C4.00736 16.424 3 17.0098 3 17.6568C3 18.9509 7.02943 20 12 20C16.9706 20 21 18.9509 21 17.6568C21 17.0098 19.9926 16.424 18.3639 16" stroke="#D5F1FF" stroke-width="2" stroke-linecap="round" stroke-linejoin="round"/>
<path fill-rule="evenodd" clip-rule="evenodd" d="M17.2 8.87278C17.2 12.8017 12 16.2001 12 16.2001C12 16.2001 6.8 12.8017 6.8 8.87278C6.8 6.07117 9.12812 3.80001 12 3.80001C14.8719 3.80001 17.2 6.07117 17.2 8.87278ZM14 9.00006C14 10.1046 13.1046 11.0001 12 11.0001C10.8954 11.0001 10 10.1046 10 9.00006C10 7.89549 10.8954 7.00004 12 7.00004C13.1046 7.00004 14 7.89549 14 9.00006Z" fill="#D5F1FF"/>
<path fill-rule="evenodd" clip-rule="evenodd" d="M6 8.87278C6 5.61076 8.7051 3 12 3C15.2949 3 18 5.61076 18 8.87278C18 11.1666 16.5035 13.1959 15.1743 14.5667C14.4919 15.2705 13.8123 15.8428 13.3043 16.2387C13.0497 16.4372 12.8365 16.5926 12.6855 16.6995C12.6099 16.753 12.5498 16.7943 12.5077 16.8229C12.4866 16.8372 12.47 16.8484 12.4582 16.8562L12.4442 16.8655L12.44 16.8683L12.4386 16.8692C12.4386 16.8692 12.4377 16.8698 12 16.2001C11.5623 16.8698 11.5619 16.8695 11.5619 16.8695L11.56 16.8683L11.5558 16.8655L11.5418 16.8562C11.53 16.8484 11.5134 16.8372 11.4923 16.8229C11.4502 16.7943 11.3901 16.753 11.3145 16.6995C11.1635 16.5926 10.9503 16.4372 10.6957 16.2387C10.1877 15.8428 9.50813 15.2705 8.82566 14.5667C7.49648 13.1959 6 11.1666 6 8.87278ZM12 16.2001L11.5619 16.8695C11.8278 17.0433 12.1718 17.0436 12.4377 16.8698L12 16.2001ZM12 15.2205C12.095 15.1502 12.2027 15.0687 12.3207 14.9768C12.7877 14.6127 13.4081 14.0898 14.0257 13.4529C15.2965 12.1423 16.4 10.5078 16.4 8.87278C16.4 6.53157 14.4489 4.60002 12 4.60002C9.55114 4.60002 7.6 6.53157 7.6 8.87278C7.6 10.5078 8.70352 12.1423 9.97434 13.4529C10.5919 14.0898 11.2123 14.6127 11.6793 14.9768C11.7973 15.0687 11.905 15.1502 12 15.2205Z" fill="#D5F1FF"/>
</svg>
