<svg width="24" height="24" viewBox="0 0 24 24" fill="none" xmlns="http://www.w3.org/2000/svg">
<path d="M11.9 13C14.3853 13 16.4 10.9853 16.4 8.5C16.4 6.01472 14.3853 4 11.9 4C9.41471 4 7.39999 6.01472 7.39999 8.5C7.39999 10.9853 9.41471 13 11.9 13Z" fill="white"/>
<mask id="mask0_732_3679" style="mask-type:luminance" maskUnits="userSpaceOnUse" x="7" y="4" width="10" height="9">
<path d="M11.9 13C14.3853 13 16.4 10.9853 16.4 8.5C16.4 6.01472 14.3853 4 11.9 4C9.41471 4 7.39999 6.01472 7.39999 8.5C7.39999 10.9853 9.41471 13 11.9 13Z" fill="white"/>
</mask>
<g mask="url(#mask0_732_3679)">
<path d="M16.3 4H7.39999V13H16.3V4Z" fill="#CFEBF8"/>
</g>
<mask id="mask1_732_3679" style="mask-type:luminance" maskUnits="userSpaceOnUse" x="7" y="4" width="10" height="9">
<path d="M11.9 13C14.3853 13 16.4 10.9853 16.4 8.5C16.4 6.01472 14.3853 4 11.9 4C9.41471 4 7.39999 6.01472 7.39999 8.5C7.39999 10.9853 9.41471 13 11.9 13Z" fill="white"/>
</mask>
<g mask="url(#mask1_732_3679)">
<path d="M11.9 12.6C14.1644 12.6 16 10.7644 16 8.49999C16 6.23563 14.1644 4.39999 11.9 4.39999C9.63562 4.39999 7.79999 6.23563 7.79999 8.49999C7.79999 10.7644 9.63562 12.6 11.9 12.6Z" fill="#CFEBF8"/>
</g>
<mask id="mask2_732_3679" style="mask-type:luminance" maskUnits="userSpaceOnUse" x="7" y="4" width="10" height="9">
<path d="M11.9 13C14.3853 13 16.4 10.9853 16.4 8.5C16.4 6.01472 14.3853 4 11.9 4C9.41471 4 7.39999 6.01472 7.39999 8.5C7.39999 10.9853 9.41471 13 11.9 13Z" fill="white"/>
</mask>
<g mask="url(#mask2_732_3679)">
<path d="M11.9 10.6C13.0046 10.6 13.9 9.65979 13.9 8.49999C13.9 7.3402 13.0046 6.39999 11.9 6.39999C10.7954 6.39999 9.89999 7.3402 9.89999 8.49999C9.89999 9.65979 10.7954 10.6 11.9 10.6Z" fill="#CFEBF8"/>
</g>
<path d="M16.3 14C18.3435 14 20 12.3435 20 10.3C20 8.25655 18.3435 6.60001 16.3 6.60001C14.2566 6.60001 12.6 8.25655 12.6 10.3C12.6 12.3435 14.2566 14 16.3 14Z" fill="white"/>
<mask id="mask3_732_3679" style="mask-type:luminance" maskUnits="userSpaceOnUse" x="12" y="6" width="8" height="8">
<path d="M16.3 14C18.3435 14 20 12.3435 20 10.3C20 8.25655 18.3435 6.60001 16.3 6.60001C14.2566 6.60001 12.6 8.25655 12.6 10.3C12.6 12.3435 14.2566 14 16.3 14Z" fill="white"/>
</mask>
<g mask="url(#mask3_732_3679)">
<path d="M20 6.60001H12.6V14H20V6.60001Z" fill="#CFEBF8"/>
</g>
<mask id="mask4_732_3679" style="mask-type:luminance" maskUnits="userSpaceOnUse" x="12" y="6" width="8" height="8">
<path d="M16.3 14C18.3435 14 20 12.3435 20 10.3C20 8.25655 18.3435 6.60001 16.3 6.60001C14.2566 6.60001 12.6 8.25655 12.6 10.3C12.6 12.3435 14.2566 14 16.3 14Z" fill="white"/>
</mask>
<g mask="url(#mask4_732_3679)">
<path d="M16.1 16.6C18.751 16.6 20.9 14.451 20.9 11.8C20.9 9.14903 18.751 7 16.1 7C13.4491 7 11.3 9.14903 11.3 11.8C11.3 14.451 13.4491 16.6 16.1 16.6Z" fill="#CFEBF8"/>
</g>
<mask id="mask5_732_3679" style="mask-type:luminance" maskUnits="userSpaceOnUse" x="12" y="6" width="8" height="8">
<path d="M16.3 14C18.3435 14 20 12.3435 20 10.3C20 8.25655 18.3435 6.60001 16.3 6.60001C14.2566 6.60001 12.6 8.25655 12.6 10.3C12.6 12.3435 14.2566 14 16.3 14Z" fill="white"/>
</mask>
<g mask="url(#mask5_732_3679)">
<path d="M16.1 14.2C17.4255 14.2 18.5 13.1255 18.5 11.8C18.5 10.4745 17.4255 9.40001 16.1 9.40001C14.7745 9.40001 13.7 10.4745 13.7 11.8C13.7 13.1255 14.7745 14.2 16.1 14.2Z" fill="#CFEBF8"/>
</g>
<path d="M7 14C8.65685 14 10 12.6569 10 11C10 9.34315 8.65685 8 7 8C5.34315 8 4 9.34315 4 11C4 12.6569 5.34315 14 7 14Z" fill="white"/>
<mask id="mask6_732_3679" style="mask-type:luminance" maskUnits="userSpaceOnUse" x="4" y="8" width="6" height="6">
<path d="M7 14C8.65685 14 10 12.6569 10 11C10 9.34315 8.65685 8 7 8C5.34315 8 4 9.34315 4 11C4 12.6569 5.34315 14 7 14Z" fill="white"/>
</mask>
<g mask="url(#mask6_732_3679)">
<path d="M9.9 8H4V14H9.9V8Z" fill="#CFEBF8"/>
</g>
<mask id="mask7_732_3679" style="mask-type:luminance" maskUnits="userSpaceOnUse" x="4" y="8" width="6" height="6">
<path d="M7 14C8.65685 14 10 12.6569 10 11C10 9.34315 8.65685 8 7 8C5.34315 8 4 9.34315 4 11C4 12.6569 5.34315 14 7 14Z" fill="white"/>
</mask>
<g mask="url(#mask7_732_3679)">
<path d="M7.59999 15.2C9.42253 15.2 10.9 13.7225 10.9 11.9C10.9 10.0775 9.42253 8.60001 7.59999 8.60001C5.77745 8.60001 4.29999 10.0775 4.29999 11.9C4.29999 13.7225 5.77745 15.2 7.59999 15.2Z" fill="#CFEBF8"/>
</g>
<mask id="mask8_732_3679" style="mask-type:luminance" maskUnits="userSpaceOnUse" x="4" y="8" width="6" height="6">
<path d="M7 14C8.65685 14 10 12.6569 10 11C10 9.34315 8.65685 8 7 8C5.34315 8 4 9.34315 4 11C4 12.6569 5.34315 14 7 14Z" fill="white"/>
</mask>
<g mask="url(#mask8_732_3679)">
<path d="M7.6 13.5C8.48366 13.5 9.2 12.7837 9.2 11.9C9.2 11.0163 8.48366 10.3 7.6 10.3C6.71634 10.3 6 11.0163 6 11.9C6 12.7837 6.71634 13.5 7.6 13.5Z" fill="#CFEBF8"/>
</g>
<path d="M15.6 16.3L13.1 15.1C13 15 13 14.9 13 14.9C13 14.8 13.1 14.8 13.2 14.8L15.7 16C15.8 16 15.8 16.1 15.8 16.2C15.7 16.3 15.6 16.3 15.6 16.3Z" fill="url(#paint0_radial_732_3679)"/>
<path d="M15.7 15L13.3 16.4C13.2 16.4 13.1 16.4 13.1 16.4C13.1 16.3 13.1 16.2 13.1 16.2L15.5 14.8C15.6 14.8 15.7 14.8 15.7 14.8C15.7 14.8 15.7 14.9 15.7 15Z" fill="url(#paint1_radial_732_3679)"/>
<path d="M14.5 14.3V16.9C14.5 17 14.4 17.1 14.3 17.1C14.2 17.1 14.1 17 14.1 16.9V14.3C14.1 14.2 14.2 14.1 14.3 14.1C14.5 14.1 14.5 14.2 14.5 14.3Z" fill="url(#paint2_radial_732_3679)"/>
<path d="M14.4 15L13.9 14.5L14.1 14.4L14.4 14.7L14.7 14.4L14.8 14.5L14.4 15Z" fill="url(#paint3_radial_732_3679)"/>
<path d="M14.7 16.7L14.4 16.4L14.1 16.7L13.9 16.6L14.4 16.1L14.8 16.6L14.7 16.7Z" fill="url(#paint4_radial_732_3679)"/>
<path d="M15.6 15.4L14.9 15.2L15.2 14.5L15.4 14.6L15.2 15L15.7 15.2L15.6 15.4Z" fill="url(#paint5_radial_732_3679)"/>
<path d="M13.6 16.6L13.4 16.5L13.6 16.1L13.1 15.9V15.8L13.8 15.9L13.6 16.6Z" fill="url(#paint6_radial_732_3679)"/>
<path d="M13.1 15.4V15.3L13.6 15.2L13.5 14.7H13.7L13.8 15.3L13.1 15.4Z" fill="url(#paint7_radial_732_3679)"/>
<path d="M15.1 16.5L14.9 15.8L15.6 15.6V15.8L15.2 16L15.3 16.4L15.1 16.5Z" fill="url(#paint8_radial_732_3679)"/>
<path d="M12.8 18.7L11 17.8C10.9 17.8 10.9 17.7 11 17.7C11 17.7 11.1 17.6 11.1 17.7L12.9 18.6C13 18.6 13 18.7 12.9 18.7C13 18.7 12.9 18.7 12.8 18.7Z" fill="url(#paint9_radial_732_3679)"/>
<path d="M12.9 17.7L11.2 18.7H11.1C11.1 18.6 11.1 18.6 11.1 18.5L12.8 17.5H12.9C13 17.6 13 17.7 12.9 17.7Z" fill="url(#paint10_radial_732_3679)"/>
<path d="M12.1 17.2V19.1C12.1 19.2 12 19.2 12 19.2C11.9 19.2 11.9 19.1 11.9 19.1V17.2C11.9 17.1 12 17.1 12 17.1C12.1 17.1 12.1 17.2 12.1 17.2Z" fill="url(#paint11_radial_732_3679)"/>
<path d="M12 17.7L11.7 17.4L11.8 17.3L12 17.5L12.2 17.3L12.3 17.4L12 17.7Z" fill="url(#paint12_radial_732_3679)"/>
<path d="M12.2 19L12 18.8L11.8 19L11.7 18.9L12 18.6L12.3 18.9L12.2 19Z" fill="url(#paint13_radial_732_3679)"/>
<path d="M12.9 18L12.4 17.9L12.6 17.4L12.7 17.5L12.6 17.8L12.9 17.9V18Z" fill="url(#paint14_radial_732_3679)"/>
<path d="M11.5 18.9L11.3 18.8L11.4 18.5L11.1 18.4V18.3L11.6 18.4L11.5 18.9Z" fill="url(#paint15_radial_732_3679)"/>
<path d="M11.1 18.1V17.9H11.4V17.5H11.5L11.6 18L11.1 18.1Z" fill="url(#paint16_radial_732_3679)"/>
<path d="M12.5 18.8L12.4 18.4L12.9 18.2V18.3L12.6 18.4L12.7 18.8H12.5Z" fill="url(#paint17_radial_732_3679)"/>
<path d="M9.79999 16.7L7.99999 15.8C7.89999 15.8 7.89999 15.7 7.99999 15.7C7.99999 15.7 8.09999 15.6 8.09999 15.7L9.89999 16.6C9.99999 16.6 9.99999 16.7 9.89999 16.7C9.99999 16.7 9.89999 16.7 9.79999 16.7Z" fill="url(#paint18_radial_732_3679)"/>
<path d="M9.89997 15.7L8.19998 16.7H8.09998C8.09998 16.6 8.09998 16.6 8.09998 16.5L9.79998 15.5H9.89997C9.99997 15.6 9.99997 15.7 9.89997 15.7Z" fill="url(#paint19_radial_732_3679)"/>
<path d="M9.09999 15.2V17.1C9.09999 17.2 8.99999 17.2 8.99999 17.2C8.89999 17.2 8.89999 17.1 8.89999 17.1V15.2C8.89999 15.1 8.99999 15.1 8.99999 15.1C9.09999 15.1 9.09999 15.2 9.09999 15.2Z" fill="url(#paint20_radial_732_3679)"/>
<path d="M8.99998 15.7L8.69998 15.4L8.79998 15.3L8.99998 15.5L9.19998 15.3L9.29998 15.4L8.99998 15.7Z" fill="url(#paint21_radial_732_3679)"/>
<path d="M9.19998 17L8.99998 16.8L8.79998 17L8.69998 16.9L8.99998 16.6L9.29998 16.9L9.19998 17Z" fill="url(#paint22_radial_732_3679)"/>
<path d="M9.89999 16L9.39999 15.9L9.59999 15.4L9.69999 15.5L9.59999 15.8L9.89999 15.9V16Z" fill="url(#paint23_radial_732_3679)"/>
<path d="M8.49998 16.9L8.29998 16.8L8.39997 16.5L8.09998 16.4V16.3L8.59998 16.4L8.49998 16.9Z" fill="url(#paint24_radial_732_3679)"/>
<path d="M8.09998 16.1V15.9H8.39997V15.5H8.49998L8.59998 16L8.09998 16.1Z" fill="url(#paint25_radial_732_3679)"/>
<path d="M9.49999 16.8L9.39999 16.4L9.89999 16.2V16.3L9.59999 16.4L9.69999 16.8H9.49999Z" fill="url(#paint26_radial_732_3679)"/>
<defs>
<radialGradient id="paint0_radial_732_3679" cx="0" cy="0" r="1" gradientUnits="userSpaceOnUse" gradientTransform="translate(14.3892 15.5512) scale(1.14051 1.06044)">
<stop offset="0.00515464" stop-color="white"/>
<stop offset="0.3657" stop-color="#EFF8FD"/>
<stop offset="1" stop-color="#C7E7F7"/>
</radialGradient>
<radialGradient id="paint1_radial_732_3679" cx="0" cy="0" r="1" gradientUnits="userSpaceOnUse" gradientTransform="translate(14.3892 15.5512) scale(1.1433 1.06304)">
<stop stop-color="#C7E7F7"/>
<stop offset="0.6343" stop-color="#EFF8FD"/>
<stop offset="0.9948" stop-color="white"/>
</radialGradient>
<radialGradient id="paint2_radial_732_3679" cx="0" cy="0" r="1" gradientUnits="userSpaceOnUse" gradientTransform="translate(14.3892 15.5512) scale(1.1064 1.02873)">
<stop stop-color="#C7E7F7"/>
<stop offset="0.6343" stop-color="#EFF8FD"/>
<stop offset="0.9948" stop-color="white"/>
</radialGradient>
<radialGradient id="paint3_radial_732_3679" cx="0" cy="0" r="1" gradientUnits="userSpaceOnUse" gradientTransform="translate(14.3892 14.6785) scale(0.386372 0.359247)">
<stop offset="0.00515464" stop-color="white"/>
<stop offset="0.3657" stop-color="#EFF8FD"/>
<stop offset="1" stop-color="#C7E7F7"/>
</radialGradient>
<radialGradient id="paint4_radial_732_3679" cx="0" cy="0" r="1" gradientUnits="userSpaceOnUse" gradientTransform="translate(14.3892 16.424) scale(0.386372 0.359247)">
<stop stop-color="#C7E7F7"/>
<stop offset="0.6343" stop-color="#EFF8FD"/>
<stop offset="0.9948" stop-color="white"/>
</radialGradient>
<radialGradient id="paint5_radial_732_3679" cx="0" cy="0" r="1" gradientUnits="userSpaceOnUse" gradientTransform="translate(15.3161 14.9466) scale(0.4118 0.382889)">
<stop offset="0.00515464" stop-color="white"/>
<stop offset="0.3657" stop-color="#EFF8FD"/>
<stop offset="1" stop-color="#C7E7F7"/>
</radialGradient>
<radialGradient id="paint6_radial_732_3679" cx="0" cy="0" r="1" gradientUnits="userSpaceOnUse" gradientTransform="translate(13.4447 16.1582) scale(0.404047 0.375681)">
<stop stop-color="#C7E7F7"/>
<stop offset="0.6343" stop-color="#EFF8FD"/>
<stop offset="0.9948" stop-color="white"/>
</radialGradient>
<radialGradient id="paint7_radial_732_3679" cx="0" cy="0" r="1" gradientUnits="userSpaceOnUse" gradientTransform="translate(13.4655 15.0562) scale(0.386682 0.359535)">
<stop offset="0.00515464" stop-color="white"/>
<stop offset="0.3657" stop-color="#EFF8FD"/>
<stop offset="1" stop-color="#C7E7F7"/>
</radialGradient>
<radialGradient id="paint8_radial_732_3679" cx="0" cy="0" r="1" gradientUnits="userSpaceOnUse" gradientTransform="translate(15.2739 16.0474) scale(0.41366 0.384619)">
<stop offset="0.00515464" stop-color="white"/>
<stop offset="0.3657" stop-color="#EFF8FD"/>
<stop offset="1" stop-color="#C7E7F7"/>
</radialGradient>
<radialGradient id="paint9_radial_732_3679" cx="0" cy="0" r="1" gradientUnits="userSpaceOnUse" gradientTransform="translate(11.9994 18.1453) scale(0.820808 0.763183)">
<stop offset="0.00515464" stop-color="white"/>
<stop offset="0.3657" stop-color="#EFF8FD"/>
<stop offset="1" stop-color="#C7E7F7"/>
</radialGradient>
<radialGradient id="paint10_radial_732_3679" cx="0" cy="0" r="1" gradientUnits="userSpaceOnUse" gradientTransform="translate(11.9993 18.1453) scale(0.822668 0.764913)">
<stop stop-color="#C7E7F7"/>
<stop offset="0.6343" stop-color="#EFF8FD"/>
<stop offset="0.9948" stop-color="white"/>
</radialGradient>
<radialGradient id="paint11_radial_732_3679" cx="0" cy="0" r="1" gradientUnits="userSpaceOnUse" gradientTransform="translate(11.9994 18.1453) scale(0.796314 0.740406)">
<stop stop-color="#C7E7F7"/>
<stop offset="0.6343" stop-color="#EFF8FD"/>
<stop offset="0.9948" stop-color="white"/>
</radialGradient>
<radialGradient id="paint12_radial_732_3679" cx="0" cy="0" r="1" gradientUnits="userSpaceOnUse" gradientTransform="translate(11.9994 17.5173) scale(0.278021 0.258504)">
<stop offset="0.00515464" stop-color="white"/>
<stop offset="0.3657" stop-color="#EFF8FD"/>
<stop offset="1" stop-color="#C7E7F7"/>
</radialGradient>
<radialGradient id="paint13_radial_732_3679" cx="0" cy="0" r="1" gradientUnits="userSpaceOnUse" gradientTransform="translate(11.9994 18.7735) scale(0.278021 0.258502)">
<stop stop-color="#C7E7F7"/>
<stop offset="0.6343" stop-color="#EFF8FD"/>
<stop offset="0.9948" stop-color="white"/>
</radialGradient>
<radialGradient id="paint14_radial_732_3679" cx="0" cy="0" r="1" gradientUnits="userSpaceOnUse" gradientTransform="translate(12.6667 17.7102) scale(0.296426 0.275615)">
<stop offset="0.00515464" stop-color="white"/>
<stop offset="0.3657" stop-color="#EFF8FD"/>
<stop offset="1" stop-color="#C7E7F7"/>
</radialGradient>
<radialGradient id="paint15_radial_732_3679" cx="0" cy="0" r="1" gradientUnits="userSpaceOnUse" gradientTransform="translate(11.3196 18.5821) scale(0.290672 0.270266)">
<stop stop-color="#C7E7F7"/>
<stop offset="0.6343" stop-color="#EFF8FD"/>
<stop offset="0.9948" stop-color="white"/>
</radialGradient>
<radialGradient id="paint16_radial_732_3679" cx="0" cy="0" r="1" gradientUnits="userSpaceOnUse" gradientTransform="translate(11.3348 17.7889) scale(0.27817 0.258641)">
<stop offset="0.00515464" stop-color="white"/>
<stop offset="0.3657" stop-color="#EFF8FD"/>
<stop offset="1" stop-color="#C7E7F7"/>
</radialGradient>
<radialGradient id="paint17_radial_732_3679" cx="0" cy="0" r="1" gradientUnits="userSpaceOnUse" gradientTransform="translate(12.6363 18.5025) scale(0.297728 0.276825)">
<stop offset="0.00515464" stop-color="white"/>
<stop offset="0.3657" stop-color="#EFF8FD"/>
<stop offset="1" stop-color="#C7E7F7"/>
</radialGradient>
<radialGradient id="paint18_radial_732_3679" cx="0" cy="0" r="1" gradientUnits="userSpaceOnUse" gradientTransform="translate(8.99955 16.1452) scale(0.820808 0.763184)">
<stop offset="0.00515464" stop-color="white"/>
<stop offset="0.3657" stop-color="#EFF8FD"/>
<stop offset="1" stop-color="#C7E7F7"/>
</radialGradient>
<radialGradient id="paint19_radial_732_3679" cx="0" cy="0" r="1" gradientUnits="userSpaceOnUse" gradientTransform="translate(8.99954 16.1452) scale(0.822668 0.764913)">
<stop stop-color="#C7E7F7"/>
<stop offset="0.6343" stop-color="#EFF8FD"/>
<stop offset="0.9948" stop-color="white"/>
</radialGradient>
<radialGradient id="paint20_radial_732_3679" cx="0" cy="0" r="1" gradientUnits="userSpaceOnUse" gradientTransform="translate(8.99956 16.1452) scale(0.796314 0.740406)">
<stop stop-color="#C7E7F7"/>
<stop offset="0.6343" stop-color="#EFF8FD"/>
<stop offset="0.9948" stop-color="white"/>
</radialGradient>
<radialGradient id="paint21_radial_732_3679" cx="0" cy="0" r="1" gradientUnits="userSpaceOnUse" gradientTransform="translate(8.99954 15.5172) scale(0.278021 0.258502)">
<stop offset="0.00515464" stop-color="white"/>
<stop offset="0.3657" stop-color="#EFF8FD"/>
<stop offset="1" stop-color="#C7E7F7"/>
</radialGradient>
<radialGradient id="paint22_radial_732_3679" cx="0" cy="0" r="1" gradientUnits="userSpaceOnUse" gradientTransform="translate(8.99954 16.7734) scale(0.278021 0.258502)">
<stop stop-color="#C7E7F7"/>
<stop offset="0.6343" stop-color="#EFF8FD"/>
<stop offset="0.9948" stop-color="white"/>
</radialGradient>
<radialGradient id="paint23_radial_732_3679" cx="0" cy="0" r="1" gradientUnits="userSpaceOnUse" gradientTransform="translate(9.66656 15.7101) scale(0.296426 0.275615)">
<stop offset="0.00515464" stop-color="white"/>
<stop offset="0.3657" stop-color="#EFF8FD"/>
<stop offset="1" stop-color="#C7E7F7"/>
</radialGradient>
<radialGradient id="paint24_radial_732_3679" cx="0" cy="0" r="1" gradientUnits="userSpaceOnUse" gradientTransform="translate(8.31982 16.582) scale(0.290672 0.270266)">
<stop stop-color="#C7E7F7"/>
<stop offset="0.6343" stop-color="#EFF8FD"/>
<stop offset="0.9948" stop-color="white"/>
</radialGradient>
<radialGradient id="paint25_radial_732_3679" cx="0" cy="0" r="1" gradientUnits="userSpaceOnUse" gradientTransform="translate(8.33501 15.7891) scale(0.27817 0.258641)">
<stop offset="0.00515464" stop-color="white"/>
<stop offset="0.3657" stop-color="#EFF8FD"/>
<stop offset="1" stop-color="#C7E7F7"/>
</radialGradient>
<radialGradient id="paint26_radial_732_3679" cx="0" cy="0" r="1" gradientUnits="userSpaceOnUse" gradientTransform="translate(9.63617 16.5024) scale(0.297728 0.276825)">
<stop offset="0.00515464" stop-color="white"/>
<stop offset="0.3657" stop-color="#EFF8FD"/>
<stop offset="1" stop-color="#C7E7F7"/>
</radialGradient>
</defs>
</svg>
