<svg width="24" height="24" viewBox="0 0 24 24" fill="none" xmlns="http://www.w3.org/2000/svg">
<path d="M11.9 13C14.3853 13 16.4 10.9853 16.4 8.5C16.4 6.01472 14.3853 4 11.9 4C9.41471 4 7.39999 6.01472 7.39999 8.5C7.39999 10.9853 9.41471 13 11.9 13Z" fill="white"/>
<mask id="mask0_732_2911" style="mask-type:luminance" maskUnits="userSpaceOnUse" x="7" y="4" width="10" height="9">
<path d="M11.9 13C14.3853 13 16.4 10.9853 16.4 8.5C16.4 6.01472 14.3853 4 11.9 4C9.41471 4 7.39999 6.01472 7.39999 8.5C7.39999 10.9853 9.41471 13 11.9 13Z" fill="white"/>
</mask>
<g mask="url(#mask0_732_2911)">
<path d="M16.3 4H7.39999V13H16.3V4Z" fill="#CFEBF8"/>
</g>
<mask id="mask1_732_2911" style="mask-type:luminance" maskUnits="userSpaceOnUse" x="7" y="4" width="10" height="9">
<path d="M11.9 13C14.3853 13 16.4 10.9853 16.4 8.5C16.4 6.01472 14.3853 4 11.9 4C9.41471 4 7.39999 6.01472 7.39999 8.5C7.39999 10.9853 9.41471 13 11.9 13Z" fill="white"/>
</mask>
<g mask="url(#mask1_732_2911)">
<path d="M11.9 12.6C14.1644 12.6 16 10.7644 16 8.49999C16 6.23563 14.1644 4.39999 11.9 4.39999C9.63562 4.39999 7.79999 6.23563 7.79999 8.49999C7.79999 10.7644 9.63562 12.6 11.9 12.6Z" fill="#CFEBF8"/>
</g>
<mask id="mask2_732_2911" style="mask-type:luminance" maskUnits="userSpaceOnUse" x="7" y="4" width="10" height="9">
<path d="M11.9 13C14.3853 13 16.4 10.9853 16.4 8.5C16.4 6.01472 14.3853 4 11.9 4C9.41471 4 7.39999 6.01472 7.39999 8.5C7.39999 10.9853 9.41471 13 11.9 13Z" fill="white"/>
</mask>
<g mask="url(#mask2_732_2911)">
<path d="M11.9 10.6C13.0046 10.6 13.9 9.65979 13.9 8.49999C13.9 7.3402 13.0046 6.39999 11.9 6.39999C10.7954 6.39999 9.89999 7.3402 9.89999 8.49999C9.89999 9.65979 10.7954 10.6 11.9 10.6Z" fill="#CFEBF8"/>
</g>
<path d="M16.3 14C18.3435 14 20 12.3435 20 10.3C20 8.25655 18.3435 6.60001 16.3 6.60001C14.2566 6.60001 12.6 8.25655 12.6 10.3C12.6 12.3435 14.2566 14 16.3 14Z" fill="white"/>
<mask id="mask3_732_2911" style="mask-type:luminance" maskUnits="userSpaceOnUse" x="12" y="6" width="8" height="8">
<path d="M16.3 14C18.3435 14 20 12.3435 20 10.3C20 8.25655 18.3435 6.60001 16.3 6.60001C14.2566 6.60001 12.6 8.25655 12.6 10.3C12.6 12.3435 14.2566 14 16.3 14Z" fill="white"/>
</mask>
<g mask="url(#mask3_732_2911)">
<path d="M20 6.60001H12.6V14H20V6.60001Z" fill="#CFEBF8"/>
</g>
<mask id="mask4_732_2911" style="mask-type:luminance" maskUnits="userSpaceOnUse" x="12" y="6" width="8" height="8">
<path d="M16.3 14C18.3435 14 20 12.3435 20 10.3C20 8.25655 18.3435 6.60001 16.3 6.60001C14.2566 6.60001 12.6 8.25655 12.6 10.3C12.6 12.3435 14.2566 14 16.3 14Z" fill="white"/>
</mask>
<g mask="url(#mask4_732_2911)">
<path d="M16.1 16.6C18.751 16.6 20.9 14.451 20.9 11.8C20.9 9.14903 18.751 7 16.1 7C13.4491 7 11.3 9.14903 11.3 11.8C11.3 14.451 13.4491 16.6 16.1 16.6Z" fill="#CFEBF8"/>
</g>
<mask id="mask5_732_2911" style="mask-type:luminance" maskUnits="userSpaceOnUse" x="12" y="6" width="8" height="8">
<path d="M16.3 14C18.3435 14 20 12.3435 20 10.3C20 8.25655 18.3435 6.60001 16.3 6.60001C14.2566 6.60001 12.6 8.25655 12.6 10.3C12.6 12.3435 14.2566 14 16.3 14Z" fill="white"/>
</mask>
<g mask="url(#mask5_732_2911)">
<path d="M16.1 14.2C17.4255 14.2 18.5 13.1255 18.5 11.8C18.5 10.4745 17.4255 9.39999 16.1 9.39999C14.7745 9.39999 13.7 10.4745 13.7 11.8C13.7 13.1255 14.7745 14.2 16.1 14.2Z" fill="#CFEBF8"/>
</g>
<path d="M7 14C8.65685 14 10 12.6569 10 11C10 9.34315 8.65685 8 7 8C5.34315 8 4 9.34315 4 11C4 12.6569 5.34315 14 7 14Z" fill="white"/>
<mask id="mask6_732_2911" style="mask-type:luminance" maskUnits="userSpaceOnUse" x="4" y="8" width="6" height="6">
<path d="M7 14C8.65685 14 10 12.6569 10 11C10 9.34315 8.65685 8 7 8C5.34315 8 4 9.34315 4 11C4 12.6569 5.34315 14 7 14Z" fill="white"/>
</mask>
<g mask="url(#mask6_732_2911)">
<path d="M9.9 8H4V14H9.9V8Z" fill="#CFEBF8"/>
</g>
<mask id="mask7_732_2911" style="mask-type:luminance" maskUnits="userSpaceOnUse" x="4" y="8" width="6" height="6">
<path d="M7 14C8.65685 14 10 12.6569 10 11C10 9.34315 8.65685 8 7 8C5.34315 8 4 9.34315 4 11C4 12.6569 5.34315 14 7 14Z" fill="white"/>
</mask>
<g mask="url(#mask7_732_2911)">
<path d="M7.59999 15.2C9.42253 15.2 10.9 13.7225 10.9 11.9C10.9 10.0775 9.42253 8.60001 7.59999 8.60001C5.77745 8.60001 4.29999 10.0775 4.29999 11.9C4.29999 13.7225 5.77745 15.2 7.59999 15.2Z" fill="#CFEBF8"/>
</g>
<mask id="mask8_732_2911" style="mask-type:luminance" maskUnits="userSpaceOnUse" x="4" y="8" width="6" height="6">
<path d="M7 14C8.65685 14 10 12.6569 10 11C10 9.34315 8.65685 8 7 8C5.34315 8 4 9.34315 4 11C4 12.6569 5.34315 14 7 14Z" fill="white"/>
</mask>
<g mask="url(#mask8_732_2911)">
<path d="M7.6 13.5C8.48366 13.5 9.2 12.7836 9.2 11.9C9.2 11.0163 8.48366 10.3 7.6 10.3C6.71634 10.3 6 11.0163 6 11.9C6 12.7836 6.71634 13.5 7.6 13.5Z" fill="#CFEBF8"/>
</g>
<path d="M13.1 16.6C12.9 17 12.5 17.1 12.1 17C11.7 16.8 11.6 16.4 11.7 16C12.1 15.2 13.1 14.7 13.1 14.7C13.1 14.7 13.5 15.8 13.1 16.6Z" fill="url(#paint0_linear_732_2911)"/>
<path d="M12.1 19.6C11.9 20 11.5 20.1 11.1 20C10.7 19.8 10.6 19.4 10.7 19C11.1 18.2 12.1 17.7 12.1 17.7C12.1 17.7 12.5 18.8 12.1 19.6Z" fill="url(#paint1_linear_732_2911)"/>
<path d="M16.1 16.6C15.9 17 15.5 17.1 15.1 17C14.7 16.8 14.6 16.4 14.7 16C15.1 15.2 16.1 14.7 16.1 14.7C16.1 14.7 16.5 15.8 16.1 16.6Z" fill="url(#paint2_linear_732_2911)"/>
<path d="M15.1 19.6C14.9 20 14.5 20.1 14.1 20C13.7 19.8 13.6 19.4 13.7 19C14.1 18.2 15.1 17.7 15.1 17.7C15.1 17.7 15.5 18.8 15.1 19.6Z" fill="url(#paint3_linear_732_2911)"/>
<defs>
<linearGradient id="paint0_linear_732_2911" x1="11.9818" y1="15.5185" x2="13.3242" y2="16.1401" gradientUnits="userSpaceOnUse">
<stop stop-color="#178BC9"/>
<stop offset="0.305" stop-color="#399AD2"/>
<stop offset="0.9266" stop-color="#6EC3E7"/>
<stop offset="1" stop-color="#75C8EA"/>
</linearGradient>
<linearGradient id="paint1_linear_732_2911" x1="10.9819" y1="18.5185" x2="12.3242" y2="19.1401" gradientUnits="userSpaceOnUse">
<stop stop-color="#178BC9"/>
<stop offset="0.305" stop-color="#399AD2"/>
<stop offset="0.9266" stop-color="#6EC3E7"/>
<stop offset="1" stop-color="#75C8EA"/>
</linearGradient>
<linearGradient id="paint2_linear_732_2911" x1="14.9818" y1="15.5186" x2="16.3242" y2="16.1402" gradientUnits="userSpaceOnUse">
<stop stop-color="#178BC9"/>
<stop offset="0.305" stop-color="#399AD2"/>
<stop offset="0.9266" stop-color="#6EC3E7"/>
<stop offset="1" stop-color="#75C8EA"/>
</linearGradient>
<linearGradient id="paint3_linear_732_2911" x1="13.9818" y1="18.5185" x2="15.3242" y2="19.1401" gradientUnits="userSpaceOnUse">
<stop stop-color="#178BC9"/>
<stop offset="0.305" stop-color="#399AD2"/>
<stop offset="0.9266" stop-color="#6EC3E7"/>
<stop offset="1" stop-color="#75C8EA"/>
</linearGradient>
</defs>
</svg>
