<svg width="24" height="24" viewBox="0 0 24 24" fill="none" xmlns="http://www.w3.org/2000/svg">
<path d="M15.5 11C17.433 11 19 9.433 19 7.5C19 5.567 17.433 4 15.5 4C13.567 4 12 5.567 12 7.5C12 9.433 13.567 11 15.5 11Z" fill="url(#paint0_linear_732_3378)"/>
<path d="M11.9 14C14.3853 14 16.4 11.9853 16.4 9.5C16.4 7.01472 14.3853 5 11.9 5C9.41471 5 7.39999 7.01472 7.39999 9.5C7.39999 11.9853 9.41471 14 11.9 14Z" fill="white"/>
<mask id="mask0_732_3378" style="mask-type:luminance" maskUnits="userSpaceOnUse" x="7" y="5" width="10" height="9">
<path d="M11.9 14C14.3853 14 16.4 11.9853 16.4 9.5C16.4 7.01472 14.3853 5 11.9 5C9.41471 5 7.39999 7.01472 7.39999 9.5C7.39999 11.9853 9.41471 14 11.9 14Z" fill="white"/>
</mask>
<g mask="url(#mask0_732_3378)">
<path d="M16.3 5H7.39999V14H16.3V5Z" fill="#CFEBF8"/>
</g>
<mask id="mask1_732_3378" style="mask-type:luminance" maskUnits="userSpaceOnUse" x="7" y="5" width="10" height="9">
<path d="M11.9 14C14.3853 14 16.4 11.9853 16.4 9.5C16.4 7.01472 14.3853 5 11.9 5C9.41471 5 7.39999 7.01472 7.39999 9.5C7.39999 11.9853 9.41471 14 11.9 14Z" fill="white"/>
</mask>
<g mask="url(#mask1_732_3378)">
<path d="M11.9 13.6C14.1644 13.6 16 11.7644 16 9.5C16 7.23563 14.1644 5.4 11.9 5.4C9.63562 5.4 7.79999 7.23563 7.79999 9.5C7.79999 11.7644 9.63562 13.6 11.9 13.6Z" fill="#CFEBF8"/>
</g>
<mask id="mask2_732_3378" style="mask-type:luminance" maskUnits="userSpaceOnUse" x="7" y="5" width="10" height="9">
<path d="M11.9 14C14.3853 14 16.4 11.9853 16.4 9.5C16.4 7.01472 14.3853 5 11.9 5C9.41471 5 7.39999 7.01472 7.39999 9.5C7.39999 11.9853 9.41471 14 11.9 14Z" fill="white"/>
</mask>
<g mask="url(#mask2_732_3378)">
<path d="M11.9 11.6C13.0046 11.6 13.9 10.6598 13.9 9.5C13.9 8.3402 13.0046 7.4 11.9 7.4C10.7954 7.4 9.89999 8.3402 9.89999 9.5C9.89999 10.6598 10.7954 11.6 11.9 11.6Z" fill="#CFEBF8"/>
</g>
<path d="M16.3 15C18.3435 15 20 13.3435 20 11.3C20 9.25655 18.3435 7.6 16.3 7.6C14.2566 7.6 12.6 9.25655 12.6 11.3C12.6 13.3435 14.2566 15 16.3 15Z" fill="white"/>
<mask id="mask3_732_3378" style="mask-type:luminance" maskUnits="userSpaceOnUse" x="12" y="7" width="8" height="8">
<path d="M16.3 15C18.3435 15 20 13.3435 20 11.3C20 9.25655 18.3435 7.6 16.3 7.6C14.2566 7.6 12.6 9.25655 12.6 11.3C12.6 13.3435 14.2566 15 16.3 15Z" fill="white"/>
</mask>
<g mask="url(#mask3_732_3378)">
<path d="M20 7.6H12.6V15H20V7.6Z" fill="#CFEBF8"/>
</g>
<mask id="mask4_732_3378" style="mask-type:luminance" maskUnits="userSpaceOnUse" x="12" y="7" width="8" height="8">
<path d="M16.3 15C18.3435 15 20 13.3435 20 11.3C20 9.25655 18.3435 7.6 16.3 7.6C14.2566 7.6 12.6 9.25655 12.6 11.3C12.6 13.3435 14.2566 15 16.3 15Z" fill="white"/>
</mask>
<g mask="url(#mask4_732_3378)">
<path d="M16.1 17.6C18.751 17.6 20.9 15.451 20.9 12.8C20.9 10.149 18.751 8 16.1 8C13.449 8 11.3 10.149 11.3 12.8C11.3 15.451 13.449 17.6 16.1 17.6Z" fill="#CFEBF8"/>
</g>
<mask id="mask5_732_3378" style="mask-type:luminance" maskUnits="userSpaceOnUse" x="12" y="7" width="8" height="8">
<path d="M16.3 15C18.3435 15 20 13.3435 20 11.3C20 9.25655 18.3435 7.6 16.3 7.6C14.2566 7.6 12.6 9.25655 12.6 11.3C12.6 13.3435 14.2566 15 16.3 15Z" fill="white"/>
</mask>
<g mask="url(#mask5_732_3378)">
<path d="M16.1 15.2C17.4255 15.2 18.5 14.1255 18.5 12.8C18.5 11.4745 17.4255 10.4 16.1 10.4C14.7745 10.4 13.7 11.4745 13.7 12.8C13.7 14.1255 14.7745 15.2 16.1 15.2Z" fill="#CFEBF8"/>
</g>
<path d="M7 15C8.65685 15 10 13.6569 10 12C10 10.3431 8.65685 9 7 9C5.34315 9 4 10.3431 4 12C4 13.6569 5.34315 15 7 15Z" fill="white"/>
<mask id="mask6_732_3378" style="mask-type:luminance" maskUnits="userSpaceOnUse" x="4" y="9" width="6" height="6">
<path d="M7 15C8.65685 15 10 13.6569 10 12C10 10.3431 8.65685 9 7 9C5.34315 9 4 10.3431 4 12C4 13.6569 5.34315 15 7 15Z" fill="white"/>
</mask>
<g mask="url(#mask6_732_3378)">
<path d="M9.9 9H4V15H9.9V9Z" fill="#CFEBF8"/>
</g>
<mask id="mask7_732_3378" style="mask-type:luminance" maskUnits="userSpaceOnUse" x="4" y="9" width="6" height="6">
<path d="M7 15C8.65685 15 10 13.6569 10 12C10 10.3431 8.65685 9 7 9C5.34315 9 4 10.3431 4 12C4 13.6569 5.34315 15 7 15Z" fill="white"/>
</mask>
<g mask="url(#mask7_732_3378)">
<path d="M7.6 16.2C9.42254 16.2 10.9 14.7225 10.9 12.9C10.9 11.0775 9.42254 9.6 7.6 9.6C5.77746 9.6 4.3 11.0775 4.3 12.9C4.3 14.7225 5.77746 16.2 7.6 16.2Z" fill="#CFEBF8"/>
</g>
<mask id="mask8_732_3378" style="mask-type:luminance" maskUnits="userSpaceOnUse" x="4" y="9" width="6" height="6">
<path d="M7 15C8.65685 15 10 13.6569 10 12C10 10.3431 8.65685 9 7 9C5.34315 9 4 10.3431 4 12C4 13.6569 5.34315 15 7 15Z" fill="white"/>
</mask>
<g mask="url(#mask8_732_3378)">
<path d="M7.6 14.5C8.48366 14.5 9.2 13.7837 9.2 12.9C9.2 12.0163 8.48366 11.3 7.6 11.3C6.71634 11.3 6 12.0163 6 12.9C6 13.7837 6.71634 14.5 7.6 14.5Z" fill="#CFEBF8"/>
</g>
<path d="M16.7 17.1C16.5 17.5 16.1 17.6 15.7 17.5C15.3 17.3 15.2 16.9 15.3 16.5C15.7 15.7 16.7 15.2 16.7 15.2C16.7 15.2 17.1 16.3 16.7 17.1Z" fill="url(#paint1_linear_732_3378)"/>
<path d="M15.7 20.1C15.5 20.5 15.1 20.6 14.7 20.5C14.3 20.3 14.2 19.9 14.3 19.5C14.7 18.7 15.7 18.2 15.7 18.2C15.7 18.2 16.1 19.3 15.7 20.1Z" fill="url(#paint2_linear_732_3378)"/>
<defs>
<linearGradient id="paint0_linear_732_3378" x1="13.113" y1="10.0597" x2="17.887" y2="4.9403" gradientUnits="userSpaceOnUse">
<stop offset="0.00558659" stop-color="#E89C42"/>
<stop offset="1" stop-color="#F5D12A"/>
</linearGradient>
<linearGradient id="paint1_linear_732_3378" x1="15.6028" y1="16.0269" x2="16.9452" y2="16.6485" gradientUnits="userSpaceOnUse">
<stop stop-color="#178BC9"/>
<stop offset="0.305" stop-color="#399AD2"/>
<stop offset="0.9266" stop-color="#6EC3E7"/>
<stop offset="1" stop-color="#75C8EA"/>
</linearGradient>
<linearGradient id="paint2_linear_732_3378" x1="14.6028" y1="19.027" x2="15.9451" y2="19.6486" gradientUnits="userSpaceOnUse">
<stop stop-color="#178BC9"/>
<stop offset="0.305" stop-color="#399AD2"/>
<stop offset="0.9266" stop-color="#6EC3E7"/>
<stop offset="1" stop-color="#75C8EA"/>
</linearGradient>
</defs>
</svg>
