<svg width="24" height="24" viewBox="0 0 24 24" fill="none" xmlns="http://www.w3.org/2000/svg">
<path d="M11.9 13C14.3853 13 16.4 10.9853 16.4 8.5C16.4 6.01472 14.3853 4 11.9 4C9.41472 4 7.4 6.01472 7.4 8.5C7.4 10.9853 9.41472 13 11.9 13Z" fill="white"/>
<mask id="mask0_732_3986" style="mask-type:luminance" maskUnits="userSpaceOnUse" x="7" y="4" width="10" height="9">
<path d="M11.9 13C14.3853 13 16.4 10.9853 16.4 8.5C16.4 6.01472 14.3853 4 11.9 4C9.41472 4 7.4 6.01472 7.4 8.5C7.4 10.9853 9.41472 13 11.9 13Z" fill="white"/>
</mask>
<g mask="url(#mask0_732_3986)">
<path d="M16.3 4H7.4V13H16.3V4Z" fill="#CFEBF8"/>
</g>
<mask id="mask1_732_3986" style="mask-type:luminance" maskUnits="userSpaceOnUse" x="7" y="4" width="10" height="9">
<path d="M11.9 13C14.3853 13 16.4 10.9853 16.4 8.5C16.4 6.01472 14.3853 4 11.9 4C9.41472 4 7.4 6.01472 7.4 8.5C7.4 10.9853 9.41472 13 11.9 13Z" fill="white"/>
</mask>
<g mask="url(#mask1_732_3986)">
<path d="M11.9 12.6C14.1644 12.6 16 10.7644 16 8.49999C16 6.23563 14.1644 4.39999 11.9 4.39999C9.63563 4.39999 7.8 6.23563 7.8 8.49999C7.8 10.7644 9.63563 12.6 11.9 12.6Z" fill="#CFEBF8"/>
</g>
<mask id="mask2_732_3986" style="mask-type:luminance" maskUnits="userSpaceOnUse" x="7" y="4" width="10" height="9">
<path d="M11.9 13C14.3853 13 16.4 10.9853 16.4 8.5C16.4 6.01472 14.3853 4 11.9 4C9.41472 4 7.4 6.01472 7.4 8.5C7.4 10.9853 9.41472 13 11.9 13Z" fill="white"/>
</mask>
<g mask="url(#mask2_732_3986)">
<path d="M11.9 10.6C13.0046 10.6 13.9 9.65979 13.9 8.49999C13.9 7.3402 13.0046 6.39999 11.9 6.39999C10.7954 6.39999 9.9 7.3402 9.9 8.49999C9.9 9.65979 10.7954 10.6 11.9 10.6Z" fill="#CFEBF8"/>
</g>
<path d="M16.3 14C18.3435 14 20 12.3435 20 10.3C20 8.25655 18.3435 6.60001 16.3 6.60001C14.2565 6.60001 12.6 8.25655 12.6 10.3C12.6 12.3435 14.2565 14 16.3 14Z" fill="white"/>
<mask id="mask3_732_3986" style="mask-type:luminance" maskUnits="userSpaceOnUse" x="12" y="6" width="8" height="8">
<path d="M16.3 14C18.3435 14 20 12.3435 20 10.3C20 8.25655 18.3435 6.60001 16.3 6.60001C14.2565 6.60001 12.6 8.25655 12.6 10.3C12.6 12.3435 14.2565 14 16.3 14Z" fill="white"/>
</mask>
<g mask="url(#mask3_732_3986)">
<path d="M20 6.60001H12.6V14H20V6.60001Z" fill="#CFEBF8"/>
</g>
<mask id="mask4_732_3986" style="mask-type:luminance" maskUnits="userSpaceOnUse" x="12" y="6" width="8" height="8">
<path d="M16.3 14C18.3435 14 20 12.3435 20 10.3C20 8.25655 18.3435 6.60001 16.3 6.60001C14.2565 6.60001 12.6 8.25655 12.6 10.3C12.6 12.3435 14.2565 14 16.3 14Z" fill="white"/>
</mask>
<g mask="url(#mask4_732_3986)">
<path d="M16.1 16.6C18.751 16.6 20.9 14.451 20.9 11.8C20.9 9.14903 18.751 7 16.1 7C13.449 7 11.3 9.14903 11.3 11.8C11.3 14.451 13.449 16.6 16.1 16.6Z" fill="#CFEBF8"/>
</g>
<mask id="mask5_732_3986" style="mask-type:luminance" maskUnits="userSpaceOnUse" x="12" y="6" width="8" height="8">
<path d="M16.3 14C18.3435 14 20 12.3435 20 10.3C20 8.25655 18.3435 6.60001 16.3 6.60001C14.2565 6.60001 12.6 8.25655 12.6 10.3C12.6 12.3435 14.2565 14 16.3 14Z" fill="white"/>
</mask>
<g mask="url(#mask5_732_3986)">
<path d="M16.1 14.2C17.4255 14.2 18.5 13.1255 18.5 11.8C18.5 10.4745 17.4255 9.40001 16.1 9.40001C14.7745 9.40001 13.7 10.4745 13.7 11.8C13.7 13.1255 14.7745 14.2 16.1 14.2Z" fill="#CFEBF8"/>
</g>
<path d="M7 14C8.65685 14 10 12.6569 10 11C10 9.34315 8.65685 8 7 8C5.34315 8 4 9.34315 4 11C4 12.6569 5.34315 14 7 14Z" fill="white"/>
<mask id="mask6_732_3986" style="mask-type:luminance" maskUnits="userSpaceOnUse" x="4" y="8" width="6" height="6">
<path d="M7 14C8.65685 14 10 12.6569 10 11C10 9.34315 8.65685 8 7 8C5.34315 8 4 9.34315 4 11C4 12.6569 5.34315 14 7 14Z" fill="white"/>
</mask>
<g mask="url(#mask6_732_3986)">
<path d="M9.9 8H4V14H9.9V8Z" fill="#CFEBF8"/>
</g>
<mask id="mask7_732_3986" style="mask-type:luminance" maskUnits="userSpaceOnUse" x="4" y="8" width="6" height="6">
<path d="M7 14C8.65685 14 10 12.6569 10 11C10 9.34315 8.65685 8 7 8C5.34315 8 4 9.34315 4 11C4 12.6569 5.34315 14 7 14Z" fill="white"/>
</mask>
<g mask="url(#mask7_732_3986)">
<path d="M7.6 15.2C9.42254 15.2 10.9 13.7225 10.9 11.9C10.9 10.0775 9.42254 8.60001 7.6 8.60001C5.77746 8.60001 4.3 10.0775 4.3 11.9C4.3 13.7225 5.77746 15.2 7.6 15.2Z" fill="#CFEBF8"/>
</g>
<mask id="mask8_732_3986" style="mask-type:luminance" maskUnits="userSpaceOnUse" x="4" y="8" width="6" height="6">
<path d="M7 14C8.65685 14 10 12.6569 10 11C10 9.34315 8.65685 8 7 8C5.34315 8 4 9.34315 4 11C4 12.6569 5.34315 14 7 14Z" fill="white"/>
</mask>
<g mask="url(#mask8_732_3986)">
<path d="M7.6 13.5C8.48366 13.5 9.2 12.7837 9.2 11.9C9.2 11.0163 8.48366 10.3 7.6 10.3C6.71634 10.3 6 11.0163 6 11.9C6 12.7837 6.71634 13.5 7.6 13.5Z" fill="#CFEBF8"/>
</g>
<path d="M12.1 16.6C11.9 17 11.5 17.1 11.1 17C10.7 16.8 10.6 16.4 10.7 16C11.1 15.2 12.1 14.7 12.1 14.7C12.1 14.7 12.5 15.8 12.1 16.6Z" fill="url(#paint0_linear_732_3986)"/>
<path d="M14.1 16.6C13.9 17 13.5 17.1 13.1 17C12.7 16.8 12.6 16.4 12.7 16C13.1 15.2 14.1 14.7 14.1 14.7C14.1 14.7 14.5 15.8 14.1 16.6Z" fill="url(#paint1_linear_732_3986)"/>
<path d="M11.1 19.6C10.9 20 10.5 20.1 10.1 20C9.7 19.8 9.6 19.4 9.7 19C10.1 18.2 11.1 17.7 11.1 17.7C11.1 17.7 11.5 18.8 11.1 19.6Z" fill="url(#paint2_linear_732_3986)"/>
<path d="M17.6 16.3L15.1 15.1C15 15 15 14.9 15 14.9C15 14.8 15.1 14.8 15.2 14.8L17.7 16C17.8 16 17.8 16.1 17.8 16.2C17.7 16.3 17.6 16.3 17.6 16.3Z" fill="url(#paint3_radial_732_3986)"/>
<path d="M17.7 15L15.3 16.4C15.2 16.4 15.1 16.4 15.1 16.4C15.1 16.3 15.1 16.2 15.1 16.2L17.5 14.8C17.6 14.8 17.7 14.8 17.7 14.8C17.7 14.8 17.7 14.9 17.7 15Z" fill="url(#paint4_radial_732_3986)"/>
<path d="M16.5 14.3V16.9C16.5 17 16.4 17.1 16.3 17.1C16.2 17.1 16.1 17 16.1 16.9V14.3C16.1 14.2 16.2 14.1 16.3 14.1C16.5 14.1 16.5 14.2 16.5 14.3Z" fill="url(#paint5_radial_732_3986)"/>
<path d="M16.4 15L15.9 14.5L16.1 14.4L16.4 14.7L16.7 14.4L16.8 14.5L16.4 15Z" fill="url(#paint6_radial_732_3986)"/>
<path d="M16.7 16.7L16.4 16.4L16.1 16.7L15.9 16.6L16.4 16.1L16.8 16.6L16.7 16.7Z" fill="url(#paint7_radial_732_3986)"/>
<path d="M17.6 15.4L16.9 15.2L17.2 14.5L17.4 14.6L17.2 15L17.7 15.2L17.6 15.4Z" fill="url(#paint8_radial_732_3986)"/>
<path d="M15.6 16.6L15.4 16.5L15.6 16.1L15.1 15.9V15.8L15.8 15.9L15.6 16.6Z" fill="url(#paint9_radial_732_3986)"/>
<path d="M15.1 15.4V15.3L15.6 15.2L15.5 14.7H15.7L15.8 15.3L15.1 15.4Z" fill="url(#paint10_radial_732_3986)"/>
<path d="M17.1 16.5L16.9 15.8L17.6 15.6V15.8L17.2 16L17.3 16.4L17.1 16.5Z" fill="url(#paint11_radial_732_3986)"/>
<path d="M15.8 19.7L14 18.8C13.9 18.8 13.9 18.7 14 18.7C14 18.7 14.1 18.6 14.1 18.7L15.9 19.6C16 19.6 16 19.7 15.9 19.7C16 19.7 15.9 19.7 15.8 19.7Z" fill="url(#paint12_radial_732_3986)"/>
<path d="M15.9 18.7L14.2 19.7H14.1C14.1 19.6 14.1 19.6 14.1 19.5L15.8 18.5H15.9C16 18.6 16 18.7 15.9 18.7Z" fill="url(#paint13_radial_732_3986)"/>
<path d="M15.1 18.2V20.1C15.1 20.2 15 20.2 15 20.2C14.9 20.2 14.9 20.1 14.9 20.1V18.2C14.9 18.1 15 18.1 15 18.1C15.1 18.1 15.1 18.2 15.1 18.2Z" fill="url(#paint14_radial_732_3986)"/>
<path d="M15 18.7L14.7 18.4L14.8 18.3L15 18.5L15.2 18.3L15.3 18.4L15 18.7Z" fill="url(#paint15_radial_732_3986)"/>
<path d="M15.2 20L15 19.8L14.8 20L14.7 19.9L15 19.6L15.3 19.9L15.2 20Z" fill="url(#paint16_radial_732_3986)"/>
<path d="M15.9 19L15.4 18.9L15.6 18.4L15.7 18.5L15.6 18.8L15.9 18.9V19Z" fill="url(#paint17_radial_732_3986)"/>
<path d="M14.5 19.9L14.3 19.8L14.4 19.5L14.1 19.4V19.3L14.6 19.4L14.5 19.9Z" fill="url(#paint18_radial_732_3986)"/>
<path d="M14.1 19.1V18.9H14.4V18.5H14.5L14.6 19L14.1 19.1Z" fill="url(#paint19_radial_732_3986)"/>
<path d="M15.5 19.8L15.4 19.4L15.9 19.2V19.3L15.6 19.4L15.7 19.8H15.5Z" fill="url(#paint20_radial_732_3986)"/>
<path d="M9.8 17.7L8 16.8C7.9 16.8 7.9 16.7 8 16.7C8 16.7 8.1 16.6 8.1 16.7L9.9 17.6C10 17.6 10 17.7 9.9 17.7C10 17.7 9.9 17.7 9.8 17.7Z" fill="url(#paint21_radial_732_3986)"/>
<path d="M9.90001 16.7L8.20001 17.7H8.10001C8.10001 17.6 8.10001 17.6 8.10001 17.5L9.80001 16.5H9.90001C10 16.6 10 16.7 9.90001 16.7Z" fill="url(#paint22_radial_732_3986)"/>
<path d="M9.1 16.2V18.1C9.1 18.2 9 18.2 9 18.2C8.9 18.2 8.9 18.1 8.9 18.1V16.2C8.9 16.1 9 16.1 9 16.1C9.1 16.1 9.1 16.2 9.1 16.2Z" fill="url(#paint23_radial_732_3986)"/>
<path d="M9 16.7L8.7 16.4L8.8 16.3L9 16.5L9.2 16.3L9.3 16.4L9 16.7Z" fill="url(#paint24_radial_732_3986)"/>
<path d="M9.2 18L9 17.8L8.8 18L8.7 17.9L9 17.6L9.3 17.9L9.2 18Z" fill="url(#paint25_radial_732_3986)"/>
<path d="M9.9 17L9.4 16.9L9.6 16.4L9.7 16.5L9.6 16.8L9.9 16.9V17Z" fill="url(#paint26_radial_732_3986)"/>
<path d="M8.50001 17.9L8.30001 17.8L8.40001 17.5L8.10001 17.4V17.3L8.60001 17.4L8.50001 17.9Z" fill="url(#paint27_radial_732_3986)"/>
<path d="M8.10001 17.1V16.9H8.40001V16.5H8.50001L8.60001 17L8.10001 17.1Z" fill="url(#paint28_radial_732_3986)"/>
<path d="M9.5 17.8L9.4 17.4L9.9 17.2V17.3L9.6 17.4L9.7 17.8H9.5Z" fill="url(#paint29_radial_732_3986)"/>
<defs>
<linearGradient id="paint0_linear_732_3986" x1="10.9818" y1="15.5184" x2="12.3242" y2="16.1401" gradientUnits="userSpaceOnUse">
<stop stop-color="#178BC9"/>
<stop offset="0.305" stop-color="#399AD2"/>
<stop offset="0.9266" stop-color="#6EC3E7"/>
<stop offset="1" stop-color="#75C8EA"/>
</linearGradient>
<linearGradient id="paint1_linear_732_3986" x1="12.9819" y1="15.5185" x2="14.3243" y2="16.1401" gradientUnits="userSpaceOnUse">
<stop stop-color="#178BC9"/>
<stop offset="0.305" stop-color="#399AD2"/>
<stop offset="0.9266" stop-color="#6EC3E7"/>
<stop offset="1" stop-color="#75C8EA"/>
</linearGradient>
<linearGradient id="paint2_linear_732_3986" x1="9.98185" y1="18.5185" x2="11.3243" y2="19.1401" gradientUnits="userSpaceOnUse">
<stop stop-color="#178BC9"/>
<stop offset="0.305" stop-color="#399AD2"/>
<stop offset="0.9266" stop-color="#6EC3E7"/>
<stop offset="1" stop-color="#75C8EA"/>
</linearGradient>
<radialGradient id="paint3_radial_732_3986" cx="0" cy="0" r="1" gradientUnits="userSpaceOnUse" gradientTransform="translate(16.3893 15.5512) scale(1.14051 1.06044)">
<stop offset="0.00515464" stop-color="white"/>
<stop offset="0.3657" stop-color="#EFF8FD"/>
<stop offset="1" stop-color="#C7E7F7"/>
</radialGradient>
<radialGradient id="paint4_radial_732_3986" cx="0" cy="0" r="1" gradientUnits="userSpaceOnUse" gradientTransform="translate(16.3893 15.5512) scale(1.1433 1.06304)">
<stop stop-color="#C7E7F7"/>
<stop offset="0.6343" stop-color="#EFF8FD"/>
<stop offset="0.9948" stop-color="white"/>
</radialGradient>
<radialGradient id="paint5_radial_732_3986" cx="0" cy="0" r="1" gradientUnits="userSpaceOnUse" gradientTransform="translate(16.3893 15.5512) scale(1.1064 1.02873)">
<stop stop-color="#C7E7F7"/>
<stop offset="0.6343" stop-color="#EFF8FD"/>
<stop offset="0.9948" stop-color="white"/>
</radialGradient>
<radialGradient id="paint6_radial_732_3986" cx="0" cy="0" r="1" gradientUnits="userSpaceOnUse" gradientTransform="translate(16.3893 14.6785) scale(0.386372 0.359247)">
<stop offset="0.00515464" stop-color="white"/>
<stop offset="0.3657" stop-color="#EFF8FD"/>
<stop offset="1" stop-color="#C7E7F7"/>
</radialGradient>
<radialGradient id="paint7_radial_732_3986" cx="0" cy="0" r="1" gradientUnits="userSpaceOnUse" gradientTransform="translate(16.3893 16.424) scale(0.386372 0.359247)">
<stop stop-color="#C7E7F7"/>
<stop offset="0.6343" stop-color="#EFF8FD"/>
<stop offset="0.9948" stop-color="white"/>
</radialGradient>
<radialGradient id="paint8_radial_732_3986" cx="0" cy="0" r="1" gradientUnits="userSpaceOnUse" gradientTransform="translate(17.3165 14.9466) scale(0.4118 0.382889)">
<stop offset="0.00515464" stop-color="white"/>
<stop offset="0.3657" stop-color="#EFF8FD"/>
<stop offset="1" stop-color="#C7E7F7"/>
</radialGradient>
<radialGradient id="paint9_radial_732_3986" cx="0" cy="0" r="1" gradientUnits="userSpaceOnUse" gradientTransform="translate(15.4448 16.1582) scale(0.404047 0.375681)">
<stop stop-color="#C7E7F7"/>
<stop offset="0.6343" stop-color="#EFF8FD"/>
<stop offset="0.9948" stop-color="white"/>
</radialGradient>
<radialGradient id="paint10_radial_732_3986" cx="0" cy="0" r="1" gradientUnits="userSpaceOnUse" gradientTransform="translate(15.4659 15.0562) scale(0.386682 0.359535)">
<stop offset="0.00515464" stop-color="white"/>
<stop offset="0.3657" stop-color="#EFF8FD"/>
<stop offset="1" stop-color="#C7E7F7"/>
</radialGradient>
<radialGradient id="paint11_radial_732_3986" cx="0" cy="0" r="1" gradientUnits="userSpaceOnUse" gradientTransform="translate(17.2743 16.0474) scale(0.41366 0.384619)">
<stop offset="0.00515464" stop-color="white"/>
<stop offset="0.3657" stop-color="#EFF8FD"/>
<stop offset="1" stop-color="#C7E7F7"/>
</radialGradient>
<radialGradient id="paint12_radial_732_3986" cx="0" cy="0" r="1" gradientUnits="userSpaceOnUse" gradientTransform="translate(14.9998 19.1452) scale(0.820808 0.763183)">
<stop offset="0.00515464" stop-color="white"/>
<stop offset="0.3657" stop-color="#EFF8FD"/>
<stop offset="1" stop-color="#C7E7F7"/>
</radialGradient>
<radialGradient id="paint13_radial_732_3986" cx="0" cy="0" r="1" gradientUnits="userSpaceOnUse" gradientTransform="translate(14.9998 19.1452) scale(0.822668 0.764913)">
<stop stop-color="#C7E7F7"/>
<stop offset="0.6343" stop-color="#EFF8FD"/>
<stop offset="0.9948" stop-color="white"/>
</radialGradient>
<radialGradient id="paint14_radial_732_3986" cx="0" cy="0" r="1" gradientUnits="userSpaceOnUse" gradientTransform="translate(14.9998 19.1452) scale(0.796314 0.740406)">
<stop stop-color="#C7E7F7"/>
<stop offset="0.6343" stop-color="#EFF8FD"/>
<stop offset="0.9948" stop-color="white"/>
</radialGradient>
<radialGradient id="paint15_radial_732_3986" cx="0" cy="0" r="1" gradientUnits="userSpaceOnUse" gradientTransform="translate(14.9998 18.5172) scale(0.278021 0.258504)">
<stop offset="0.00515464" stop-color="white"/>
<stop offset="0.3657" stop-color="#EFF8FD"/>
<stop offset="1" stop-color="#C7E7F7"/>
</radialGradient>
<radialGradient id="paint16_radial_732_3986" cx="0" cy="0" r="1" gradientUnits="userSpaceOnUse" gradientTransform="translate(14.9998 19.7734) scale(0.278021 0.258502)">
<stop stop-color="#C7E7F7"/>
<stop offset="0.6343" stop-color="#EFF8FD"/>
<stop offset="0.9948" stop-color="white"/>
</radialGradient>
<radialGradient id="paint17_radial_732_3986" cx="0" cy="0" r="1" gradientUnits="userSpaceOnUse" gradientTransform="translate(15.6668 18.7101) scale(0.296426 0.275615)">
<stop offset="0.00515464" stop-color="white"/>
<stop offset="0.3657" stop-color="#EFF8FD"/>
<stop offset="1" stop-color="#C7E7F7"/>
</radialGradient>
<radialGradient id="paint18_radial_732_3986" cx="0" cy="0" r="1" gradientUnits="userSpaceOnUse" gradientTransform="translate(14.3201 19.582) scale(0.290672 0.270266)">
<stop stop-color="#C7E7F7"/>
<stop offset="0.6343" stop-color="#EFF8FD"/>
<stop offset="0.9948" stop-color="white"/>
</radialGradient>
<radialGradient id="paint19_radial_732_3986" cx="0" cy="0" r="1" gradientUnits="userSpaceOnUse" gradientTransform="translate(14.3353 18.7891) scale(0.27817 0.258641)">
<stop offset="0.00515464" stop-color="white"/>
<stop offset="0.3657" stop-color="#EFF8FD"/>
<stop offset="1" stop-color="#C7E7F7"/>
</radialGradient>
<radialGradient id="paint20_radial_732_3986" cx="0" cy="0" r="1" gradientUnits="userSpaceOnUse" gradientTransform="translate(15.6364 19.5024) scale(0.297728 0.276825)">
<stop offset="0.00515464" stop-color="white"/>
<stop offset="0.3657" stop-color="#EFF8FD"/>
<stop offset="1" stop-color="#C7E7F7"/>
</radialGradient>
<radialGradient id="paint21_radial_732_3986" cx="0" cy="0" r="1" gradientUnits="userSpaceOnUse" gradientTransform="translate(8.99987 17.1454) scale(0.820808 0.763183)">
<stop offset="0.00515464" stop-color="white"/>
<stop offset="0.3657" stop-color="#EFF8FD"/>
<stop offset="1" stop-color="#C7E7F7"/>
</radialGradient>
<radialGradient id="paint22_radial_732_3986" cx="0" cy="0" r="1" gradientUnits="userSpaceOnUse" gradientTransform="translate(8.99987 17.1454) scale(0.822668 0.764913)">
<stop stop-color="#C7E7F7"/>
<stop offset="0.6343" stop-color="#EFF8FD"/>
<stop offset="0.9948" stop-color="white"/>
</radialGradient>
<radialGradient id="paint23_radial_732_3986" cx="0" cy="0" r="1" gradientUnits="userSpaceOnUse" gradientTransform="translate(8.99987 17.1454) scale(0.796314 0.740406)">
<stop stop-color="#C7E7F7"/>
<stop offset="0.6343" stop-color="#EFF8FD"/>
<stop offset="0.9948" stop-color="white"/>
</radialGradient>
<radialGradient id="paint24_radial_732_3986" cx="0" cy="0" r="1" gradientUnits="userSpaceOnUse" gradientTransform="translate(8.99987 16.5171) scale(0.278021 0.258504)">
<stop offset="0.00515464" stop-color="white"/>
<stop offset="0.3657" stop-color="#EFF8FD"/>
<stop offset="1" stop-color="#C7E7F7"/>
</radialGradient>
<radialGradient id="paint25_radial_732_3986" cx="0" cy="0" r="1" gradientUnits="userSpaceOnUse" gradientTransform="translate(8.99987 17.7733) scale(0.278021 0.258502)">
<stop stop-color="#C7E7F7"/>
<stop offset="0.6343" stop-color="#EFF8FD"/>
<stop offset="0.9948" stop-color="white"/>
</radialGradient>
<radialGradient id="paint26_radial_732_3986" cx="0" cy="0" r="1" gradientUnits="userSpaceOnUse" gradientTransform="translate(9.66687 16.71) scale(0.296426 0.275615)">
<stop offset="0.00515464" stop-color="white"/>
<stop offset="0.3657" stop-color="#EFF8FD"/>
<stop offset="1" stop-color="#C7E7F7"/>
</radialGradient>
<radialGradient id="paint27_radial_732_3986" cx="0" cy="0" r="1" gradientUnits="userSpaceOnUse" gradientTransform="translate(8.32016 17.5822) scale(0.290672 0.270266)">
<stop stop-color="#C7E7F7"/>
<stop offset="0.6343" stop-color="#EFF8FD"/>
<stop offset="0.9948" stop-color="white"/>
</radialGradient>
<radialGradient id="paint28_radial_732_3986" cx="0" cy="0" r="1" gradientUnits="userSpaceOnUse" gradientTransform="translate(8.33535 16.789) scale(0.27817 0.258641)">
<stop offset="0.00515464" stop-color="white"/>
<stop offset="0.3657" stop-color="#EFF8FD"/>
<stop offset="1" stop-color="#C7E7F7"/>
</radialGradient>
<radialGradient id="paint29_radial_732_3986" cx="0" cy="0" r="1" gradientUnits="userSpaceOnUse" gradientTransform="translate(9.63648 17.5023) scale(0.297728 0.276825)">
<stop offset="0.00515464" stop-color="white"/>
<stop offset="0.3657" stop-color="#EFF8FD"/>
<stop offset="1" stop-color="#C7E7F7"/>
</radialGradient>
</defs>
</svg>
