<svg width="24" height="24" viewBox="0 0 24 24" fill="none" xmlns="http://www.w3.org/2000/svg">
<path d="M11.5 18C15.0899 18 18 15.0899 18 11.5C18 7.91015 15.0899 5 11.5 5C7.91015 5 5 7.91015 5 11.5C5 15.0899 7.91015 18 11.5 18Z" fill="url(#paint0_linear_732_2712)"/>
<path d="M11.5 4C11.2 4 11 3.8 11 3.5V2.5C11 2.2 11.2 2 11.5 2C11.8 2 12 2.2 12 2.5V3.5C12 3.8 11.8 4 11.5 4Z" fill="#F5D12A"/>
<path d="M11.5 4C11.2 4 11 3.8 11 3.5V2.5C11 2.2 11.2 2 11.5 2C11.8 2 12 2.2 12 2.5V3.5C12 3.8 11.8 4 11.5 4Z" fill="#F5D12A"/>
<path d="M6.2 6.19999C6 6.39999 5.7 6.39999 5.5 6.19999L4.8 5.49999C4.6 5.29999 4.6 4.99999 4.8 4.79999C5 4.59999 5.3 4.59999 5.5 4.79999L6.2 5.49999C6.4 5.69999 6.4 5.99999 6.2 6.19999Z" fill="#F5D12A"/>
<path d="M4 11.5C4 11.8 3.8 12 3.5 12H2.5C2.2 12 2 11.8 2 11.5C2 11.2 2.2 11 2.5 11H3.5C3.8 11 4 11.2 4 11.5Z" fill="#F5D12A"/>
<path d="M6.2 16.8C6.4 17 6.4 17.3 6.2 17.5L5.5 18.2C5.3 18.4 5 18.4 4.8 18.2C4.6 18 4.6 17.7 4.8 17.5L5.5 16.8C5.7 16.6 6 16.6 6.2 16.8Z" fill="#F5D12A"/>
<path d="M11.5 19C11.8 19 12 19.2 12 19.5V20.5C12 20.8 11.8 21 11.5 21C11.2 21 11 20.8 11 20.5V19.5C11 19.2 11.2 19 11.5 19Z" fill="#F5D12A"/>
<path d="M16.8 16.8C17 16.6 17.3 16.6 17.5 16.8L18.2 17.5C18.4 17.7 18.4 18 18.2 18.2C18 18.4 17.7 18.4 17.5 18.2L16.8 17.5C16.6 17.3 16.6 17 16.8 16.8Z" fill="#F5D12A"/>
<path d="M19 11.5C19 11.2 19.2 11 19.5 11H20.5C20.8 11 21 11.2 21 11.5C21 11.8 20.8 12 20.5 12H19.5C19.2 12 19 11.8 19 11.5Z" fill="#F5D12A"/>
<path d="M16.8 6.19999C16.6 5.99999 16.6 5.69999 16.8 5.49999L17.5 4.79999C17.7 4.59999 18 4.59999 18.2 4.79999C18.4 4.99999 18.4 5.29999 18.2 5.49999L17.5 6.19999C17.3 6.39999 17 6.39999 16.8 6.19999Z" fill="#F5D12A"/>
<defs>
<linearGradient id="paint0_linear_732_2712" x1="6.9038" y1="16.0962" x2="16.0962" y2="6.9038" gradientUnits="userSpaceOnUse">
<stop offset="0.00558659" stop-color="#E89C42"/>
<stop offset="1" stop-color="#F5D12A"/>
</linearGradient>
</defs>
</svg>
