<svg width="45" height="45" viewBox="0 0 45 45" fill="none" xmlns="http://www.w3.org/2000/svg">
<circle cx="22.5" cy="22.5" r="18" stroke="url(#paint0_linear_26_104)"/>
<path d="M24.5 17H32C32.5523 17 33 17.4477 33 18V25C33 25.5523 32.5523 26 32 26H30" stroke="url(#paint1_linear_26_104)" stroke-width="2" stroke-linecap="round" stroke-linejoin="round"/>
<path d="M16.5 17H14C13.4477 17 13 17.4477 13 18V25C13 25.5523 13.4477 26 14 26H21.5" stroke="url(#paint2_linear_26_104)" stroke-width="2" stroke-linecap="round" stroke-linejoin="round"/>
<path d="M18 13L28 30" stroke="url(#paint3_linear_26_104)" stroke-width="2" stroke-linecap="round" stroke-linejoin="round"/>
<path d="M27 21.5H29" stroke="url(#paint4_linear_26_104)" stroke-width="2" stroke-linecap="round" stroke-linejoin="round"/>
<path d="M17 21.5H19" stroke="url(#paint5_linear_26_104)" stroke-width="2" stroke-linecap="round" stroke-linejoin="round"/>
<circle cx="22.5" cy="22.5" r="22" stroke="url(#paint6_linear_26_104)" stroke-opacity="0.2"/>
<defs>
<linearGradient id="paint0_linear_26_104" x1="22.5" y1="4" x2="22.5" y2="41" gradientUnits="userSpaceOnUse">
<stop stop-color="#9BFF5D"/>
<stop offset="0.408654" stop-color="#FAAB02"/>
<stop offset="1" stop-color="#FA0202" stop-opacity="0"/>
</linearGradient>
<linearGradient id="paint1_linear_26_104" x1="28.75" y1="17" x2="28.75" y2="26" gradientUnits="userSpaceOnUse">
<stop stop-color="#DEF502"/>
<stop offset="1" stop-color="#F47B02"/>
</linearGradient>
<linearGradient id="paint2_linear_26_104" x1="17.25" y1="17" x2="17.25" y2="26" gradientUnits="userSpaceOnUse">
<stop stop-color="#DEF502"/>
<stop offset="1" stop-color="#F47B02"/>
</linearGradient>
<linearGradient id="paint3_linear_26_104" x1="23" y1="13" x2="23" y2="30" gradientUnits="userSpaceOnUse">
<stop stop-color="#DEF502"/>
<stop offset="1" stop-color="#F47B02"/>
</linearGradient>
<linearGradient id="paint4_linear_26_104" x1="28" y1="21.5" x2="28" y2="22.5" gradientUnits="userSpaceOnUse">
<stop stop-color="#DEF502"/>
<stop offset="1" stop-color="#F47B02"/>
</linearGradient>
<linearGradient id="paint5_linear_26_104" x1="18" y1="21.5" x2="18" y2="22.5" gradientUnits="userSpaceOnUse">
<stop stop-color="#DEF502"/>
<stop offset="1" stop-color="#F47B02"/>
</linearGradient>
<linearGradient id="paint6_linear_26_104" x1="22.5" y1="0" x2="22.5" y2="45" gradientUnits="userSpaceOnUse">
<stop stop-color="#9BFF5D"/>
<stop offset="0.408654" stop-color="#FAAB02"/>
<stop offset="1" stop-color="#FA0202" stop-opacity="0"/>
</linearGradient>
</defs>
</svg>
