<svg width="84" height="109" viewBox="0 0 84 109" fill="none" xmlns="http://www.w3.org/2000/svg">
<path d="M8.5 5C8.5 5 10.5 9.5 41.5 9.5C72.5 9.5 74.5 5 74.5 5V87C74.5 87 73 82 41.5 82C10 82 8.5 87 8.5 87V5Z" fill="url(#paint0_linear_34_227)"/>
<path d="M8.5 60.5C8.5 60.5 10.5 65 41.5 65C72.5 65 74.5 60.5 74.5 60.5V87C74.5 87 73 82 41.5 82C10 82 8.5 87 8.5 87V60.5Z" fill="url(#paint1_linear_34_227)"/>
<path d="M47.0265 103.895C45.2274 103.964 43.3809 104 41.5 104C39.6191 104 37.7726 103.964 35.9735 103.895L37.0449 102.452C38.4914 102.508 39.9796 102.537 41.5 102.537C43.0204 102.537 44.5086 102.508 45.9551 102.452L47.0265 103.895ZM27.369 101.612C29.8604 101.969 32.6289 102.234 35.5837 102.387L34.1563 103.814C30.478 103.623 27.0343 103.294 23.9389 102.851L27.369 101.612ZM59.0611 102.851C55.9657 103.294 52.522 103.623 48.8437 103.814L47.4163 102.387C50.3711 102.234 53.1396 101.969 55.631 101.612L59.0611 102.851ZM19.8343 99.9929C21.565 100.546 23.6962 101.031 26.1311 101.424L22.4007 102.617C19.3785 102.129 16.7343 101.528 14.5861 100.841L19.8343 99.9929ZM68.4139 100.841C66.2657 101.528 63.6215 102.129 60.5993 102.617L56.8689 101.424C59.3038 101.031 61.435 100.546 63.1657 99.9929L68.4139 100.841ZM15.5993 97.8446C16.271 98.5162 17.4364 99.1454 19.0051 99.7116L13.5564 100.491C11.6074 99.7877 10.1569 99.005 9.3206 98.169L15.5993 97.8446ZM73.6794 98.169C72.8431 99.005 71.3926 99.7877 69.4436 100.491L63.9949 99.7116C65.5636 99.1454 66.729 98.5161 67.4007 97.8446L73.6794 98.169ZM8.5 96.5C8.5 96.0725 8.65784 95.6529 8.96139 95.244L15.3108 95.4875C15.0667 95.8162 14.939 96.1544 14.939 96.5C14.939 96.8456 15.0667 97.1838 15.3108 97.5125L8.96139 97.756C8.65784 97.3471 8.5 96.9275 8.5 96.5ZM68.061 96.5C68.061 96.1544 67.9333 95.8162 67.6892 95.4875L74.0386 95.244C74.3422 95.6529 74.5 96.0725 74.5 96.5C74.5 96.9275 74.3422 97.3471 74.0386 97.756L67.6892 97.5125C67.9333 97.1838 68.061 96.8456 68.061 96.5ZM19.0051 93.2884C17.4364 93.8546 16.271 94.4839 15.5993 95.1554L9.3206 94.831C10.1569 93.995 11.6074 93.2123 13.5564 92.5088L19.0051 93.2884ZM69.4436 92.5088C71.3926 93.2123 72.8431 93.995 73.6794 94.831L67.4007 95.1554C66.729 94.4839 65.5636 93.8546 63.9949 93.2884L69.4436 92.5088ZM26.1311 91.576C23.6962 91.9693 21.565 92.4537 19.8343 93.0071L14.5861 92.1592C16.7343 91.4724 19.3785 90.8714 22.4007 90.3832L26.1311 91.576ZM60.5993 90.3832C63.6215 90.8714 66.2657 91.4724 68.4139 92.1592L63.1657 93.0071C61.435 92.4537 59.3038 91.9693 56.8689 91.576L60.5993 90.3832ZM35.5837 90.6135C32.6289 90.7661 29.8604 91.031 27.369 91.3875L23.9389 90.1492C27.0343 89.7062 30.478 89.3766 34.1563 89.1865L35.5837 90.6135ZM48.8437 89.1865C52.522 89.3766 55.9657 89.7062 59.0611 90.1492L55.631 91.3875C53.1396 91.031 50.3711 90.7661 47.4163 90.6135L48.8437 89.1865ZM41.5 89C43.3809 89 45.2274 89.0359 47.0265 89.1049L45.9551 90.5479C44.5086 90.4924 43.0204 90.4634 41.5 90.4634C39.9796 90.4634 38.4914 90.4924 37.0449 90.5479L35.9735 89.1049C37.7726 89.0359 39.6191 89 41.5 89Z" fill="url(#paint2_linear_34_227)"/>
<path d="M42 89.5C53.1585 89.5 63.2454 90.5054 70.5293 92.124C74.1753 92.9343 77.0921 93.8924 79.085 94.9395C80.0817 95.4632 80.8232 95.9963 81.3096 96.5244C81.7935 97.0499 82 97.5417 82 98C82 98.4583 81.7935 98.9501 81.3096 99.4756C80.8232 100.004 80.0817 100.537 79.085 101.061C77.0921 102.108 74.1753 103.066 70.5293 103.876C63.2454 105.495 53.1585 106.5 42 106.5C30.8415 106.5 20.7546 105.495 13.4707 103.876C9.82467 103.066 6.90788 102.108 4.91504 101.061C3.91829 100.537 3.17676 100.004 2.69043 99.4756C2.20655 98.9501 2 98.4583 2 98C2 97.5417 2.20655 97.0499 2.69043 96.5244C3.17676 95.9963 3.91829 95.4632 4.91504 94.9395C6.90788 93.8924 9.82467 92.9343 13.4707 92.124C20.7546 90.5054 30.8415 89.5 42 89.5Z" stroke="url(#paint3_linear_34_227)"/>
<path d="M42.5729 108.411L42.5752 108.999C42.3838 108.999 42.192 109 42 109C41.808 109 41.6162 108.999 41.4248 108.999L41.4271 108.411L41.4282 107.822C41.6184 107.823 41.8091 107.824 42 107.824C42.1909 107.824 42.3816 107.823 42.5718 107.822L42.5729 108.411ZM40.2912 107.815L40.2801 108.992C39.8968 108.988 39.5148 108.983 39.1342 108.977L39.1431 108.389L39.1509 107.801C39.5292 107.807 39.91 107.812 40.2912 107.815ZM44.8569 108.389L44.8658 108.977C44.4852 108.983 44.1032 108.988 43.7199 108.992L43.7088 107.815C44.09 107.812 44.4708 107.807 44.8491 107.801L44.8569 108.389ZM38.0161 107.78L38.0028 108.367L37.9906 108.955C37.6067 108.947 37.2243 108.937 36.8436 108.926L36.8747 107.75C37.2532 107.761 37.6344 107.771 38.0161 107.78ZM47.1564 108.926C46.7757 108.937 46.3933 108.947 46.0094 108.955L45.9972 108.367L45.9839 107.78C46.3656 107.771 46.7468 107.761 47.1253 107.75L47.1564 108.926ZM35.741 107.714L35.7221 108.301L35.7022 108.89C35.3177 108.876 34.935 108.861 34.5541 108.845L34.6007 107.67C34.979 107.686 35.3591 107.701 35.741 107.714ZM49.4459 108.845C49.065 108.861 48.6823 108.876 48.2978 108.89L48.2779 108.301L48.259 107.714C48.6409 107.701 49.021 107.686 49.3993 107.67L49.4459 108.845ZM33.4648 107.618L33.4115 108.793C33.028 108.774 32.6463 108.755 32.2668 108.733L32.2968 108.145L32.3278 107.558C32.7048 107.579 33.0838 107.599 33.4648 107.618ZM51.7032 108.145L51.7332 108.733C51.3537 108.755 50.972 108.774 50.5885 108.793L50.5352 107.618C50.9162 107.599 51.2952 107.579 51.6722 107.558L51.7032 108.145ZM31.1909 107.49L31.122 108.666C30.7396 108.642 30.3596 108.615 29.9817 108.589L30.0194 108.003L30.0583 107.416C30.4335 107.442 30.8111 107.466 31.1909 107.49ZM53.9805 108.003L54.0183 108.589C53.6404 108.615 53.2603 108.642 52.878 108.666L52.8091 107.49C53.1889 107.466 53.5665 107.442 53.9417 107.416L53.9805 108.003ZM28.9202 107.331L28.878 107.918L28.8347 108.505C28.4526 108.475 28.0726 108.444 27.6955 108.412L27.7433 107.825L27.7899 107.239C28.1641 107.271 28.5409 107.301 28.9202 107.331ZM56.2567 107.825L56.3045 108.412C55.9274 108.444 55.5474 108.475 55.1653 108.505L55.122 107.918L55.0798 107.331C55.4591 107.301 55.8359 107.271 56.2101 107.239L56.2567 107.825ZM26.654 107.138L26.5519 108.31C26.1686 108.274 25.7879 108.236 25.4104 108.198L25.5215 107.027C25.896 107.065 26.2736 107.102 26.654 107.138ZM58.5896 108.198C58.2121 108.236 57.8314 108.274 57.4481 108.31L57.346 107.138C57.7264 107.102 58.104 107.065 58.4785 107.027L58.5896 108.198ZM24.3945 106.908L24.3334 107.493L24.2735 108.077C23.8889 108.035 23.5077 107.991 23.1298 107.946L23.1942 107.362L23.2597 106.777C23.6345 106.822 24.013 106.866 24.3945 106.908ZM60.8058 107.362L60.8702 107.946C60.4923 107.991 60.1111 108.035 59.7265 108.077L59.6666 107.493L59.6055 106.908C59.987 106.866 60.3655 106.822 60.7403 106.777L60.8058 107.362ZM22.1316 106.638L21.9917 107.805C21.6097 107.756 21.2314 107.705 20.8569 107.653L21.0079 106.487C21.3787 106.539 21.7532 106.589 22.1316 106.638ZM63.1431 107.653C62.7686 107.705 62.3903 107.756 62.0083 107.805L61.8684 106.638C62.2468 106.589 62.6213 106.539 62.9921 106.487L63.1431 107.653ZM19.8776 106.325L19.7977 106.908L19.7166 107.49C19.3342 107.433 18.9555 107.375 18.5819 107.316L18.6685 106.734L18.7562 106.153C19.1255 106.212 19.4994 106.269 19.8776 106.325ZM65.3315 106.734L65.4181 107.316C65.0445 107.375 64.6658 107.433 64.2834 107.49L64.2023 106.908L64.1224 106.325C64.5006 106.269 64.8745 106.212 65.2438 106.153L65.3315 106.734ZM17.6392 105.968L17.5459 106.548L17.4538 107.128C17.0698 107.063 16.6904 106.995 16.3168 106.926L16.4156 106.347L16.5155 105.768C16.8847 105.836 17.2594 105.903 17.6392 105.968ZM67.5844 106.347L67.6832 106.926C67.3096 106.995 66.9302 107.063 66.5462 107.128L66.4541 106.548L66.3608 105.968C66.7406 105.903 67.1153 105.836 67.4845 105.768L67.5844 106.347ZM15.3985 105.554L15.1853 106.71C14.8042 106.635 14.4285 106.557 14.0594 106.478L14.1738 105.903L14.2893 105.327C14.6528 105.404 15.0226 105.48 15.3985 105.554ZM69.8262 105.903L69.9405 106.478C69.5715 106.557 69.1958 106.635 68.8147 106.71L68.6015 105.554C68.9774 105.48 69.3472 105.404 69.7107 105.327L69.8262 105.903ZM13.1856 105.082L12.9391 106.231C12.5564 106.143 12.1811 106.053 11.8132 105.961L11.9454 105.389L12.0786 104.818C12.4399 104.908 12.809 104.996 13.1856 105.082ZM72.0546 105.389L72.1868 105.961C71.8189 106.053 71.4436 106.143 71.0609 106.231L70.8144 105.082C71.191 104.996 71.5601 104.908 71.9214 104.818L72.0546 105.389ZM10.9794 104.533L10.6929 105.672C10.3122 105.569 9.94039 105.463 9.57812 105.357L9.88902 104.226C10.2428 104.33 10.6064 104.432 10.9794 104.533ZM74.4219 105.357C74.0596 105.463 73.6878 105.569 73.3071 105.672L73.0206 104.533C73.3936 104.432 73.7572 104.33 74.111 104.226L74.4219 105.357ZM8.80866 103.893L8.63878 104.455L8.47001 105.016C8.09108 104.893 7.72354 104.769 7.36855 104.642L7.7394 103.53C8.08297 103.653 8.43992 103.774 8.80866 103.893ZM76.6314 104.642C76.2765 104.769 75.9089 104.893 75.53 105.016L75.3612 104.455L75.1913 103.893C75.5601 103.774 75.917 103.653 76.2606 103.53L76.6314 104.642ZM5.65641 102.693C5.98194 102.841 6.32568 102.988 6.6868 103.133L6.27598 104.23C5.90009 104.079 5.54058 103.925 5.19784 103.769L5.42657 103.23L5.65641 102.693ZM78.5734 103.23L78.8022 103.769C78.4594 103.925 78.0999 104.079 77.724 104.23L77.3132 103.133C77.6743 102.988 78.0181 102.841 78.3436 102.693L78.5734 103.23ZM3.70666 101.644C3.99534 101.831 4.31318 102.017 4.65933 102.202L4.39951 102.725L4.13858 103.247C3.76766 103.05 3.42184 102.847 3.10263 102.64L3.40464 102.142L3.70666 101.644ZM80.5954 102.142L80.8974 102.64C80.5782 102.847 80.2323 103.05 79.8614 103.247L79.6005 102.725L79.3407 102.202C79.6868 102.017 80.0047 101.831 80.2933 101.644L80.5954 102.142ZM2.11998 100.257C2.30328 100.5 2.54125 100.749 2.83726 101.001L2.4764 101.456L2.11443 101.91C1.76761 101.614 1.467 101.305 1.22283 100.981L2.11998 100.257ZM82.7772 100.981C82.533 101.305 82.2324 101.614 81.8856 101.91L81.5236 101.456L81.1627 101.001C81.4587 100.749 81.6967 100.5 81.88 100.257L82.7772 100.981ZM0.5 99C0.5 98.7499 0.533553 98.5029 0.59771 98.2613L1.69361 98.5738C1.65553 98.7173 1.63699 98.859 1.63699 99C1.63699 99.141 1.65553 99.2827 1.69361 99.4262L0.59771 99.7387C0.533552 99.4971 0.5 99.2501 0.5 99ZM82.363 99C82.363 98.859 82.3445 98.7173 82.3064 98.5738L83.4023 98.2613C83.4664 98.5029 83.5 98.7499 83.5 99C83.5 99.2501 83.4664 99.4971 83.4023 99.7387L82.3064 99.4262C82.3445 99.2827 82.363 99.141 82.363 99ZM2.4764 96.5437L2.83726 96.9986C2.54125 97.2512 2.30328 97.5 2.11998 97.7431L1.22283 97.0193C1.467 96.6954 1.76761 96.3857 2.11443 96.0898L2.4764 96.5437ZM81.8856 96.0898C82.2324 96.3857 82.533 96.6954 82.7772 97.0193L81.88 97.7431C81.6967 97.5 81.4587 97.2512 81.1627 96.9986L81.5236 96.5437L81.8856 96.0898ZM4.39951 95.2753L4.65933 95.798C4.31318 95.9825 3.99534 96.1689 3.70666 96.3564L3.40464 95.8578L3.10263 95.3603C3.42184 95.153 3.76766 94.9502 4.13858 94.7525L4.39951 95.2753ZM79.8614 94.7525C80.2323 94.9502 80.5782 95.153 80.8974 95.3603L80.5954 95.8578L80.2933 96.3564C80.0047 96.1689 79.6868 95.9825 79.3407 95.798L79.6005 95.2753L79.8614 94.7525ZM6.6868 94.8674C6.32568 95.012 5.98194 95.159 5.65641 95.3074L5.42657 94.7698L5.19784 94.2309C5.54058 94.0746 5.90009 93.9207 6.27598 93.7702L6.6868 94.8674ZM77.724 93.7702C78.0999 93.9207 78.4594 94.0746 78.8022 94.2309L78.5734 94.7698L78.3436 95.3074C78.0181 95.159 77.6743 95.012 77.3132 94.8674L77.724 93.7702ZM8.63878 93.545L8.80866 94.1068C8.43992 94.2259 8.08297 94.3471 7.7394 94.4699L7.36855 93.3578C7.72354 93.2309 8.09108 93.1067 8.47001 92.9844L8.63878 93.545ZM75.53 92.9844C75.9089 93.1067 76.2765 93.2309 76.6314 93.3578L76.2606 94.4699C75.917 94.3471 75.5601 94.2259 75.1913 94.1068L75.3612 93.545L75.53 92.9844ZM10.9794 93.4669C10.6064 93.5675 10.2428 93.6696 9.88902 93.7737L9.57812 92.6432C9.94039 92.5366 10.3122 92.4311 10.6929 92.3284L10.9794 93.4669ZM74.4219 92.6432L74.111 93.7737C73.7572 93.6696 73.3936 93.5675 73.0206 93.4669L73.3071 92.3284C73.6878 92.4311 74.0596 92.5366 74.4219 92.6432ZM13.1856 92.9177C12.809 93.0043 12.4399 93.0922 12.0786 93.182L11.9454 92.611L11.8132 92.0388C12.1811 91.9474 12.5564 91.8568 12.9391 91.7688L13.1856 92.9177ZM72.1868 92.0388L72.0546 92.611L71.9214 93.182C71.5601 93.0922 71.191 93.0043 70.8144 92.9177L71.0609 91.7688C71.4436 91.8568 71.8189 91.9474 72.1868 92.0388ZM15.3985 92.4455C15.0226 92.52 14.6528 92.5955 14.2893 92.673L14.1738 92.0974L14.0594 91.5218C14.4285 91.4431 14.8042 91.3653 15.1853 91.2898L15.3985 92.4455ZM69.9405 91.5218L69.8262 92.0974L69.7107 92.673C69.3472 92.5955 68.9774 92.52 68.6015 92.4455L68.8147 91.2898C69.1958 91.3653 69.5715 91.4431 69.9405 91.5218ZM17.5459 91.4517L17.6392 92.0319C17.2594 92.0971 16.8847 92.1638 16.5155 92.2318L16.4156 91.6528L16.3168 91.0738C16.6904 91.0049 17.0698 90.9374 17.4538 90.8716L17.5459 91.4517ZM67.6832 91.0738L67.5844 91.6528L67.4845 92.2318C67.1153 92.1638 66.7406 92.0971 66.3608 92.0319L66.4541 91.4517L66.5462 90.8716C66.9302 90.9374 67.3096 91.0049 67.6832 91.0738ZM19.7977 91.0921L19.8776 91.6746C19.4994 91.7309 19.1255 91.788 18.7562 91.847L18.6685 91.2656L18.5819 90.6843C18.9555 90.6246 19.3342 90.5665 19.7166 90.5097L19.7977 91.0921ZM65.4181 90.6843L65.3315 91.2656L65.2438 91.847C64.8745 91.788 64.5006 91.7309 64.1224 91.6746L64.2023 91.0921L64.2834 90.5097C64.6658 90.5665 65.0445 90.6246 65.4181 90.6843ZM22.1316 91.3621C21.7532 91.4108 21.3787 91.4614 21.0079 91.5126L20.8569 90.3465C21.2314 90.2947 21.6097 90.2439 21.9917 90.1949L22.1316 91.3621ZM63.1431 90.3465L62.9921 91.5126C62.6213 91.4614 62.2468 91.4108 61.8684 91.3621L62.0083 90.1949C62.3903 90.2439 62.7686 90.2947 63.1431 90.3465ZM24.3334 90.5074L24.3945 91.0921C24.013 91.1342 23.6344 91.1785 23.2597 91.2231L23.1942 90.6383L23.1298 90.0535C23.5077 90.0085 23.8889 89.9649 24.2735 89.9226L24.3334 90.5074ZM60.8702 90.0535L60.8058 90.6383L60.7403 91.2231C60.3655 91.1785 59.987 91.1342 59.6055 91.0921L59.6666 90.5074L59.7265 89.9226C60.1111 89.9649 60.4923 90.0085 60.8702 90.0535ZM26.654 90.8624C26.2736 90.8979 25.896 90.9346 25.5215 90.9727L25.4104 89.8019C25.7879 89.7636 26.1686 89.7263 26.5519 89.6905L26.654 90.8624ZM58.5896 89.8019L58.4785 90.9727C58.104 90.9346 57.7264 90.8979 57.346 90.8624L57.4481 89.6905C57.8314 89.7263 58.2121 89.7636 58.5896 89.8019ZM28.878 90.0823L28.9202 90.6693C28.5409 90.6988 28.1641 90.7293 27.7899 90.7613L27.7433 90.1753L27.6955 89.5882C28.0726 89.556 28.4526 89.5249 28.8347 89.4952L28.878 90.0823ZM56.3045 89.5882L56.2567 90.1753L56.2101 90.7613C55.8359 90.7293 55.4591 90.6988 55.0798 90.6693L55.122 90.0823L55.1653 89.4952C55.5474 89.5249 55.9274 89.556 56.3045 89.5882ZM31.1909 90.5097C30.8111 90.5336 30.4335 90.558 30.0583 90.5843L30.0194 89.9972L29.9817 89.4113C30.3596 89.3848 30.7396 89.3584 31.122 89.3343L31.1909 90.5097ZM54.0183 89.4113L53.9805 89.9972L53.9417 90.5843C53.5665 90.558 53.1889 90.5336 52.8091 90.5097L52.878 89.3343C53.2603 89.3584 53.6404 89.3848 54.0183 89.4113ZM33.4648 90.3821C33.0838 90.4008 32.7048 90.4208 32.3278 90.4419L32.2968 89.8548L32.2668 89.2665C32.6463 89.2453 33.028 89.2256 33.4115 89.2068L33.4648 90.3821ZM51.7332 89.2665L51.7032 89.8548L51.6722 90.4419C51.2952 90.4208 50.9162 90.4008 50.5352 90.3821L50.5885 89.2068C50.972 89.2256 51.3537 89.2453 51.7332 89.2665ZM35.7221 89.6985L35.741 90.2856C35.3591 90.2991 34.979 90.3145 34.6007 90.3304L34.5541 89.1551C34.935 89.1391 35.3177 89.1239 35.7022 89.1103L35.7221 89.6985ZM49.4459 89.1551L49.3993 90.3304C49.021 90.3145 48.6409 90.2991 48.259 90.2856L48.2779 89.6985L48.2978 89.1103C48.6823 89.1239 49.065 89.1391 49.4459 89.1551ZM38.0028 89.633L38.0161 90.2201C37.6344 90.2286 37.2532 90.2391 36.8747 90.25L36.8436 89.0735C37.2243 89.0626 37.6067 89.0534 37.9906 89.0448L38.0028 89.633ZM47.1564 89.0735L47.1253 90.25C46.7468 90.2391 46.3656 90.2286 45.9839 90.2201L45.9972 89.633L46.0094 89.0448C46.3933 89.0534 46.7757 89.0626 47.1564 89.0735ZM40.2912 90.1845C39.91 90.1881 39.5292 90.1934 39.1509 90.1994L39.1431 89.6112L39.1342 89.023C39.5148 89.0169 39.8968 89.0117 40.2801 89.008L40.2912 90.1845ZM44.8658 89.023L44.8569 89.6112L44.8491 90.1994C44.4708 90.1934 44.09 90.1881 43.7088 90.1845L43.7199 89.008C44.1032 89.0117 44.4852 89.0169 44.8658 89.023ZM42.5752 89.0011L42.5729 89.5894L42.5718 90.1776C42.3816 90.177 42.1909 90.1765 42 90.1765C41.8091 90.1765 41.6184 90.177 41.4282 90.1776L41.4271 89.5894L41.4248 89.0011C41.6162 89.0005 41.808 89 42 89C42.192 89 42.3838 89.0005 42.5752 89.0011Z" fill="url(#paint4_linear_34_227)"/>
<g filter="url(#filter0_f_34_227)">
<ellipse cx="41.5" cy="97" rx="37" ry="7" fill="url(#paint5_radial_34_227)"/>
</g>
<path d="M41.5 90.5C48.3759 90.5 54.5848 91.169 59.0605 92.2432C61.3024 92.7812 63.0825 93.415 64.2891 94.0996C65.5349 94.8066 66 95.4676 66 96C66 96.5324 65.5349 97.1934 64.2891 97.9004C63.0825 98.585 61.3024 99.2188 59.0605 99.7568C54.5848 100.831 48.3759 101.5 41.5 101.5C34.6241 101.5 28.4152 100.831 23.9395 99.7568C21.6976 99.2188 19.9175 98.585 18.7109 97.9004C17.4651 97.1934 17 96.5324 17 96C17 95.4676 17.4651 94.8066 18.7109 94.0996C19.9175 93.415 21.6976 92.7812 23.9395 92.2432C28.4152 91.169 34.6241 90.5 41.5 90.5Z" fill="url(#paint6_linear_34_227)" stroke="url(#paint7_linear_34_227)"/>
<path d="M41.5 0.5C50.5957 0.5 58.8196 1.05896 64.7598 1.95898C67.7337 2.40958 70.1133 2.9423 71.7383 3.52441C72.5537 3.81654 73.1497 4.1113 73.5322 4.39453C73.9274 4.68719 74 4.89414 74 5C74 5.10586 73.9274 5.31281 73.5322 5.60547C73.1497 5.8887 72.5537 6.18346 71.7383 6.47559C70.1133 7.0577 67.7337 7.59042 64.7598 8.04102C58.8196 8.94104 50.5957 9.5 41.5 9.5C32.4043 9.5 24.1804 8.94104 18.2402 8.04102C15.2663 7.59042 12.8867 7.0577 11.2617 6.47559C10.4463 6.18346 9.8503 5.8887 9.46777 5.60547C9.07263 5.31281 9 5.10586 9 5C9 4.89414 9.07263 4.68719 9.46777 4.39453C9.8503 4.1113 10.4463 3.81654 11.2617 3.52441C12.8867 2.9423 15.2663 2.40958 18.2402 1.95898C24.1804 1.05896 32.4043 0.5 41.5 0.5Z" fill="url(#paint8_radial_34_227)" stroke="url(#paint9_linear_34_227)"/>
<path d="M41.5 82.5C50.5957 82.5 58.8196 83.059 64.7598 83.959C67.7337 84.4096 70.1133 84.9423 71.7383 85.5244C72.5537 85.8165 73.1497 86.1113 73.5322 86.3945C73.9274 86.6872 74 86.8941 74 87C74 87.1059 73.9274 87.3128 73.5322 87.6055C73.1497 87.8887 72.5537 88.1835 71.7383 88.4756C70.1133 89.0577 67.7337 89.5904 64.7598 90.041C58.8196 90.941 50.5957 91.5 41.5 91.5C32.4043 91.5 24.1804 90.941 18.2402 90.041C15.2663 89.5904 12.8867 89.0577 11.2617 88.4756C10.4463 88.1835 9.8503 87.8887 9.46777 87.6055C9.07263 87.3128 9 87.1059 9 87C9 86.8941 9.07263 86.6872 9.46777 86.3945C9.8503 86.1113 10.4463 85.8165 11.2617 85.5244C12.8867 84.9423 15.2663 84.4096 18.2402 83.959C24.1804 83.059 32.4043 82.5 41.5 82.5Z" fill="url(#paint10_radial_34_227)" stroke="url(#paint11_linear_34_227)"/>
<path d="M41.5 85.5C51.699 85.5 60.9211 86.1707 67.583 87.251C70.9179 87.7918 73.5879 88.4321 75.4131 89.1318C76.3282 89.4827 77.0018 89.8374 77.4375 90.1826C77.8811 90.5341 78 90.81 78 91C78 91.19 77.8811 91.4659 77.4375 91.8174C77.0018 92.1626 76.3282 92.5173 75.4131 92.8682C73.5879 93.5679 70.9179 94.2082 67.583 94.749C60.9211 95.8293 51.699 96.5 41.5 96.5C31.301 96.5 22.0789 95.8293 15.417 94.749C12.0821 94.2082 9.41214 93.5679 7.58691 92.8682C6.67177 92.5173 5.99819 92.1626 5.5625 91.8174C5.11893 91.4659 5 91.19 5 91C5 90.81 5.11893 90.5341 5.5625 90.1826C5.99819 89.8374 6.67177 89.4827 7.58691 89.1318C9.41214 88.4321 12.0821 87.7918 15.417 87.251C22.0789 86.1707 31.301 85.5 41.5 85.5Z" fill="url(#paint12_radial_34_227)" stroke="url(#paint13_linear_34_227)"/>
<path d="M41.5 55.5C50.5957 55.5 58.8196 56.059 64.7598 56.959C67.7337 57.4096 70.1133 57.9423 71.7383 58.5244C72.5537 58.8165 73.1497 59.1113 73.5322 59.3945C73.9274 59.6872 74 59.8941 74 60C74 60.1059 73.9274 60.3128 73.5322 60.6055C73.1497 60.8887 72.5537 61.1835 71.7383 61.4756C70.1133 62.0577 67.7337 62.5904 64.7598 63.041C58.8196 63.941 50.5957 64.5 41.5 64.5C32.4043 64.5 24.1804 63.941 18.2402 63.041C15.2663 62.5904 12.8867 62.0577 11.2617 61.4756C10.4463 61.1835 9.8503 60.8887 9.46777 60.6055C9.07263 60.3128 9 60.1059 9 60C9 59.8941 9.07263 59.6872 9.46777 59.3945C9.8503 59.1113 10.4463 58.8165 11.2617 58.5244C12.8867 57.9423 15.2663 57.4096 18.2402 56.959C24.1804 56.059 32.4043 55.5 41.5 55.5Z" fill="url(#paint14_linear_34_227)" stroke="url(#paint15_linear_34_227)"/>
<defs>
<filter id="filter0_f_34_227" x="0.5" y="86" width="82" height="22" filterUnits="userSpaceOnUse" color-interpolation-filters="sRGB">
<feFlood flood-opacity="0" result="BackgroundImageFix"/>
<feBlend mode="normal" in="SourceGraphic" in2="BackgroundImageFix" result="shape"/>
<feGaussianBlur stdDeviation="2" result="effect1_foregroundBlur_34_227"/>
</filter>
<linearGradient id="paint0_linear_34_227" x1="74.5" y1="46" x2="8.5" y2="46" gradientUnits="userSpaceOnUse">
<stop stop-color="#2593FD"/>
<stop offset="0.129245" stop-color="#2593FD" stop-opacity="0.1"/>
<stop offset="0.312033" stop-color="#2593FD" stop-opacity="0.1"/>
<stop offset="0.469895" stop-color="#2593FD" stop-opacity="0.8"/>
<stop offset="0.696624" stop-color="#2593FD" stop-opacity="0.1"/>
<stop offset="0.901615" stop-color="#2593FD" stop-opacity="0.1"/>
<stop offset="1" stop-color="#2593FD"/>
</linearGradient>
<linearGradient id="paint1_linear_34_227" x1="74.5" y1="46" x2="8.5" y2="46" gradientUnits="userSpaceOnUse">
<stop stop-color="#2593FD"/>
<stop offset="0.129245" stop-color="#2593FD" stop-opacity="0.6"/>
<stop offset="0.312033" stop-color="#2ABCFF" stop-opacity="0.8"/>
<stop offset="0.469895" stop-color="#2ABCFF"/>
<stop offset="0.696624" stop-color="#2ABCFF" stop-opacity="0.8"/>
<stop offset="0.901615" stop-color="#2593FD" stop-opacity="0.6"/>
<stop offset="1" stop-color="#2593FD"/>
</linearGradient>
<linearGradient id="paint2_linear_34_227" x1="41.5" y1="89.7317" x2="41.5" y2="103.268" gradientUnits="userSpaceOnUse">
<stop stop-color="#2593FD" stop-opacity="0"/>
<stop offset="0.692308" stop-color="#2593FD"/>
<stop offset="1" stop-color="#82E4FF"/>
</linearGradient>
<linearGradient id="paint3_linear_34_227" x1="42" y1="89" x2="42" y2="107" gradientUnits="userSpaceOnUse">
<stop stop-color="#2593FD" stop-opacity="0"/>
<stop offset="0.692308" stop-color="#2593FD"/>
<stop offset="1" stop-color="#82E4FF"/>
</linearGradient>
<linearGradient id="paint4_linear_34_227" x1="42" y1="89.5882" x2="42" y2="108.412" gradientUnits="userSpaceOnUse">
<stop offset="0.216346" stop-color="#2593FD" stop-opacity="0"/>
<stop offset="0.644231" stop-color="#5AAEFF"/>
<stop offset="1" stop-color="#82C7FF"/>
</linearGradient>
<radialGradient id="paint5_radial_34_227" cx="0" cy="0" r="1" gradientUnits="userSpaceOnUse" gradientTransform="translate(41.5 97) scale(37 7)">
<stop stop-color="#2593FD" stop-opacity="0"/>
<stop offset="0.5" stop-color="#2593FD" stop-opacity="0.4"/>
<stop offset="1" stop-color="#2593FD" stop-opacity="0.8"/>
</radialGradient>
<linearGradient id="paint6_linear_34_227" x1="41.5" y1="90" x2="41.5" y2="102" gradientUnits="userSpaceOnUse">
<stop stop-color="#2593FD" stop-opacity="0"/>
<stop offset="0.5" stop-color="#2593FD" stop-opacity="0.2"/>
<stop offset="1" stop-color="#2593FD" stop-opacity="0.6"/>
</linearGradient>
<linearGradient id="paint7_linear_34_227" x1="41.5" y1="90" x2="41.5" y2="102" gradientUnits="userSpaceOnUse">
<stop stop-color="#2593FD" stop-opacity="0"/>
<stop offset="0.692308" stop-color="#2593FD" stop-opacity="0"/>
<stop offset="1" stop-color="#82E4FF" stop-opacity="0.6"/>
</linearGradient>
<radialGradient id="paint8_radial_34_227" cx="0" cy="0" r="1" gradientUnits="userSpaceOnUse" gradientTransform="translate(41.5 5) scale(33 5)">
<stop stop-color="#02B1F4"/>
<stop offset="0.774038" stop-color="#02B1F4" stop-opacity="0"/>
<stop offset="1" stop-color="#02B1F4" stop-opacity="0.2"/>
</radialGradient>
<linearGradient id="paint9_linear_34_227" x1="41.5" y1="0" x2="41.5" y2="10" gradientUnits="userSpaceOnUse">
<stop stop-color="#2593FD" stop-opacity="0"/>
<stop offset="0.692308" stop-color="#2593FD"/>
<stop offset="1" stop-color="#82E4FF"/>
</linearGradient>
<radialGradient id="paint10_radial_34_227" cx="0" cy="0" r="1" gradientUnits="userSpaceOnUse" gradientTransform="translate(41.5 87) scale(33 5)">
<stop stop-color="#2593FD" stop-opacity="0.4"/>
<stop offset="1" stop-color="#2593FD" stop-opacity="0.8"/>
</radialGradient>
<linearGradient id="paint11_linear_34_227" x1="41.5" y1="82" x2="41.5" y2="92" gradientUnits="userSpaceOnUse">
<stop stop-color="#2593FD" stop-opacity="0.5"/>
<stop offset="0.692308" stop-color="#2593FD"/>
<stop offset="1" stop-color="#82E4FF"/>
</linearGradient>
<radialGradient id="paint12_radial_34_227" cx="0" cy="0" r="1" gradientUnits="userSpaceOnUse" gradientTransform="translate(41.5 91) scale(37 6)">
<stop stop-color="#2593FD" stop-opacity="0"/>
<stop offset="0.5" stop-color="#2593FD" stop-opacity="0.4"/>
<stop offset="1" stop-color="#2593FD" stop-opacity="0.8"/>
</radialGradient>
<linearGradient id="paint13_linear_34_227" x1="41.5" y1="85" x2="41.5" y2="97" gradientUnits="userSpaceOnUse">
<stop stop-color="#2593FD" stop-opacity="0"/>
<stop offset="0.692308" stop-color="#2593FD"/>
<stop offset="1" stop-color="#82E4FF"/>
</linearGradient>
<linearGradient id="paint14_linear_34_227" x1="41.5" y1="55" x2="41.5" y2="65" gradientUnits="userSpaceOnUse">
<stop stop-color="#2593FD" stop-opacity="0.2"/>
<stop offset="1" stop-color="#2593FD"/>
</linearGradient>
<linearGradient id="paint15_linear_34_227" x1="41.5" y1="55" x2="41.5" y2="65" gradientUnits="userSpaceOnUse">
<stop stop-color="#2593FD" stop-opacity="0.5"/>
<stop offset="0.692308" stop-color="#2593FD"/>
<stop offset="1" stop-color="#82E4FF"/>
</linearGradient>
</defs>
</svg>
