<svg width="24" height="24" viewBox="0 0 24 24" fill="none" xmlns="http://www.w3.org/2000/svg">
<path d="M15.5 11C17.433 11 19 9.433 19 7.5C19 5.567 17.433 4 15.5 4C13.567 4 12 5.567 12 7.5C12 9.433 13.567 11 15.5 11Z" fill="url(#paint0_linear_732_3559)"/>
<path d="M11.9 14C14.3853 14 16.4 11.9853 16.4 9.5C16.4 7.01472 14.3853 5 11.9 5C9.41472 5 7.4 7.01472 7.4 9.5C7.4 11.9853 9.41472 14 11.9 14Z" fill="white"/>
<mask id="mask0_732_3559" style="mask-type:luminance" maskUnits="userSpaceOnUse" x="7" y="5" width="10" height="9">
<path d="M11.9 14C14.3853 14 16.4 11.9853 16.4 9.5C16.4 7.01472 14.3853 5 11.9 5C9.41472 5 7.4 7.01472 7.4 9.5C7.4 11.9853 9.41472 14 11.9 14Z" fill="white"/>
</mask>
<g mask="url(#mask0_732_3559)">
<path d="M16.3 5H7.4V14H16.3V5Z" fill="#CFEBF8"/>
</g>
<mask id="mask1_732_3559" style="mask-type:luminance" maskUnits="userSpaceOnUse" x="7" y="5" width="10" height="9">
<path d="M11.9 14C14.3853 14 16.4 11.9853 16.4 9.5C16.4 7.01472 14.3853 5 11.9 5C9.41472 5 7.4 7.01472 7.4 9.5C7.4 11.9853 9.41472 14 11.9 14Z" fill="white"/>
</mask>
<g mask="url(#mask1_732_3559)">
<path d="M11.9 13.6C14.1644 13.6 16 11.7644 16 9.5C16 7.23563 14.1644 5.4 11.9 5.4C9.63563 5.4 7.8 7.23563 7.8 9.5C7.8 11.7644 9.63563 13.6 11.9 13.6Z" fill="#CFEBF8"/>
</g>
<mask id="mask2_732_3559" style="mask-type:luminance" maskUnits="userSpaceOnUse" x="7" y="5" width="10" height="9">
<path d="M11.9 14C14.3853 14 16.4 11.9853 16.4 9.5C16.4 7.01472 14.3853 5 11.9 5C9.41472 5 7.4 7.01472 7.4 9.5C7.4 11.9853 9.41472 14 11.9 14Z" fill="white"/>
</mask>
<g mask="url(#mask2_732_3559)">
<path d="M11.9 11.6C13.0046 11.6 13.9 10.6598 13.9 9.5C13.9 8.3402 13.0046 7.4 11.9 7.4C10.7954 7.4 9.9 8.3402 9.9 9.5C9.9 10.6598 10.7954 11.6 11.9 11.6Z" fill="#CFEBF8"/>
</g>
<path d="M16.3 15C18.3435 15 20 13.3435 20 11.3C20 9.25655 18.3435 7.6 16.3 7.6C14.2565 7.6 12.6 9.25655 12.6 11.3C12.6 13.3435 14.2565 15 16.3 15Z" fill="white"/>
<mask id="mask3_732_3559" style="mask-type:luminance" maskUnits="userSpaceOnUse" x="12" y="7" width="8" height="8">
<path d="M16.3 15C18.3435 15 20 13.3435 20 11.3C20 9.25655 18.3435 7.6 16.3 7.6C14.2565 7.6 12.6 9.25655 12.6 11.3C12.6 13.3435 14.2565 15 16.3 15Z" fill="white"/>
</mask>
<g mask="url(#mask3_732_3559)">
<path d="M20 7.6H12.6V15H20V7.6Z" fill="#CFEBF8"/>
</g>
<mask id="mask4_732_3559" style="mask-type:luminance" maskUnits="userSpaceOnUse" x="12" y="7" width="8" height="8">
<path d="M16.3 15C18.3435 15 20 13.3435 20 11.3C20 9.25655 18.3435 7.6 16.3 7.6C14.2565 7.6 12.6 9.25655 12.6 11.3C12.6 13.3435 14.2565 15 16.3 15Z" fill="white"/>
</mask>
<g mask="url(#mask4_732_3559)">
<path d="M16.1 17.6C18.751 17.6 20.9 15.451 20.9 12.8C20.9 10.149 18.751 8 16.1 8C13.449 8 11.3 10.149 11.3 12.8C11.3 15.451 13.449 17.6 16.1 17.6Z" fill="#CFEBF8"/>
</g>
<mask id="mask5_732_3559" style="mask-type:luminance" maskUnits="userSpaceOnUse" x="12" y="7" width="8" height="8">
<path d="M16.3 15C18.3435 15 20 13.3435 20 11.3C20 9.25655 18.3435 7.6 16.3 7.6C14.2565 7.6 12.6 9.25655 12.6 11.3C12.6 13.3435 14.2565 15 16.3 15Z" fill="white"/>
</mask>
<g mask="url(#mask5_732_3559)">
<path d="M16.1 15.2C17.4255 15.2 18.5 14.1255 18.5 12.8C18.5 11.4745 17.4255 10.4 16.1 10.4C14.7745 10.4 13.7 11.4745 13.7 12.8C13.7 14.1255 14.7745 15.2 16.1 15.2Z" fill="#CFEBF8"/>
</g>
<path d="M7 15C8.65685 15 10 13.6569 10 12C10 10.3431 8.65685 9 7 9C5.34315 9 4 10.3431 4 12C4 13.6569 5.34315 15 7 15Z" fill="white"/>
<mask id="mask6_732_3559" style="mask-type:luminance" maskUnits="userSpaceOnUse" x="4" y="9" width="6" height="6">
<path d="M7 15C8.65685 15 10 13.6569 10 12C10 10.3431 8.65685 9 7 9C5.34315 9 4 10.3431 4 12C4 13.6569 5.34315 15 7 15Z" fill="white"/>
</mask>
<g mask="url(#mask6_732_3559)">
<path d="M9.9 9H4V15H9.9V9Z" fill="#CFEBF8"/>
</g>
<mask id="mask7_732_3559" style="mask-type:luminance" maskUnits="userSpaceOnUse" x="4" y="9" width="6" height="6">
<path d="M7 15C8.65685 15 10 13.6569 10 12C10 10.3431 8.65685 9 7 9C5.34315 9 4 10.3431 4 12C4 13.6569 5.34315 15 7 15Z" fill="white"/>
</mask>
<g mask="url(#mask7_732_3559)">
<path d="M7.6 16.2C9.42254 16.2 10.9 14.7225 10.9 12.9C10.9 11.0775 9.42254 9.6 7.6 9.6C5.77746 9.6 4.3 11.0775 4.3 12.9C4.3 14.7225 5.77746 16.2 7.6 16.2Z" fill="#CFEBF8"/>
</g>
<mask id="mask8_732_3559" style="mask-type:luminance" maskUnits="userSpaceOnUse" x="4" y="9" width="6" height="6">
<path d="M7 15C8.65685 15 10 13.6569 10 12C10 10.3431 8.65685 9 7 9C5.34315 9 4 10.3431 4 12C4 13.6569 5.34315 15 7 15Z" fill="white"/>
</mask>
<g mask="url(#mask8_732_3559)">
<path d="M7.6 14.5C8.48366 14.5 9.2 13.7837 9.2 12.9C9.2 12.0163 8.48366 11.3 7.6 11.3C6.71634 11.3 6 12.0163 6 12.9C6 13.7837 6.71634 14.5 7.6 14.5Z" fill="#CFEBF8"/>
</g>
<path d="M11.7 15L10 16.7L12.1 17.2L10 20L15 17.2L12.7 16.4L14.5 15H11.7Z" fill="url(#paint1_radial_732_3559)"/>
<path d="M17.1 16.6C16.9 17 16.5 17.1 16.1 17C15.7 16.8 15.6 16.4 15.7 16C16.1 15.2 17.1 14.7 17.1 14.7C17.1 14.7 17.5 15.8 17.1 16.6Z" fill="url(#paint2_linear_732_3559)"/>
<path d="M16.1 19.6C15.9 20 15.5 20.1 15.1 20C14.7 19.8 14.6 19.4 14.7 19C15.1 18.2 16.1 17.7 16.1 17.7C16.1 17.7 16.5 18.8 16.1 19.6Z" fill="url(#paint3_linear_732_3559)"/>
<defs>
<linearGradient id="paint0_linear_732_3559" x1="13.113" y1="10.0597" x2="17.887" y2="4.9403" gradientUnits="userSpaceOnUse">
<stop offset="0.00558659" stop-color="#E89C42"/>
<stop offset="1" stop-color="#F5D12A"/>
</linearGradient>
<radialGradient id="paint1_radial_732_3559" cx="0" cy="0" r="1" gradientUnits="userSpaceOnUse" gradientTransform="translate(12.5005 17.5) scale(2.52053 2.4801)">
<stop stop-color="#F5C445"/>
<stop offset="0.4782" stop-color="#F5C244"/>
<stop offset="0.6806" stop-color="#F4BD44"/>
<stop offset="0.8308" stop-color="#F3B443"/>
<stop offset="0.9545" stop-color="#F2A741"/>
<stop offset="1" stop-color="#F1A140"/>
</radialGradient>
<linearGradient id="paint2_linear_732_3559" x1="15.9818" y1="15.5185" x2="17.3242" y2="16.1401" gradientUnits="userSpaceOnUse">
<stop stop-color="#178BC9"/>
<stop offset="0.305" stop-color="#399AD2"/>
<stop offset="0.9266" stop-color="#6EC3E7"/>
<stop offset="1" stop-color="#75C8EA"/>
</linearGradient>
<linearGradient id="paint3_linear_732_3559" x1="14.9818" y1="18.5184" x2="16.3242" y2="19.14" gradientUnits="userSpaceOnUse">
<stop stop-color="#178BC9"/>
<stop offset="0.305" stop-color="#399AD2"/>
<stop offset="0.9266" stop-color="#6EC3E7"/>
<stop offset="1" stop-color="#75C8EA"/>
</linearGradient>
</defs>
</svg>
