<svg width="24" height="24" viewBox="0 0 24 24" fill="none" xmlns="http://www.w3.org/2000/svg">
<path d="M15.5 12C17.433 12 19 10.433 19 8.5C19 6.567 17.433 5 15.5 5C13.567 5 12 6.567 12 8.5C12 10.433 13.567 12 15.5 12Z" fill="url(#paint0_linear_732_3859)"/>
<path d="M11.9 15C14.3853 15 16.4 12.9853 16.4 10.5C16.4 8.01472 14.3853 6 11.9 6C9.41471 6 7.39999 8.01472 7.39999 10.5C7.39999 12.9853 9.41471 15 11.9 15Z" fill="white"/>
<mask id="mask0_732_3859" style="mask-type:luminance" maskUnits="userSpaceOnUse" x="7" y="6" width="10" height="9">
<path d="M11.9 15C14.3853 15 16.4 12.9853 16.4 10.5C16.4 8.01472 14.3853 6 11.9 6C9.41471 6 7.39999 8.01472 7.39999 10.5C7.39999 12.9853 9.41471 15 11.9 15Z" fill="white"/>
</mask>
<g mask="url(#mask0_732_3859)">
<path d="M16.3 6H7.39999V15H16.3V6Z" fill="#CFEBF8"/>
</g>
<mask id="mask1_732_3859" style="mask-type:luminance" maskUnits="userSpaceOnUse" x="7" y="6" width="10" height="9">
<path d="M11.9 15C14.3853 15 16.4 12.9853 16.4 10.5C16.4 8.01472 14.3853 6 11.9 6C9.41471 6 7.39999 8.01472 7.39999 10.5C7.39999 12.9853 9.41471 15 11.9 15Z" fill="white"/>
</mask>
<g mask="url(#mask1_732_3859)">
<path d="M11.9 14.6C14.1644 14.6 16 12.7644 16 10.5C16 8.23563 14.1644 6.4 11.9 6.4C9.63562 6.4 7.79999 8.23563 7.79999 10.5C7.79999 12.7644 9.63562 14.6 11.9 14.6Z" fill="#CFEBF8"/>
</g>
<mask id="mask2_732_3859" style="mask-type:luminance" maskUnits="userSpaceOnUse" x="7" y="6" width="10" height="9">
<path d="M11.9 15C14.3853 15 16.4 12.9853 16.4 10.5C16.4 8.01472 14.3853 6 11.9 6C9.41471 6 7.39999 8.01472 7.39999 10.5C7.39999 12.9853 9.41471 15 11.9 15Z" fill="white"/>
</mask>
<g mask="url(#mask2_732_3859)">
<path d="M11.9 12.6C13.0046 12.6 13.9 11.6598 13.9 10.5C13.9 9.3402 13.0046 8.4 11.9 8.4C10.7954 8.4 9.89999 9.3402 9.89999 10.5C9.89999 11.6598 10.7954 12.6 11.9 12.6Z" fill="#CFEBF8"/>
</g>
<path d="M16.3 16C18.3435 16 20 14.3435 20 12.3C20 10.2565 18.3435 8.6 16.3 8.6C14.2566 8.6 12.6 10.2565 12.6 12.3C12.6 14.3435 14.2566 16 16.3 16Z" fill="white"/>
<mask id="mask3_732_3859" style="mask-type:luminance" maskUnits="userSpaceOnUse" x="12" y="8" width="8" height="8">
<path d="M16.3 16C18.3435 16 20 14.3435 20 12.3C20 10.2565 18.3435 8.6 16.3 8.6C14.2566 8.6 12.6 10.2565 12.6 12.3C12.6 14.3435 14.2566 16 16.3 16Z" fill="white"/>
</mask>
<g mask="url(#mask3_732_3859)">
<path d="M20 8.6H12.6V16H20V8.6Z" fill="#CFEBF8"/>
</g>
<mask id="mask4_732_3859" style="mask-type:luminance" maskUnits="userSpaceOnUse" x="12" y="8" width="8" height="8">
<path d="M16.3 16C18.3435 16 20 14.3435 20 12.3C20 10.2565 18.3435 8.6 16.3 8.6C14.2566 8.6 12.6 10.2565 12.6 12.3C12.6 14.3435 14.2566 16 16.3 16Z" fill="white"/>
</mask>
<g mask="url(#mask4_732_3859)">
<path d="M16.1 18.6C18.751 18.6 20.9 16.451 20.9 13.8C20.9 11.149 18.751 9 16.1 9C13.4491 9 11.3 11.149 11.3 13.8C11.3 16.451 13.4491 18.6 16.1 18.6Z" fill="#CFEBF8"/>
</g>
<mask id="mask5_732_3859" style="mask-type:luminance" maskUnits="userSpaceOnUse" x="12" y="8" width="8" height="8">
<path d="M16.3 16C18.3435 16 20 14.3435 20 12.3C20 10.2565 18.3435 8.6 16.3 8.6C14.2566 8.6 12.6 10.2565 12.6 12.3C12.6 14.3435 14.2566 16 16.3 16Z" fill="white"/>
</mask>
<g mask="url(#mask5_732_3859)">
<path d="M16.1 16.2C17.4255 16.2 18.5 15.1255 18.5 13.8C18.5 12.4745 17.4255 11.4 16.1 11.4C14.7745 11.4 13.7 12.4745 13.7 13.8C13.7 15.1255 14.7745 16.2 16.1 16.2Z" fill="#CFEBF8"/>
</g>
<path d="M7 16C8.65685 16 10 14.6569 10 13C10 11.3431 8.65685 10 7 10C5.34315 10 4 11.3431 4 13C4 14.6569 5.34315 16 7 16Z" fill="white"/>
<mask id="mask6_732_3859" style="mask-type:luminance" maskUnits="userSpaceOnUse" x="4" y="10" width="6" height="6">
<path d="M7 16C8.65685 16 10 14.6569 10 13C10 11.3431 8.65685 10 7 10C5.34315 10 4 11.3431 4 13C4 14.6569 5.34315 16 7 16Z" fill="white"/>
</mask>
<g mask="url(#mask6_732_3859)">
<path d="M9.9 10H4V16H9.9V10Z" fill="#CFEBF8"/>
</g>
<mask id="mask7_732_3859" style="mask-type:luminance" maskUnits="userSpaceOnUse" x="4" y="10" width="6" height="6">
<path d="M7 16C8.65685 16 10 14.6569 10 13C10 11.3431 8.65685 10 7 10C5.34315 10 4 11.3431 4 13C4 14.6569 5.34315 16 7 16Z" fill="white"/>
</mask>
<g mask="url(#mask7_732_3859)">
<path d="M7.59999 17.2C9.42253 17.2 10.9 15.7225 10.9 13.9C10.9 12.0775 9.42253 10.6 7.59999 10.6C5.77745 10.6 4.29999 12.0775 4.29999 13.9C4.29999 15.7225 5.77745 17.2 7.59999 17.2Z" fill="#CFEBF8"/>
</g>
<mask id="mask8_732_3859" style="mask-type:luminance" maskUnits="userSpaceOnUse" x="4" y="10" width="6" height="6">
<path d="M7 16C8.65685 16 10 14.6569 10 13C10 11.3431 8.65685 10 7 10C5.34315 10 4 11.3431 4 13C4 14.6569 5.34315 16 7 16Z" fill="white"/>
</mask>
<g mask="url(#mask8_732_3859)">
<path d="M7.6 15.5C8.48366 15.5 9.2 14.7837 9.2 13.9C9.2 13.0163 8.48366 12.3 7.6 12.3C6.71634 12.3 6 13.0163 6 13.9C6 14.7837 6.71634 15.5 7.6 15.5Z" fill="#CFEBF8"/>
</g>
<path d="M16.5 17H14.5C14.2 17 14 16.8 14 16.5C14 16.2 14.2 16 14.5 16H16.5C16.8 16 17 16.2 17 16.5C17 16.8 16.8 17 16.5 17Z" fill="url(#paint1_linear_732_3859)"/>
<path d="M11.5 19H9.5C9.2 19 9 18.8 9 18.5C9 18.2 9.2 18 9.5 18H11.5C11.8 18 12 18.2 12 18.5C12 18.8 11.8 19 11.5 19Z" fill="url(#paint2_linear_732_3859)"/>
<path d="M15.5 19H13.5C13.2 19 13 18.8 13 18.5C13 18.2 13.2 18 13.5 18H15.5C15.8 18 16 18.2 16 18.5C16 18.8 15.8 19 15.5 19Z" fill="url(#paint3_linear_732_3859)"/>
<path d="M12.5 17H8.5C8.2 17 8 16.8 8 16.5C8 16.2 8.2 16 8.5 16H12.5C12.8 16 13 16.2 13 16.5C13 16.8 12.8 17 12.5 17Z" fill="url(#paint4_linear_732_3859)"/>
<defs>
<linearGradient id="paint0_linear_732_3859" x1="13.113" y1="11.0597" x2="17.887" y2="5.9403" gradientUnits="userSpaceOnUse">
<stop offset="0.00558659" stop-color="#E89C42"/>
<stop offset="1" stop-color="#F5D12A"/>
</linearGradient>
<linearGradient id="paint1_linear_732_3859" x1="14" y1="16.5" x2="17" y2="16.5" gradientUnits="userSpaceOnUse">
<stop stop-color="#F0F0F0"/>
<stop offset="1" stop-color="#8EC4EB"/>
</linearGradient>
<linearGradient id="paint2_linear_732_3859" x1="9" y1="18.5" x2="12" y2="18.5" gradientUnits="userSpaceOnUse">
<stop stop-color="#F0F0F0"/>
<stop offset="1" stop-color="#8EC4EB"/>
</linearGradient>
<linearGradient id="paint3_linear_732_3859" x1="13" y1="18.5" x2="16" y2="18.5" gradientUnits="userSpaceOnUse">
<stop stop-color="#F0F0F0"/>
<stop offset="1" stop-color="#8EC4EB"/>
</linearGradient>
<linearGradient id="paint4_linear_732_3859" x1="8" y1="16.5" x2="13" y2="16.5" gradientUnits="userSpaceOnUse">
<stop stop-color="#F0F0F0"/>
<stop offset="1" stop-color="#8EC4EB"/>
</linearGradient>
</defs>
</svg>
