<svg width="24" height="24" viewBox="0 0 24 24" fill="none" xmlns="http://www.w3.org/2000/svg">
<path d="M14.5 15C16.433 15 18 13.433 18 11.5C18 9.567 16.433 8 14.5 8C12.567 8 11 9.567 11 11.5C11 13.433 12.567 15 14.5 15Z" fill="url(#paint0_linear_732_2727)"/>
<path d="M14.5 7C14.2 7 14 6.8 14 6.5V5.5C14 5.2 14.2 5 14.5 5C14.8 5 15 5.2 15 5.5V6.5C15 6.8 14.8 7 14.5 7Z" fill="#F5D12A"/>
<path d="M11.3 8.3C11.1 8.5 10.8 8.5 10.6 8.3L9.9 7.6C9.7 7.4 9.7 7.1 9.9 6.9C10.1 6.7 10.4 6.7 10.6 6.9L11.3 7.6C11.5 7.8 11.5 8.1 11.3 8.3Z" fill="#F5D12A"/>
<path d="M19 11.5C19 11.2 19.2 11 19.5 11H20.5C20.8 11 21 11.2 21 11.5C21 11.8 20.8 12 20.5 12H19.5C19.2 12 19 11.8 19 11.5Z" fill="#F5D12A"/>
<path d="M17.7 8.3C17.5 8.1 17.5 7.8 17.7 7.6L18.4 6.9C18.6 6.7 18.9 6.7 19.1 6.9C19.3 7.1 19.3 7.4 19.1 7.6L18.4 8.3C18.2 8.5 17.9 8.5 17.7 8.3Z" fill="#F5D12A"/>
<path d="M10.9 18C13.3853 18 15.4 15.9853 15.4 13.5C15.4 11.0147 13.3853 9 10.9 9C8.41471 9 6.39999 11.0147 6.39999 13.5C6.39999 15.9853 8.41471 18 10.9 18Z" fill="white"/>
<mask id="mask0_732_2727" style="mask-type:luminance" maskUnits="userSpaceOnUse" x="6" y="9" width="10" height="9">
<path d="M10.9 18C13.3853 18 15.4 15.9853 15.4 13.5C15.4 11.0147 13.3853 9 10.9 9C8.41471 9 6.39999 11.0147 6.39999 13.5C6.39999 15.9853 8.41471 18 10.9 18Z" fill="white"/>
</mask>
<g mask="url(#mask0_732_2727)">
<path d="M15.3 9H6.39999V18H15.3V9Z" fill="#CFEBF8"/>
</g>
<mask id="mask1_732_2727" style="mask-type:luminance" maskUnits="userSpaceOnUse" x="6" y="9" width="10" height="9">
<path d="M10.9 18C13.3853 18 15.4 15.9853 15.4 13.5C15.4 11.0147 13.3853 9 10.9 9C8.41471 9 6.39999 11.0147 6.39999 13.5C6.39999 15.9853 8.41471 18 10.9 18Z" fill="white"/>
</mask>
<g mask="url(#mask1_732_2727)">
<path d="M10.9 17.6C13.1644 17.6 15 15.7644 15 13.5C15 11.2356 13.1644 9.39999 10.9 9.39999C8.63562 9.39999 6.79999 11.2356 6.79999 13.5C6.79999 15.7644 8.63562 17.6 10.9 17.6Z" fill="#CFEBF8"/>
</g>
<mask id="mask2_732_2727" style="mask-type:luminance" maskUnits="userSpaceOnUse" x="6" y="9" width="10" height="9">
<path d="M10.9 18C13.3853 18 15.4 15.9853 15.4 13.5C15.4 11.0147 13.3853 9 10.9 9C8.41471 9 6.39999 11.0147 6.39999 13.5C6.39999 15.9853 8.41471 18 10.9 18Z" fill="white"/>
</mask>
<g mask="url(#mask2_732_2727)">
<path d="M10.9 15.6C12.0046 15.6 12.9 14.6598 12.9 13.5C12.9 12.3402 12.0046 11.4 10.9 11.4C9.79542 11.4 8.89999 12.3402 8.89999 13.5C8.89999 14.6598 9.79542 15.6 10.9 15.6Z" fill="#CFEBF8"/>
</g>
<path d="M15.3 19C17.3435 19 19 17.3435 19 15.3C19 13.2566 17.3435 11.6 15.3 11.6C13.2566 11.6 11.6 13.2566 11.6 15.3C11.6 17.3435 13.2566 19 15.3 19Z" fill="white"/>
<mask id="mask3_732_2727" style="mask-type:luminance" maskUnits="userSpaceOnUse" x="11" y="11" width="8" height="8">
<path d="M15.3 19C17.3435 19 19 17.3435 19 15.3C19 13.2566 17.3435 11.6 15.3 11.6C13.2566 11.6 11.6 13.2566 11.6 15.3C11.6 17.3435 13.2566 19 15.3 19Z" fill="white"/>
</mask>
<g mask="url(#mask3_732_2727)">
<path d="M19 11.6H11.6V19H19V11.6Z" fill="#CFEBF8"/>
</g>
<mask id="mask4_732_2727" style="mask-type:luminance" maskUnits="userSpaceOnUse" x="11" y="11" width="8" height="8">
<path d="M15.3 19C17.3435 19 19 17.3435 19 15.3C19 13.2566 17.3435 11.6 15.3 11.6C13.2566 11.6 11.6 13.2566 11.6 15.3C11.6 17.3435 13.2566 19 15.3 19Z" fill="white"/>
</mask>
<g mask="url(#mask4_732_2727)">
<path d="M15.1 21.6C17.751 21.6 19.9 19.451 19.9 16.8C19.9 14.149 17.751 12 15.1 12C12.449 12 10.3 14.149 10.3 16.8C10.3 19.451 12.449 21.6 15.1 21.6Z" fill="#CFEBF8"/>
</g>
<mask id="mask5_732_2727" style="mask-type:luminance" maskUnits="userSpaceOnUse" x="11" y="11" width="8" height="8">
<path d="M15.3 19C17.3435 19 19 17.3435 19 15.3C19 13.2566 17.3435 11.6 15.3 11.6C13.2566 11.6 11.6 13.2566 11.6 15.3C11.6 17.3435 13.2566 19 15.3 19Z" fill="white"/>
</mask>
<g mask="url(#mask5_732_2727)">
<path d="M15.1 19.2C16.4255 19.2 17.5 18.1255 17.5 16.8C17.5 15.4745 16.4255 14.4 15.1 14.4C13.7745 14.4 12.7 15.4745 12.7 16.8C12.7 18.1255 13.7745 19.2 15.1 19.2Z" fill="#CFEBF8"/>
</g>
<path d="M6 19C7.65685 19 9 17.6569 9 16C9 14.3431 7.65685 13 6 13C4.34315 13 3 14.3431 3 16C3 17.6569 4.34315 19 6 19Z" fill="white"/>
<mask id="mask6_732_2727" style="mask-type:luminance" maskUnits="userSpaceOnUse" x="3" y="13" width="6" height="6">
<path d="M6 19C7.65685 19 9 17.6569 9 16C9 14.3431 7.65685 13 6 13C4.34315 13 3 14.3431 3 16C3 17.6569 4.34315 19 6 19Z" fill="white"/>
</mask>
<g mask="url(#mask6_732_2727)">
<path d="M8.9 13H3V19H8.9V13Z" fill="#CFEBF8"/>
</g>
<mask id="mask7_732_2727" style="mask-type:luminance" maskUnits="userSpaceOnUse" x="3" y="13" width="6" height="6">
<path d="M6 19C7.65685 19 9 17.6569 9 16C9 14.3431 7.65685 13 6 13C4.34315 13 3 14.3431 3 16C3 17.6569 4.34315 19 6 19Z" fill="white"/>
</mask>
<g mask="url(#mask7_732_2727)">
<path d="M6.6 20.2C8.42254 20.2 9.9 18.7225 9.9 16.9C9.9 15.0775 8.42254 13.6 6.6 13.6C4.77746 13.6 3.3 15.0775 3.3 16.9C3.3 18.7225 4.77746 20.2 6.6 20.2Z" fill="#CFEBF8"/>
</g>
<mask id="mask8_732_2727" style="mask-type:luminance" maskUnits="userSpaceOnUse" x="3" y="13" width="6" height="6">
<path d="M6 19C7.65685 19 9 17.6569 9 16C9 14.3431 7.65685 13 6 13C4.34315 13 3 14.3431 3 16C3 17.6569 4.34315 19 6 19Z" fill="white"/>
</mask>
<g mask="url(#mask8_732_2727)">
<path d="M6.6 18.5C7.48366 18.5 8.2 17.7836 8.2 16.9C8.2 16.0163 7.48366 15.3 6.6 15.3C5.71634 15.3 5 16.0163 5 16.9C5 17.7836 5.71634 18.5 6.6 18.5Z" fill="#CFEBF8"/>
</g>
<defs>
<linearGradient id="paint0_linear_732_2727" x1="12.113" y1="14.0597" x2="16.887" y2="8.9403" gradientUnits="userSpaceOnUse">
<stop offset="0.00558659" stop-color="#E89C42"/>
<stop offset="1" stop-color="#F5D12A"/>
</linearGradient>
</defs>
</svg>
